<svg width="50" height="50" viewBox="0 0 50 50" fill="none" xmlns="http://www.w3.org/2000/svg">
<mask id="mask0_2255_4784" style="mask-type:alpha" maskUnits="userSpaceOnUse" x="0" y="0" width="50" height="50">
<rect width="50" height="50" rx="25" fill="#C4C4C4"/>
</mask>
<g mask="url(#mask0_2255_4784)">
<rect width="50" height="50" rx="25" fill="url(#paint0_linear_2255_4784)"/>
<ellipse cx="17.7631" cy="36.5615" rx="9.64352" ry="3.48439" fill="#286053"/>
<path d="M30.1993 35.9744L85.5544 34.8717L85.5544 36.572L30.3236 37.0926C30.3236 37.0926 29.4283 37.0926 29.3613 36.5459C29.2944 35.9991 30.1993 35.9744 30.1993 35.9744Z" fill="#286053"/>
<ellipse cx="17.7631" cy="27.2172" rx="9.64352" ry="9.87244" fill="white"/>
<path d="M30.1859 26.5111C30.1859 26.5111 45.0954 25.211 85.5814 23.3345L85.5814 28.2327C46.0752 29.7325 30.3103 29.7325 30.3103 29.7325C30.3103 29.7325 29.4143 29.7325 29.3473 28.1573C29.2802 26.5822 30.1859 26.5111 30.1859 26.5111Z" fill="white"/>
<path d="M31.7389 28.0618C31.8282 29.2761 31.481 29.7269 31.481 29.7269C32.0628 29.7227 32.8667 29.7156 33.9048 29.7031C33.9048 29.7031 34.2509 29.3289 34.1111 27.9035C33.9868 26.6364 33.5954 26.2455 33.5954 26.2455C32.563 26.3215 31.7781 26.3821 31.2232 26.4262C31.2232 26.4262 31.6495 26.8476 31.7389 28.0618Z" fill="#4FB38A"/>
</g>
<defs>
<linearGradient id="paint0_linear_2255_4784" x1="0" y1="25" x2="25" y2="50" gradientUnits="userSpaceOnUse">
<stop stop-color="#22343C"/>
<stop offset="1" stop-color="#1F2E35"/>
</linearGradient>
</defs>
</svg>
