<svg width="262" height="32" viewBox="0 0 262 32" fill="none" xmlns="http://www.w3.org/2000/svg">
<mask id="mask0_2255_4793" style="mask-type:alpha" maskUnits="userSpaceOnUse" x="0" y="0" width="32" height="32">
<rect width="32" height="32" rx="16" fill="#C4C4C4"/>
</mask>
<g mask="url(#mask0_2255_4793)">
<rect width="32" height="32" rx="16" fill="url(#paint0_linear_2255_4793)"/>
<ellipse cx="9.84375" cy="23.3125" rx="5.84375" ry="2.0625" fill="#286053"/>
<path d="M17.3798 22.965L50.9237 22.3123L50.9237 23.3188L17.4551 23.6269C17.4551 23.6269 16.9126 23.6269 16.872 23.3033C16.8314 22.9796 17.3798 22.965 17.3798 22.965Z" fill="#286053"/>
<circle cx="9.84375" cy="17.7812" r="5.84375" fill="white"/>
<path d="M17.3714 17.3634C17.3714 17.3634 26.4062 16.5938 50.9398 15.4831L50.9398 18.3824C27 19.2702 17.4468 19.2702 17.4468 19.2702C17.4468 19.2702 16.9038 19.2702 16.8632 18.3378C16.8226 17.4055 17.3714 17.3634 17.3714 17.3634Z" fill="white"/>
<path d="M18.3125 18.2813C18.3666 19.0001 18.1563 19.2669 18.1563 19.2669C18.5088 19.2644 18.996 19.2602 19.625 19.2528C19.625 19.2528 19.8347 19.0313 19.75 18.1876C19.6747 17.4376 19.4375 17.2062 19.4375 17.2062C18.8119 17.2512 18.3363 17.2871 18 17.3131C18 17.3131 18.2584 17.5626 18.3125 18.2813Z" fill="#4FB38A"/>
</g>
<path d="M48.0469 19.2109C48.1055 18.8659 48.0762 18.5762 47.959 18.3418C47.8483 18.1009 47.679 17.8991 47.4512 17.7363C47.2298 17.5671 46.9792 17.4238 46.6992 17.3066C46.4258 17.1895 46.1523 17.082 45.8789 16.9844C45.3776 16.7891 44.8828 16.5677 44.3945 16.3203C43.9128 16.0729 43.4733 15.7799 43.0762 15.4414C42.679 15.0964 42.3698 14.696 42.1484 14.2402C41.9271 13.778 41.8359 13.2376 41.875 12.6191C41.9206 11.916 42.1191 11.3073 42.4707 10.793C42.8223 10.2786 43.2682 9.85872 43.8086 9.5332C44.3555 9.20117 44.9479 8.95703 45.5859 8.80078C46.2305 8.64453 46.862 8.57292 47.4805 8.58594C48.3659 8.59896 49.1536 8.78451 49.8438 9.14258C50.5339 9.49414 51.0742 9.99544 51.4648 10.6465C51.862 11.291 52.0475 12.0658 52.0215 12.9707H49.1895C49.2155 12.541 49.1602 12.1699 49.0234 11.8574C48.8932 11.5384 48.6816 11.2943 48.3887 11.125C48.1022 10.9492 47.7344 10.8548 47.2852 10.8418C46.901 10.8353 46.5234 10.8971 46.1523 11.0273C45.7878 11.151 45.472 11.3464 45.2051 11.6133C44.9447 11.8737 44.7819 12.2122 44.7168 12.6289C44.6647 12.9349 44.707 13.1986 44.8438 13.4199C44.987 13.6413 45.179 13.8301 45.4199 13.9863C45.6673 14.1426 45.9277 14.276 46.2012 14.3867C46.4811 14.4909 46.7318 14.5853 46.9531 14.6699C47.4805 14.8587 47.9883 15.0833 48.4766 15.3438C48.9714 15.6042 49.4076 15.9134 49.7852 16.2715C50.1628 16.623 50.4525 17.0397 50.6543 17.5215C50.8561 17.9967 50.9375 18.5501 50.8984 19.1816C50.8398 19.9043 50.6445 20.5228 50.3125 21.0371C49.9805 21.5449 49.5508 21.9616 49.0234 22.2871C48.4961 22.6061 47.9199 22.8405 47.2949 22.9902C46.6699 23.14 46.0352 23.2116 45.3906 23.2051C44.6875 23.1921 44.0267 23.0814 43.4082 22.873C42.7897 22.6647 42.2493 22.3652 41.7871 21.9746C41.3249 21.5775 40.9668 21.0924 40.7129 20.5195C40.4655 19.9401 40.3516 19.2793 40.3711 18.5371L43.2324 18.5469C43.2064 18.944 43.2357 19.2923 43.3203 19.5918C43.4115 19.8848 43.5547 20.1322 43.75 20.334C43.9518 20.5358 44.1992 20.6888 44.4922 20.793C44.7917 20.8906 45.14 20.9427 45.5371 20.9492C45.9212 20.9492 46.2923 20.8906 46.6504 20.7734C47.0085 20.6562 47.3145 20.4707 47.5684 20.2168C47.8223 19.9564 47.9818 19.6211 48.0469 19.2109ZM56.0938 14.8457L54.6777 23H51.9238L53.7598 12.4336H56.3379L56.0938 14.8457ZM55.2832 17.3457L54.5996 17.3652C54.6712 16.7337 54.8145 16.1087 55.0293 15.4902C55.2441 14.8717 55.5371 14.3151 55.9082 13.8203C56.2858 13.319 56.7448 12.9251 57.2852 12.6387C57.832 12.3522 58.4668 12.2155 59.1895 12.2285C59.7754 12.248 60.2572 12.3717 60.6348 12.5996C61.0189 12.821 61.3118 13.1204 61.5137 13.498C61.722 13.8757 61.8555 14.3021 61.9141 14.7773C61.9792 15.2526 61.9857 15.7474 61.9336 16.2617L60.8008 23H58.0371L59.1797 16.2324C59.2188 15.8874 59.209 15.5814 59.1504 15.3145C59.0918 15.0475 58.9616 14.8359 58.7598 14.6797C58.5645 14.5234 58.278 14.4421 57.9004 14.4355C57.4837 14.4225 57.1224 14.5007 56.8164 14.6699C56.5169 14.8392 56.263 15.0671 56.0547 15.3535C55.8464 15.64 55.6803 15.9557 55.5566 16.3008C55.4329 16.6458 55.3418 16.9941 55.2832 17.3457ZM63.3496 17.8828L63.3789 17.6777C63.457 16.929 63.6361 16.2259 63.916 15.5684C64.2025 14.9043 64.5801 14.3216 65.0488 13.8203C65.5241 13.3125 66.0807 12.9186 66.7188 12.6387C67.3633 12.3522 68.0859 12.2188 68.8867 12.2383C69.6484 12.2513 70.306 12.4043 70.8594 12.6973C71.4128 12.9902 71.8652 13.3841 72.2168 13.8789C72.5749 14.3737 72.8255 14.9401 72.9688 15.5781C73.1185 16.2161 73.1608 16.89 73.0957 17.5996L73.0762 17.8145C72.9915 18.5566 72.8027 19.2565 72.5098 19.9141C72.2233 20.5651 71.8424 21.1413 71.3672 21.6426C70.8984 22.1374 70.3418 22.5247 69.6973 22.8047C69.0527 23.0846 68.3366 23.2148 67.5488 23.1953C66.8001 23.1823 66.1458 23.0326 65.5859 22.7461C65.026 22.4531 64.5703 22.0625 64.2188 21.5742C63.8672 21.0794 63.6198 20.5163 63.4766 19.8848C63.3333 19.2533 63.291 18.5859 63.3496 17.8828ZM66.123 17.6777L66.1035 17.8926C66.071 18.2051 66.0612 18.5404 66.0742 18.8984C66.0872 19.25 66.1426 19.5853 66.2402 19.9043C66.3444 20.2233 66.5137 20.4837 66.748 20.6855C66.9824 20.8874 67.3047 20.9948 67.7148 21.0078C68.151 21.0208 68.5254 20.9329 68.8379 20.7441C69.1504 20.5553 69.4076 20.3014 69.6094 19.9824C69.8112 19.6569 69.9707 19.3053 70.0879 18.9277C70.2051 18.5436 70.2832 18.1693 70.3223 17.8047L70.3418 17.5996C70.3678 17.2871 70.3743 16.9518 70.3613 16.5938C70.3548 16.2292 70.2995 15.8874 70.1953 15.5684C70.0911 15.2428 69.9219 14.9759 69.6875 14.7676C69.4531 14.5592 69.1309 14.4486 68.7207 14.4355C68.2845 14.416 67.9102 14.5072 67.5977 14.709C67.2852 14.9043 67.028 15.1647 66.8262 15.4902C66.6243 15.8158 66.4648 16.1706 66.3477 16.5547C66.237 16.9388 66.1621 17.3132 66.123 17.6777ZM74.3066 17.8828L74.3359 17.6777C74.4141 16.929 74.5931 16.2259 74.873 15.5684C75.1595 14.9043 75.5371 14.3216 76.0059 13.8203C76.4811 13.3125 77.0378 12.9186 77.6758 12.6387C78.3203 12.3522 79.043 12.2188 79.8438 12.2383C80.6055 12.2513 81.263 12.4043 81.8164 12.6973C82.3698 12.9902 82.8223 13.3841 83.1738 13.8789C83.5319 14.3737 83.7826 14.9401 83.9258 15.5781C84.0755 16.2161 84.1178 16.89 84.0527 17.5996L84.0332 17.8145C83.9486 18.5566 83.7598 19.2565 83.4668 19.9141C83.1803 20.5651 82.7995 21.1413 82.3242 21.6426C81.8555 22.1374 81.2988 22.5247 80.6543 22.8047C80.0098 23.0846 79.2936 23.2148 78.5059 23.1953C77.7572 23.1823 77.1029 23.0326 76.543 22.7461C75.9831 22.4531 75.5273 22.0625 75.1758 21.5742C74.8242 21.0794 74.5768 20.5163 74.4336 19.8848C74.2904 19.2533 74.248 18.5859 74.3066 17.8828ZM77.0801 17.6777L77.0605 17.8926C77.028 18.2051 77.0182 18.5404 77.0312 18.8984C77.0443 19.25 77.0996 19.5853 77.1973 19.9043C77.3014 20.2233 77.4707 20.4837 77.7051 20.6855C77.9395 20.8874 78.2617 20.9948 78.6719 21.0078C79.1081 21.0208 79.4824 20.9329 79.7949 20.7441C80.1074 20.5553 80.3646 20.3014 80.5664 19.9824C80.7682 19.6569 80.9277 19.3053 81.0449 18.9277C81.1621 18.5436 81.2402 18.1693 81.2793 17.8047L81.2988 17.5996C81.3249 17.2871 81.3314 16.9518 81.3184 16.5938C81.3118 16.2292 81.2565 15.8874 81.1523 15.5684C81.0482 15.2428 80.8789 14.9759 80.6445 14.7676C80.4102 14.5592 80.0879 14.4486 79.6777 14.4355C79.2415 14.416 78.8672 14.5072 78.5547 14.709C78.2422 14.9043 77.985 15.1647 77.7832 15.4902C77.5814 15.8158 77.4219 16.1706 77.3047 16.5547C77.194 16.9388 77.1191 17.3132 77.0801 17.6777ZM90.1367 7.99023L87.5293 23H84.7852L87.3926 7.99023H90.1367ZM95.9277 12.4336L90.5664 17.6777L87.6953 20.1973L87.0117 18L89.2676 15.5879L92.4316 12.4336H95.9277ZM91.2207 23L88.9844 18L91.0645 16.3984L94.248 23H91.2207ZM99.9219 23.1953C99.1992 23.1823 98.5482 23.0456 97.9688 22.7852C97.3893 22.5182 96.9043 22.1536 96.5137 21.6914C96.1296 21.2292 95.8464 20.6921 95.6641 20.0801C95.4818 19.4681 95.4167 18.8105 95.4688 18.1074L95.5078 17.707C95.5859 16.9714 95.765 16.2715 96.0449 15.6074C96.3249 14.9434 96.6992 14.3574 97.168 13.8496C97.6367 13.3353 98.1901 12.9349 98.8281 12.6484C99.4727 12.3555 100.189 12.2188 100.977 12.2383C101.712 12.2513 102.34 12.401 102.861 12.6875C103.382 12.974 103.802 13.3581 104.121 13.8398C104.44 14.3216 104.658 14.8717 104.775 15.4902C104.893 16.1022 104.915 16.7435 104.844 17.4141L104.688 18.5859H96.5234L96.8262 16.7109L102.217 16.7207L102.266 16.4766C102.318 16.1185 102.301 15.7865 102.217 15.4805C102.132 15.168 101.973 14.9173 101.738 14.7285C101.504 14.5397 101.191 14.4388 100.801 14.4258C100.352 14.4128 99.974 14.5072 99.668 14.709C99.362 14.9108 99.1113 15.1777 98.916 15.5098C98.7207 15.8418 98.571 16.2031 98.4668 16.5938C98.3626 16.9779 98.2878 17.349 98.2422 17.707L98.2031 18.0977C98.1706 18.4427 98.1803 18.7878 98.2324 19.1328C98.2845 19.4714 98.3854 19.7773 98.5352 20.0508C98.6914 20.3242 98.903 20.5456 99.1699 20.7148C99.4434 20.8841 99.7852 20.9753 100.195 20.9883C100.716 21.0013 101.195 20.9004 101.631 20.6855C102.074 20.4642 102.471 20.1712 102.822 19.8066L104.053 21.291C103.76 21.7337 103.385 22.0983 102.93 22.3848C102.48 22.6647 101.995 22.8698 101.475 23C100.954 23.1367 100.436 23.2018 99.9219 23.1953ZM109.6 14.8848L108.193 23H105.449L107.285 12.4336H109.863L109.6 14.8848ZM113.047 12.3457L112.705 14.9727C112.549 14.9466 112.389 14.9238 112.227 14.9043C112.07 14.8848 111.911 14.8717 111.748 14.8652C111.37 14.8587 111.029 14.9076 110.723 15.0117C110.417 15.1159 110.15 15.2689 109.922 15.4707C109.701 15.666 109.512 15.9069 109.355 16.1934C109.206 16.4798 109.092 16.8021 109.014 17.1602L108.477 16.9844C108.542 16.4831 108.649 15.9557 108.799 15.4023C108.955 14.8424 109.17 14.3216 109.443 13.8398C109.723 13.3516 110.078 12.9577 110.508 12.6582C110.944 12.3522 111.475 12.2025 112.1 12.209C112.262 12.209 112.419 12.222 112.568 12.248C112.725 12.2741 112.884 12.3066 113.047 12.3457ZM124.062 17.9414L120.381 17.9316L120.781 15.6465L124.16 15.6562C124.642 15.6562 125.085 15.5716 125.488 15.4023C125.892 15.2266 126.224 14.9727 126.484 14.6406C126.745 14.3086 126.911 13.8919 126.982 13.3906C127.048 12.9674 127.025 12.5866 126.914 12.248C126.803 11.9095 126.608 11.6361 126.328 11.4277C126.048 11.2194 125.687 11.1055 125.244 11.0859L122.578 11.0762L120.508 23H117.646L120.107 8.78125L125.332 8.79102C126.237 8.81055 127.044 9.00586 127.754 9.37695C128.464 9.74154 129.01 10.2624 129.395 10.9395C129.785 11.61 129.941 12.4206 129.863 13.3711C129.779 14.4062 129.456 15.2624 128.896 15.9395C128.337 16.6165 127.63 17.1211 126.777 17.4531C125.931 17.7786 125.026 17.9414 124.062 17.9414ZM134.15 14.8848L132.744 23H130L131.836 12.4336H134.414L134.15 14.8848ZM137.598 12.3457L137.256 14.9727C137.1 14.9466 136.94 14.9238 136.777 14.9043C136.621 14.8848 136.462 14.8717 136.299 14.8652C135.921 14.8587 135.579 14.9076 135.273 15.0117C134.967 15.1159 134.701 15.2689 134.473 15.4707C134.251 15.666 134.062 15.9069 133.906 16.1934C133.757 16.4798 133.643 16.8021 133.564 17.1602L133.027 16.9844C133.092 16.4831 133.2 15.9557 133.35 15.4023C133.506 14.8424 133.721 14.3216 133.994 13.8398C134.274 13.3516 134.629 12.9577 135.059 12.6582C135.495 12.3522 136.025 12.2025 136.65 12.209C136.813 12.209 136.969 12.222 137.119 12.248C137.275 12.2741 137.435 12.3066 137.598 12.3457ZM142.754 20.6172L143.496 15.8809C143.529 15.5944 143.516 15.3275 143.457 15.0801C143.398 14.8327 143.278 14.6374 143.096 14.4941C142.92 14.3444 142.669 14.263 142.344 14.25C142.051 14.2435 141.787 14.2956 141.553 14.4062C141.325 14.5104 141.136 14.6634 140.986 14.8652C140.837 15.0605 140.732 15.2949 140.674 15.5684L137.92 15.5879C137.952 15.002 138.115 14.4974 138.408 14.0742C138.708 13.6445 139.085 13.293 139.541 13.0195C139.997 12.7461 140.492 12.5443 141.025 12.4141C141.566 12.2839 142.093 12.2253 142.607 12.2383C143.343 12.2513 143.997 12.4043 144.57 12.6973C145.15 12.9902 145.592 13.4102 145.898 13.957C146.211 14.4974 146.328 15.1549 146.25 15.9297L145.518 20.4609C145.459 20.8385 145.413 21.2357 145.381 21.6523C145.348 22.0625 145.407 22.4531 145.557 22.8242L145.537 23L142.842 23.0098C142.718 22.6257 142.656 22.2318 142.656 21.8281C142.663 21.418 142.695 21.0143 142.754 20.6172ZM143.809 16.5645L143.545 18.1562L142.148 18.1465C141.868 18.153 141.589 18.1921 141.309 18.2637C141.035 18.3288 140.781 18.4329 140.547 18.5762C140.312 18.7129 140.117 18.8919 139.961 19.1133C139.811 19.3346 139.717 19.6048 139.678 19.9238C139.645 20.1517 139.668 20.3568 139.746 20.5391C139.824 20.7148 139.945 20.8548 140.107 20.959C140.277 21.0632 140.479 21.1185 140.713 21.125C141.045 21.1315 141.37 21.0697 141.689 20.9395C142.008 20.8027 142.285 20.6107 142.52 20.3633C142.754 20.1159 142.917 19.8294 143.008 19.5039L143.594 20.7246C143.438 21.0892 143.239 21.4245 142.998 21.7305C142.764 22.0365 142.493 22.3034 142.188 22.5312C141.882 22.7526 141.546 22.9219 141.182 23.0391C140.817 23.1628 140.426 23.2214 140.01 23.2148C139.43 23.2018 138.896 23.0651 138.408 22.8047C137.926 22.5378 137.542 22.1764 137.256 21.7207C136.976 21.2585 136.849 20.7214 136.875 20.1094C136.901 19.4193 137.074 18.8464 137.393 18.3906C137.712 17.9284 138.122 17.5638 138.623 17.2969C139.131 17.0299 139.681 16.8411 140.273 16.7305C140.872 16.6133 141.465 16.5547 142.051 16.5547L143.809 16.5645ZM151.797 21.0078C152.142 21.0143 152.448 20.9492 152.715 20.8125C152.988 20.6758 153.213 20.4837 153.389 20.2363C153.564 19.9889 153.682 19.7025 153.74 19.377L156.328 19.3672C156.27 20.1549 156.016 20.8385 155.566 21.418C155.124 21.9974 154.561 22.4434 153.877 22.7559C153.2 23.0684 152.48 23.2148 151.719 23.1953C150.957 23.1823 150.303 23.0293 149.756 22.7363C149.215 22.4434 148.779 22.0527 148.447 21.5645C148.115 21.0697 147.881 20.5065 147.744 19.875C147.614 19.2435 147.581 18.5794 147.646 17.8828L147.676 17.5898C147.754 16.8607 147.93 16.1706 148.203 15.5195C148.477 14.862 148.841 14.2858 149.297 13.791C149.759 13.2897 150.303 12.9023 150.928 12.6289C151.553 12.349 152.259 12.2188 153.047 12.2383C153.861 12.2513 154.557 12.4368 155.137 12.7949C155.716 13.1465 156.156 13.6283 156.455 14.2402C156.761 14.8522 156.908 15.5553 156.895 16.3496L154.316 16.3398C154.323 16.0208 154.281 15.7181 154.189 15.4316C154.098 15.1387 153.942 14.9043 153.721 14.7285C153.506 14.5462 153.213 14.4453 152.842 14.4258C152.406 14.4128 152.041 14.5039 151.748 14.6992C151.455 14.888 151.217 15.1452 151.035 15.4707C150.853 15.7897 150.713 16.138 150.615 16.5156C150.518 16.8867 150.449 17.248 150.41 17.5996L150.391 17.8828C150.358 18.1758 150.339 18.5013 150.332 18.8594C150.326 19.2109 150.361 19.5495 150.439 19.875C150.518 20.194 150.661 20.4609 150.869 20.6758C151.084 20.8841 151.393 20.9948 151.797 21.0078ZM164.16 12.4336L163.809 14.4258H157.822L158.174 12.4336H164.16ZM160.107 9.82617H162.852L161.133 19.8359C161.107 20.0638 161.107 20.2591 161.133 20.4219C161.165 20.5781 161.24 20.6986 161.357 20.7832C161.475 20.8678 161.657 20.9167 161.904 20.9297C162.041 20.9362 162.178 20.9329 162.314 20.9199C162.451 20.9004 162.591 20.8809 162.734 20.8613L162.539 22.9609C162.279 23.0391 162.015 23.0944 161.748 23.127C161.488 23.166 161.221 23.1855 160.947 23.1855C160.322 23.1725 159.808 23.0358 159.404 22.7754C159.007 22.515 158.721 22.1569 158.545 21.7012C158.376 21.2389 158.32 20.7051 158.379 20.0996L160.107 9.82617ZM168.574 12.4336L166.748 23H163.994L165.83 12.4336H168.574ZM166.133 9.72852C166.12 9.28581 166.263 8.93099 166.562 8.66406C166.868 8.39714 167.236 8.26042 167.666 8.25391C168.076 8.2474 168.434 8.37109 168.74 8.625C169.046 8.8724 169.199 9.20768 169.199 9.63086C169.212 10.0736 169.066 10.4284 168.76 10.6953C168.454 10.9622 168.089 11.099 167.666 11.1055C167.256 11.112 166.898 10.9915 166.592 10.7441C166.292 10.4967 166.139 10.1582 166.133 9.72852ZM173.613 21.0078C173.958 21.0143 174.264 20.9492 174.531 20.8125C174.805 20.6758 175.029 20.4837 175.205 20.2363C175.381 19.9889 175.498 19.7025 175.557 19.377L178.145 19.3672C178.086 20.1549 177.832 20.8385 177.383 21.418C176.94 21.9974 176.377 22.4434 175.693 22.7559C175.016 23.0684 174.297 23.2148 173.535 23.1953C172.773 23.1823 172.119 23.0293 171.572 22.7363C171.032 22.4434 170.596 22.0527 170.264 21.5645C169.932 21.0697 169.697 20.5065 169.561 19.875C169.43 19.2435 169.398 18.5794 169.463 17.8828L169.492 17.5898C169.57 16.8607 169.746 16.1706 170.02 15.5195C170.293 14.862 170.658 14.2858 171.113 13.791C171.576 13.2897 172.119 12.9023 172.744 12.6289C173.369 12.349 174.076 12.2188 174.863 12.2383C175.677 12.2513 176.374 12.4368 176.953 12.7949C177.533 13.1465 177.972 13.6283 178.271 14.2402C178.577 14.8522 178.724 15.5553 178.711 16.3496L176.133 16.3398C176.139 16.0208 176.097 15.7181 176.006 15.4316C175.915 15.1387 175.758 14.9043 175.537 14.7285C175.322 14.5462 175.029 14.4453 174.658 14.4258C174.222 14.4128 173.857 14.5039 173.564 14.6992C173.271 14.888 173.034 15.1452 172.852 15.4707C172.669 15.7897 172.529 16.138 172.432 16.5156C172.334 16.8867 172.266 17.248 172.227 17.5996L172.207 17.8828C172.174 18.1758 172.155 18.5013 172.148 18.8594C172.142 19.2109 172.178 19.5495 172.256 19.875C172.334 20.194 172.477 20.4609 172.686 20.6758C172.9 20.8841 173.21 20.9948 173.613 21.0078ZM184.062 23.1953C183.34 23.1823 182.689 23.0456 182.109 22.7852C181.53 22.5182 181.045 22.1536 180.654 21.6914C180.27 21.2292 179.987 20.6921 179.805 20.0801C179.622 19.4681 179.557 18.8105 179.609 18.1074L179.648 17.707C179.727 16.9714 179.906 16.2715 180.186 15.6074C180.465 14.9434 180.84 14.3574 181.309 13.8496C181.777 13.3353 182.331 12.9349 182.969 12.6484C183.613 12.3555 184.329 12.2188 185.117 12.2383C185.853 12.2513 186.481 12.401 187.002 12.6875C187.523 12.974 187.943 13.3581 188.262 13.8398C188.581 14.3216 188.799 14.8717 188.916 15.4902C189.033 16.1022 189.056 16.7435 188.984 17.4141L188.828 18.5859H180.664L180.967 16.7109L186.357 16.7207L186.406 16.4766C186.458 16.1185 186.442 15.7865 186.357 15.4805C186.273 15.168 186.113 14.9173 185.879 14.7285C185.645 14.5397 185.332 14.4388 184.941 14.4258C184.492 14.4128 184.115 14.5072 183.809 14.709C183.503 14.9108 183.252 15.1777 183.057 15.5098C182.861 15.8418 182.712 16.2031 182.607 16.5938C182.503 16.9779 182.428 17.349 182.383 17.707L182.344 18.0977C182.311 18.4427 182.321 18.7878 182.373 19.1328C182.425 19.4714 182.526 19.7773 182.676 20.0508C182.832 20.3242 183.044 20.5456 183.311 20.7148C183.584 20.8841 183.926 20.9753 184.336 20.9883C184.857 21.0013 185.335 20.9004 185.771 20.6855C186.214 20.4642 186.611 20.1712 186.963 19.8066L188.193 21.291C187.9 21.7337 187.526 22.0983 187.07 22.3848C186.621 22.6647 186.136 22.8698 185.615 23C185.094 23.1367 184.577 23.2018 184.062 23.1953Z" fill="#21333B"/>
<path d="M203.33 8.78125L200.869 23H198.008L200.479 8.78125H203.33ZM207.568 8.78125L207.168 11.0762H195.908L196.309 8.78125H207.568ZM210.01 14.8848L208.604 23H205.859L207.695 12.4336H210.273L210.01 14.8848ZM213.457 12.3457L213.115 14.9727C212.959 14.9466 212.799 14.9238 212.637 14.9043C212.48 14.8848 212.321 14.8717 212.158 14.8652C211.781 14.8587 211.439 14.9076 211.133 15.0117C210.827 15.1159 210.56 15.2689 210.332 15.4707C210.111 15.666 209.922 15.9069 209.766 16.1934C209.616 16.4798 209.502 16.8021 209.424 17.1602L208.887 16.9844C208.952 16.4831 209.059 15.9557 209.209 15.4023C209.365 14.8424 209.58 14.3216 209.854 13.8398C210.133 13.3516 210.488 12.9577 210.918 12.6582C211.354 12.3522 211.885 12.2025 212.51 12.209C212.673 12.209 212.829 12.222 212.979 12.248C213.135 12.2741 213.294 12.3066 213.457 12.3457ZM218.613 20.6172L219.355 15.8809C219.388 15.5944 219.375 15.3275 219.316 15.0801C219.258 14.8327 219.137 14.6374 218.955 14.4941C218.779 14.3444 218.529 14.263 218.203 14.25C217.91 14.2435 217.646 14.2956 217.412 14.4062C217.184 14.5104 216.995 14.6634 216.846 14.8652C216.696 15.0605 216.592 15.2949 216.533 15.5684L213.779 15.5879C213.812 15.002 213.975 14.4974 214.268 14.0742C214.567 13.6445 214.945 13.293 215.4 13.0195C215.856 12.7461 216.351 12.5443 216.885 12.4141C217.425 12.2839 217.952 12.2253 218.467 12.2383C219.202 12.2513 219.857 12.4043 220.43 12.6973C221.009 12.9902 221.452 13.4102 221.758 13.957C222.07 14.4974 222.188 15.1549 222.109 15.9297L221.377 20.4609C221.318 20.8385 221.273 21.2357 221.24 21.6523C221.208 22.0625 221.266 22.4531 221.416 22.8242L221.396 23L218.701 23.0098C218.577 22.6257 218.516 22.2318 218.516 21.8281C218.522 21.418 218.555 21.0143 218.613 20.6172ZM219.668 16.5645L219.404 18.1562L218.008 18.1465C217.728 18.153 217.448 18.1921 217.168 18.2637C216.895 18.3288 216.641 18.4329 216.406 18.5762C216.172 18.7129 215.977 18.8919 215.82 19.1133C215.671 19.3346 215.576 19.6048 215.537 19.9238C215.505 20.1517 215.527 20.3568 215.605 20.5391C215.684 20.7148 215.804 20.8548 215.967 20.959C216.136 21.0632 216.338 21.1185 216.572 21.125C216.904 21.1315 217.23 21.0697 217.549 20.9395C217.868 20.8027 218.145 20.6107 218.379 20.3633C218.613 20.1159 218.776 19.8294 218.867 19.5039L219.453 20.7246C219.297 21.0892 219.098 21.4245 218.857 21.7305C218.623 22.0365 218.353 22.3034 218.047 22.5312C217.741 22.7526 217.406 22.9219 217.041 23.0391C216.676 23.1628 216.286 23.2214 215.869 23.2148C215.29 23.2018 214.756 23.0651 214.268 22.8047C213.786 22.5378 213.402 22.1764 213.115 21.7207C212.835 21.2585 212.708 20.7214 212.734 20.1094C212.76 19.4193 212.933 18.8464 213.252 18.3906C213.571 17.9284 213.981 17.5638 214.482 17.2969C214.99 17.0299 215.54 16.8411 216.133 16.7305C216.732 16.6133 217.324 16.5547 217.91 16.5547L219.668 16.5645ZM227.656 21.0078C228.001 21.0143 228.307 20.9492 228.574 20.8125C228.848 20.6758 229.072 20.4837 229.248 20.2363C229.424 19.9889 229.541 19.7025 229.6 19.377L232.188 19.3672C232.129 20.1549 231.875 20.8385 231.426 21.418C230.983 21.9974 230.42 22.4434 229.736 22.7559C229.059 23.0684 228.34 23.2148 227.578 23.1953C226.816 23.1823 226.162 23.0293 225.615 22.7363C225.075 22.4434 224.639 22.0527 224.307 21.5645C223.975 21.0697 223.74 20.5065 223.604 19.875C223.473 19.2435 223.441 18.5794 223.506 17.8828L223.535 17.5898C223.613 16.8607 223.789 16.1706 224.062 15.5195C224.336 14.862 224.701 14.2858 225.156 13.791C225.618 13.2897 226.162 12.9023 226.787 12.6289C227.412 12.349 228.118 12.2188 228.906 12.2383C229.72 12.2513 230.417 12.4368 230.996 12.7949C231.576 13.1465 232.015 13.6283 232.314 14.2402C232.62 14.8522 232.767 15.5553 232.754 16.3496L230.176 16.3398C230.182 16.0208 230.14 15.7181 230.049 15.4316C229.958 15.1387 229.801 14.9043 229.58 14.7285C229.365 14.5462 229.072 14.4453 228.701 14.4258C228.265 14.4128 227.9 14.5039 227.607 14.6992C227.314 14.888 227.077 15.1452 226.895 15.4707C226.712 15.7897 226.572 16.138 226.475 16.5156C226.377 16.8867 226.309 17.248 226.27 17.5996L226.25 17.8828C226.217 18.1758 226.198 18.5013 226.191 18.8594C226.185 19.2109 226.221 19.5495 226.299 19.875C226.377 20.194 226.52 20.4609 226.729 20.6758C226.943 20.8841 227.253 20.9948 227.656 21.0078ZM238.496 7.99023L235.889 23H233.145L235.752 7.99023H238.496ZM244.287 12.4336L238.926 17.6777L236.055 20.1973L235.371 18L237.627 15.5879L240.791 12.4336H244.287ZM239.58 23L237.344 18L239.424 16.3984L242.607 23H239.58ZM248.281 23.1953C247.559 23.1823 246.908 23.0456 246.328 22.7852C245.749 22.5182 245.264 22.1536 244.873 21.6914C244.489 21.2292 244.206 20.6921 244.023 20.0801C243.841 19.4681 243.776 18.8105 243.828 18.1074L243.867 17.707C243.945 16.9714 244.124 16.2715 244.404 15.6074C244.684 14.9434 245.059 14.3574 245.527 13.8496C245.996 13.3353 246.549 12.9349 247.188 12.6484C247.832 12.3555 248.548 12.2188 249.336 12.2383C250.072 12.2513 250.7 12.401 251.221 12.6875C251.742 12.974 252.161 13.3581 252.48 13.8398C252.799 14.3216 253.018 14.8717 253.135 15.4902C253.252 16.1022 253.275 16.7435 253.203 17.4141L253.047 18.5859H244.883L245.186 16.7109L250.576 16.7207L250.625 16.4766C250.677 16.1185 250.661 15.7865 250.576 15.4805C250.492 15.168 250.332 14.9173 250.098 14.7285C249.863 14.5397 249.551 14.4388 249.16 14.4258C248.711 14.4128 248.333 14.5072 248.027 14.709C247.721 14.9108 247.471 15.1777 247.275 15.5098C247.08 15.8418 246.93 16.2031 246.826 16.5938C246.722 16.9779 246.647 17.349 246.602 17.707L246.562 18.0977C246.53 18.4427 246.54 18.7878 246.592 19.1328C246.644 19.4714 246.745 19.7773 246.895 20.0508C247.051 20.3242 247.262 20.5456 247.529 20.7148C247.803 20.8841 248.145 20.9753 248.555 20.9883C249.076 21.0013 249.554 20.9004 249.99 20.6855C250.433 20.4642 250.83 20.1712 251.182 19.8066L252.412 21.291C252.119 21.7337 251.745 22.0983 251.289 22.3848C250.84 22.6647 250.355 22.8698 249.834 23C249.313 23.1367 248.796 23.2018 248.281 23.1953ZM257.959 14.8848L256.553 23H253.809L255.645 12.4336H258.223L257.959 14.8848ZM261.406 12.3457L261.064 14.9727C260.908 14.9466 260.749 14.9238 260.586 14.9043C260.43 14.8848 260.27 14.8717 260.107 14.8652C259.73 14.8587 259.388 14.9076 259.082 15.0117C258.776 15.1159 258.509 15.2689 258.281 15.4707C258.06 15.666 257.871 15.9069 257.715 16.1934C257.565 16.4798 257.451 16.8021 257.373 17.1602L256.836 16.9844C256.901 16.4831 257.008 15.9557 257.158 15.4023C257.314 14.8424 257.529 14.3216 257.803 13.8398C258.083 13.3516 258.438 12.9577 258.867 12.6582C259.303 12.3522 259.834 12.2025 260.459 12.209C260.622 12.209 260.778 12.222 260.928 12.248C261.084 12.2741 261.243 12.3066 261.406 12.3457Z" fill="#4FB38A"/>
<defs>
<linearGradient id="paint0_linear_2255_4793" x1="0" y1="16" x2="16" y2="32" gradientUnits="userSpaceOnUse">
<stop stop-color="#22343C"/>
<stop offset="1" stop-color="#1F2E35"/>
</linearGradient>
</defs>
</svg>
