<svg width="284" height="142" viewBox="0 0 284 142" fill="none" xmlns="http://www.w3.org/2000/svg">
<path fill-rule="evenodd" clip-rule="evenodd" d="M271 6H13C9.13401 6 6 9.13401 6 13V129C6 132.866 9.13401 136 13 136H271C274.866 136 278 132.866 278 129V13C278 9.13401 274.866 6 271 6ZM13 0C5.8203 0 0 5.8203 0 13V129C0 136.18 5.8203 142 13 142H271C278.18 142 284 136.18 284 129V13C284 5.8203 278.18 0 271 0H13Z" fill="#CFCFCF"/>
<path d="M223 0L223 142M223 93C235.15 93 245 83.1503 245 71C245 58.8497 235.15 49 223 49" stroke="#CFCFCF" stroke-width="2"/>
<circle cx="141.625" cy="70.625" r="2.625" fill="#0000FF"/>
<circle cx="70.625" cy="70.625" r="2.625" fill="#FF88FF"/>
<circle cx="222.625" cy="70.625" r="2.625" fill="#FF8800"/>
<circle cx="222.625" cy="49.625" r="2.625" fill="#CBC530"/>
<circle cx="222.625" cy="92.625" r="2.625" fill="#009900"/>
<circle cx="34.625" cy="70.625" r="2.625" fill="black"/>
<circle cx="59.625" cy="67.625" r="2.625" transform="rotate(90 59.625 67.625)" fill="#FF0000"/>
<circle cx="59.625" cy="73.625" r="2.625" transform="rotate(90 59.625 73.625)" fill="#FF0000"/>
<circle cx="64.625" cy="70.625" r="2.625" transform="rotate(90 64.625 70.625)" fill="#FF0000"/>
<circle cx="54.625" cy="70.625" r="2.625" transform="rotate(90 54.625 70.625)" fill="#FF0000"/>
<circle cx="54.625" cy="64.625" r="2.625" transform="rotate(90 54.625 64.625)" fill="#FF0000"/>
<circle cx="54.625" cy="76.625" r="2.625" transform="rotate(90 54.625 76.625)" fill="#FF0000"/>
<circle cx="49.625" cy="67.625" r="2.625" transform="rotate(90 49.625 67.625)" fill="#FF0000"/>
<circle cx="49.625" cy="73.625" r="2.625" transform="rotate(90 49.625 73.625)" fill="#FF0000"/>
<circle cx="49.625" cy="79.625" r="2.625" transform="rotate(90 49.625 79.625)" fill="#FF0000"/>
<circle cx="49.625" cy="61.625" r="2.625" transform="rotate(90 49.625 61.625)" fill="#FF0000"/>
<circle cx="44.625" cy="64.625" r="2.625" transform="rotate(90 44.625 64.625)" fill="#FF0000"/>
<circle cx="44.625" cy="70.625" r="2.625" transform="rotate(90 44.625 70.625)" fill="#FF0000"/>
<circle cx="44.625" cy="76.625" r="2.625" transform="rotate(90 44.625 76.625)" fill="#FF0000"/>
<circle cx="44.625" cy="82.625" r="2.625" transform="rotate(90 44.625 82.625)" fill="#FF0000"/>
<circle cx="44.625" cy="58.625" r="2.625" transform="rotate(90 44.625 58.625)" fill="#FF0000"/>
<path d="M50.726 82.5989C50.4951 82.7504 50.4308 83.0604 50.5823 83.2913L53.0511 87.0535C53.2026 87.2844 53.5126 87.3488 53.7435 87.1973C53.9743 87.0458 54.0387 86.7358 53.8872 86.5049L51.6926 83.1607L55.0369 80.9661C55.2678 80.8146 55.3321 80.5046 55.1806 80.2738C55.0291 80.0429 54.7191 79.9786 54.4883 80.1301L50.726 82.5989ZM128.102 98.5104L51.1019 82.5274L50.8987 83.5065L127.898 99.4896L128.102 98.5104Z" fill="#E4E4E4"/>
<path d="M8.52008 105.86C8.44261 106.125 8.59467 106.402 8.85972 106.48L13.179 107.742C13.444 107.82 13.7217 107.668 13.7992 107.403C13.8766 107.138 13.7246 106.86 13.4595 106.783L9.6202 105.66L10.7425 101.821C10.8199 101.556 10.6679 101.278 10.4028 101.201C10.1378 101.123 9.86011 101.275 9.78264 101.54L8.52008 105.86ZM50.7598 82.5615L8.75984 105.561L9.24016 106.439L51.2402 83.4385L50.7598 82.5615Z" fill="#E4E4E4"/>
<path d="M103.234 135.442C103.478 135.313 103.571 135.011 103.442 134.766L101.34 130.788C101.211 130.544 100.908 130.45 100.664 130.579C100.42 130.708 100.326 131.011 100.455 131.255L102.324 134.792L98.7878 136.66C98.5436 136.789 98.4503 137.092 98.5793 137.336C98.7083 137.58 99.0108 137.674 99.255 137.545L103.234 135.442ZM8.8526 106.478L102.853 135.478L103.147 134.522L9.1474 105.522L8.8526 106.478Z" fill="#E4E4E4"/>
<path d="M273.442 83.2347C273.571 82.9908 273.479 82.6881 273.235 82.5585L269.261 80.4464C269.017 80.3168 268.715 80.4094 268.585 80.6533C268.455 80.8971 268.548 81.1998 268.792 81.3294L272.324 83.2068L270.446 86.7389C270.317 86.9827 270.409 87.2855 270.653 87.4151C270.897 87.5447 271.2 87.4521 271.329 87.2082L273.442 83.2347ZM103.146 135.478L273.146 83.4781L272.854 82.5219L102.854 134.522L103.146 135.478Z" fill="#E4E4E4"/>
</svg>
