<svg width="284" height="142" viewBox="0 0 284 142" fill="none" xmlns="http://www.w3.org/2000/svg">
<path fill-rule="evenodd" clip-rule="evenodd" d="M271 6H13C9.13401 6 6 9.13401 6 13V129C6 132.866 9.13401 136 13 136H271C274.866 136 278 132.866 278 129V13C278 9.13401 274.866 6 271 6ZM13 0C5.8203 0 0 5.8203 0 13V129C0 136.18 5.8203 142 13 142H271C278.18 142 284 136.18 284 129V13C284 5.8203 278.18 0 271 0H13Z" fill="#CFCFCF"/>
<path d="M223 0L223 142M223 93C235.15 93 245 83.1503 245 71C245 58.8497 235.15 49 223 49" stroke="#CFCFCF" stroke-width="2"/>
<circle cx="141.625" cy="70.625" r="2.625" fill="#0000FF"/>
<circle cx="70.625" cy="70.625" r="2.625" fill="#FF88FF"/>
<circle cx="222.625" cy="70.625" r="2.625" fill="#FF8800"/>
<circle cx="222.625" cy="49.625" r="2.625" fill="#CBC530"/>
<circle cx="222.625" cy="92.625" r="2.625" fill="#009900"/>
<circle cx="34.625" cy="70.625" r="2.625" fill="black"/>
<circle cx="59.625" cy="67.625" r="2.625" transform="rotate(90 59.625 67.625)" fill="#FF0000"/>
<circle cx="59.625" cy="73.625" r="2.625" transform="rotate(90 59.625 73.625)" fill="#FF0000"/>
<circle cx="64.625" cy="70.625" r="2.625" transform="rotate(90 64.625 70.625)" fill="#FF0000"/>
<circle cx="54.625" cy="70.625" r="2.625" transform="rotate(90 54.625 70.625)" fill="#FF0000"/>
<circle cx="54.625" cy="64.625" r="2.625" transform="rotate(90 54.625 64.625)" fill="#FF0000"/>
<circle cx="54.625" cy="76.625" r="2.625" transform="rotate(90 54.625 76.625)" fill="#FF0000"/>
<circle cx="49.625" cy="67.625" r="2.625" transform="rotate(90 49.625 67.625)" fill="#FF0000"/>
<circle cx="49.625" cy="73.625" r="2.625" transform="rotate(90 49.625 73.625)" fill="#FF0000"/>
<circle cx="49.625" cy="79.625" r="2.625" transform="rotate(90 49.625 79.625)" fill="#FF0000"/>
<circle cx="49.625" cy="61.625" r="2.625" transform="rotate(90 49.625 61.625)" fill="#FF0000"/>
<circle cx="44.625" cy="64.625" r="2.625" transform="rotate(90 44.625 64.625)" fill="#FF0000"/>
<circle cx="44.625" cy="70.625" r="2.625" transform="rotate(90 44.625 70.625)" fill="#FF0000"/>
<circle cx="44.625" cy="76.625" r="2.625" transform="rotate(90 44.625 76.625)" fill="#FF0000"/>
<circle cx="44.625" cy="82.625" r="2.625" transform="rotate(90 44.625 82.625)" fill="#FF0000"/>
<circle cx="44.625" cy="58.625" r="2.625" transform="rotate(90 44.625 58.625)" fill="#FF0000"/>
<path d="M50.6408 82.6694C50.4489 82.868 50.4542 83.1845 50.6528 83.3764L53.8882 86.504C54.0868 86.696 54.4033 86.6906 54.5952 86.4921C54.7872 86.2935 54.7818 85.977 54.5833 85.785L51.7073 83.005L54.4874 80.129C54.6793 79.9305 54.6739 79.6139 54.4754 79.422C54.2769 79.2301 53.9603 79.2354 53.7684 79.434L50.6408 82.6694ZM228.992 79.5001L50.9918 82.517L51.0088 83.5169L229.008 80.4999L228.992 79.5001Z" fill="#E4E4E4"/>
<path d="M8.5045 114.933C8.46752 115.207 8.65939 115.459 8.93304 115.495L13.3925 116.098C13.6662 116.135 13.918 115.943 13.955 115.67C13.9919 115.396 13.8001 115.144 13.5264 115.107L9.56246 114.571L10.0981 110.607C10.1351 110.334 9.94324 110.082 9.66959 110.045C9.39593 110.008 9.14411 110.2 9.10713 110.474L8.5045 114.933ZM50.697 82.6023L8.69698 114.602L9.30302 115.398L51.303 83.3977L50.697 82.6023Z" fill="#E4E4E4"/>
<path d="M35.0769 134.494C35.3497 134.452 35.5365 134.196 35.4941 133.923L34.8024 129.477C34.7599 129.204 34.5043 129.017 34.2315 129.059C33.9586 129.102 33.7718 129.357 33.8143 129.63L34.4291 133.583L30.4766 134.198C30.2038 134.24 30.017 134.496 30.0594 134.769C30.1019 135.041 30.3575 135.228 30.6303 135.186L35.0769 134.494ZM8.70499 115.404L34.705 134.404L35.295 133.596L9.29501 114.596L8.70499 115.404Z" fill="#E4E4E4"/>
<path d="M187.498 7.04462C187.523 6.76958 187.32 6.52664 187.045 6.502L182.563 6.10038C182.288 6.07573 182.045 6.27872 182.02 6.55376C181.995 6.8288 182.198 7.07174 182.473 7.09639L186.457 7.45338L186.1 11.4374C186.076 11.7125 186.279 11.9554 186.554 11.98C186.829 12.0047 187.072 11.8017 187.096 11.5267L187.498 7.04462ZM35.3206 134.384L187.321 7.3837L186.679 6.6163L34.6794 133.616L35.3206 134.384Z" fill="#E4E4E4"/>
<path d="M276.178 47.4674C276.436 47.3694 276.565 47.0806 276.467 46.8225L274.87 42.6157C274.771 42.3576 274.483 42.2278 274.225 42.3258C273.966 42.4239 273.837 42.7127 273.935 42.9708L275.355 46.7101L271.616 48.1305C271.358 48.2285 271.228 48.5173 271.326 48.7755C271.424 49.0336 271.713 49.1634 271.971 49.0653L276.178 47.4674ZM186.795 7.45606L275.795 47.4561L276.205 46.5439L187.205 6.54394L186.795 7.45606Z" fill="#E4E4E4"/>
</svg>
