<svg width="284" height="142" viewBox="0 0 284 142" fill="none" xmlns="http://www.w3.org/2000/svg">
<path fill-rule="evenodd" clip-rule="evenodd" d="M271 6H13C9.13401 6 6 9.13401 6 13V129C6 132.866 9.13401 136 13 136H271C274.866 136 278 132.866 278 129V13C278 9.13401 274.866 6 271 6ZM13 0C5.8203 0 0 5.8203 0 13V129C0 136.18 5.8203 142 13 142H271C278.18 142 284 136.18 284 129V13C284 5.8203 278.18 0 271 0H13Z" fill="#CFCFCF"/>
<path d="M223 0L223 142M223 93C235.15 93 245 83.1503 245 71C245 58.8497 235.15 49 223 49" stroke="#CFCFCF" stroke-width="2"/>
<circle cx="141.625" cy="70.625" r="2.625" fill="#0000FF"/>
<circle cx="70.625" cy="70.625" r="2.625" fill="#FF88FF"/>
<circle cx="222.625" cy="70.625" r="2.625" fill="#FF8800"/>
<circle cx="222.625" cy="49.625" r="2.625" fill="#CBC530"/>
<circle cx="222.625" cy="92.625" r="2.625" fill="#009900"/>
<circle cx="34.625" cy="70.625" r="2.625" fill="black"/>
<circle cx="59.625" cy="67.625" r="2.625" transform="rotate(90 59.625 67.625)" fill="#FF0000"/>
<circle cx="59.625" cy="73.625" r="2.625" transform="rotate(90 59.625 73.625)" fill="#FF0000"/>
<circle cx="64.625" cy="70.625" r="2.625" transform="rotate(90 64.625 70.625)" fill="#FF0000"/>
<circle cx="54.625" cy="70.625" r="2.625" transform="rotate(90 54.625 70.625)" fill="#FF0000"/>
<circle cx="54.625" cy="64.625" r="2.625" transform="rotate(90 54.625 64.625)" fill="#FF0000"/>
<circle cx="54.625" cy="76.625" r="2.625" transform="rotate(90 54.625 76.625)" fill="#FF0000"/>
<circle cx="49.625" cy="67.625" r="2.625" transform="rotate(90 49.625 67.625)" fill="#FF0000"/>
<circle cx="49.625" cy="73.625" r="2.625" transform="rotate(90 49.625 73.625)" fill="#FF0000"/>
<circle cx="49.625" cy="79.625" r="2.625" transform="rotate(90 49.625 79.625)" fill="#FF0000"/>
<circle cx="49.625" cy="61.625" r="2.625" transform="rotate(90 49.625 61.625)" fill="#FF0000"/>
<circle cx="44.625" cy="64.625" r="2.625" transform="rotate(90 44.625 64.625)" fill="#FF0000"/>
<circle cx="44.625" cy="70.625" r="2.625" transform="rotate(90 44.625 70.625)" fill="#FF0000"/>
<circle cx="44.625" cy="76.625" r="2.625" transform="rotate(90 44.625 76.625)" fill="#FF0000"/>
<circle cx="44.625" cy="82.625" r="2.625" transform="rotate(90 44.625 82.625)" fill="#FF0000"/>
<circle cx="44.625" cy="58.625" r="2.625" transform="rotate(90 44.625 58.625)" fill="#FF0000"/>
<path d="M138.884 8.51373C138.615 8.57799 138.449 8.84779 138.514 9.11635L139.561 13.4928C139.625 13.7614 139.895 13.927 140.163 13.8628C140.432 13.7985 140.598 13.5287 140.533 13.2601L139.603 9.36993L143.493 8.43915C143.761 8.37489 143.927 8.10509 143.863 7.83653C143.798 7.56796 143.529 7.40234 143.26 7.4666L138.884 8.51373ZM240.262 70.5739L139.262 8.57389L138.738 9.42612L239.738 71.4261L240.262 70.5739Z" fill="#E4E4E4"/>
<path d="M59.5078 63.9118C59.4591 64.1837 59.64 64.4435 59.9118 64.4922L64.3414 65.2855C64.6132 65.3342 64.873 65.1533 64.9217 64.8815C64.9704 64.6097 64.7895 64.3499 64.5177 64.3012L60.5803 63.596L61.2855 59.6586C61.3342 59.3868 61.1533 59.127 60.8815 59.0783C60.6097 59.0296 60.3499 59.2105 60.3012 59.4823L59.5078 63.9118ZM138.714 8.58965L59.7143 63.5897L60.2857 64.4103L139.286 9.41035L138.714 8.58965Z" fill="#E4E4E4"/>
</svg>
