<svg width="284" height="142" viewBox="0 0 284 142" fill="none" xmlns="http://www.w3.org/2000/svg">
<path fill-rule="evenodd" clip-rule="evenodd" d="M271 6H13C9.13401 6 6 9.13401 6 13V129C6 132.866 9.13401 136 13 136H271C274.866 136 278 132.866 278 129V13C278 9.13401 274.866 6 271 6ZM13 0C5.8203 0 0 5.8203 0 13V129C0 136.18 5.8203 142 13 142H271C278.18 142 284 136.18 284 129V13C284 5.8203 278.18 0 271 0H13Z" fill="#CFCFCF"/>
<path d="M223 0L223 142M223 93C235.15 93 245 83.1503 245 71C245 58.8497 235.15 49 223 49" stroke="#CFCFCF" stroke-width="2"/>
<circle cx="141.625" cy="70.625" r="2.625" fill="#0000FF"/>
<circle cx="70.625" cy="70.625" r="2.625" fill="#FF88FF"/>
<circle cx="222.625" cy="70.625" r="2.625" fill="#FF8800"/>
<circle cx="222.625" cy="49.625" r="2.625" fill="#CBC530"/>
<circle cx="222.625" cy="92.625" r="2.625" fill="#009900"/>
<circle cx="34.625" cy="70.625" r="2.625" fill="black"/>
<circle cx="59.625" cy="67.625" r="2.625" transform="rotate(90 59.625 67.625)" fill="#FF0000"/>
<circle cx="59.625" cy="73.625" r="2.625" transform="rotate(90 59.625 73.625)" fill="#FF0000"/>
<circle cx="64.625" cy="70.625" r="2.625" transform="rotate(90 64.625 70.625)" fill="#FF0000"/>
<circle cx="54.625" cy="70.625" r="2.625" transform="rotate(90 54.625 70.625)" fill="#FF0000"/>
<circle cx="54.625" cy="64.625" r="2.625" transform="rotate(90 54.625 64.625)" fill="#FF0000"/>
<circle cx="54.625" cy="76.625" r="2.625" transform="rotate(90 54.625 76.625)" fill="#FF0000"/>
<circle cx="49.625" cy="67.625" r="2.625" transform="rotate(90 49.625 67.625)" fill="#FF0000"/>
<circle cx="49.625" cy="73.625" r="2.625" transform="rotate(90 49.625 73.625)" fill="#FF0000"/>
<circle cx="49.625" cy="79.625" r="2.625" transform="rotate(90 49.625 79.625)" fill="#FF0000"/>
<circle cx="49.625" cy="61.625" r="2.625" transform="rotate(90 49.625 61.625)" fill="#FF0000"/>
<circle cx="44.625" cy="64.625" r="2.625" transform="rotate(90 44.625 64.625)" fill="#FF0000"/>
<circle cx="44.625" cy="70.625" r="2.625" transform="rotate(90 44.625 70.625)" fill="#FF0000"/>
<circle cx="44.625" cy="76.625" r="2.625" transform="rotate(90 44.625 76.625)" fill="#FF0000"/>
<circle cx="44.625" cy="82.625" r="2.625" transform="rotate(90 44.625 82.625)" fill="#FF0000"/>
<circle cx="44.625" cy="58.625" r="2.625" transform="rotate(90 44.625 58.625)" fill="#FF0000"/>
<path d="M45.4911 84.906C45.4391 84.6347 45.1772 84.457 44.906 84.5089L40.4863 85.3552C40.2151 85.4072 40.0373 85.6691 40.0892 85.9404C40.1412 86.2116 40.4031 86.3893 40.6743 86.3374L44.603 85.5851L45.3552 89.5137C45.4072 89.7849 45.6691 89.9627 45.9404 89.9108C46.2116 89.8588 46.3893 89.5969 46.3374 89.3257L45.4911 84.906ZM26.4137 113.281L45.4137 85.2808L44.5863 84.7192L25.5863 112.719L26.4137 113.281Z" fill="#E4E4E4"/>
<path d="M251.454 10.2098C251.57 9.9592 251.46 9.66206 251.21 9.54617L247.125 7.65762C246.875 7.54173 246.578 7.65097 246.462 7.90162C246.346 8.15227 246.455 8.4494 246.706 8.56529L250.336 10.244L248.658 13.8747C248.542 14.1253 248.651 14.4225 248.902 14.5384C249.152 14.6543 249.449 14.545 249.565 14.2944L251.454 10.2098ZM47.1725 85.4693L251.173 10.4693L250.827 9.53072L46.8275 84.5307L47.1725 85.4693Z" fill="#E4E4E4"/>
</svg>
