<svg width="50" height="50" viewBox="0 0 50 50" fill="none" xmlns="http://www.w3.org/2000/svg">
<rect width="50" height="50" rx="25" fill="#121212"/>
<rect x="33.3984" y="19.5312" width="10.4492" height="10.9375" fill="#1E88E5"/>
<path d="M37.8685 20.6777V19.5361H39.1502V20.651C40.5878 20.8112 41.5268 21.4943 41.9674 22.7004L39.8779 23.3546C39.6643 22.7894 39.2281 22.5068 38.5695 22.5068C38.0176 22.5068 37.7417 22.6848 37.7417 23.0409C37.7417 23.1699 37.7884 23.2812 37.8819 23.3747C37.9753 23.4637 38.2334 23.5549 38.6562 23.6484C39.622 23.8575 40.314 24.0467 40.7324 24.2158C41.1507 24.3805 41.4979 24.6631 41.7738 25.0636C42.0542 25.4597 42.1944 25.9292 42.1944 26.4722C42.1944 27.2332 41.9229 27.8719 41.3799 28.3881C40.8414 28.8999 40.0982 29.2093 39.1502 29.3161V30.471H37.8685V29.3161C36.2574 29.1247 35.2449 28.2769 34.8311 26.7726L37.1676 26.3387C37.3678 27.0241 37.873 27.3668 38.6829 27.3668C39.3149 27.3668 39.6309 27.1932 39.6309 26.846C39.6309 26.6636 39.5575 26.5212 39.4106 26.4188C39.2637 26.3164 39.0034 26.2274 38.6295 26.1518C37.1609 25.8536 36.2285 25.4731 35.8324 25.0102C35.4408 24.5474 35.2449 24.0155 35.2449 23.4147C35.2449 22.7516 35.4608 22.1641 35.8925 21.6523C36.3242 21.1361 36.9829 20.8112 37.8685 20.6777Z" fill="white"/>
<path d="M16.482 29.6202H14.2056L11.7088 25.5947C11.3884 25.0785 11.0657 24.4509 10.7409 23.7122C10.8877 24.2996 10.9612 24.7981 10.9612 25.2075V29.6202H8.69141V20.5078H11.335L13.4579 23.8457C13.8807 24.5088 14.2011 25.0918 14.4192 25.5947C14.2768 24.8159 14.2056 24.0192 14.2056 23.2048V20.5078H16.482V29.6202Z" fill="white"/>
<path d="M23.8585 26.2089H20.8878V29.6202H18.1641V20.5078H24.753V22.6774H20.8878V24.1594H23.8585V26.2089Z" fill="white"/>
<path d="M30.1254 22.6908V29.6202H27.4752V22.6908H25.5859V20.5078H32.0147V22.6908H30.1254Z" fill="white"/>
</svg>
