<svg width="131" height="32" viewBox="0 0 131 32" fill="none" xmlns="http://www.w3.org/2000/svg">
<rect width="32" height="32" rx="16" fill="#121212"/>
<rect x="21.375" y="12.5" width="6.6875" height="7" fill="#1E88E5"/>
<path d="M24.236 13.2335V12.5029H25.0563V13.2164C25.9763 13.319 26.5773 13.7562 26.8593 14.5281L25.522 14.9468C25.3853 14.585 25.1061 14.4042 24.6846 14.4042C24.3314 14.4042 24.1548 14.5181 24.1548 14.746C24.1548 14.8286 24.1847 14.8998 24.2445 14.9596C24.3043 15.0166 24.4695 15.075 24.7401 15.1348C25.3582 15.2686 25.8011 15.3897 26.0688 15.4979C26.3366 15.6033 26.5588 15.7842 26.7354 16.0405C26.9148 16.294 27.0045 16.5945 27.0045 16.942C27.0045 17.4291 26.8308 17.8378 26.4833 18.1682C26.1386 18.4958 25.663 18.6937 25.0563 18.7621V19.5012H24.236V18.7621C23.2049 18.6396 22.5569 18.097 22.292 17.1343L23.7874 16.8566C23.9155 17.2952 24.2388 17.5145 24.7572 17.5145C25.1617 17.5145 25.3639 17.4034 25.3639 17.1813C25.3639 17.0645 25.3169 16.9733 25.2229 16.9078C25.1289 16.8423 24.9623 16.7854 24.723 16.7369C23.7831 16.5461 23.1864 16.3026 22.9329 16.0063C22.6822 15.7101 22.5569 15.3698 22.5569 14.9852C22.5569 14.5608 22.695 14.1849 22.9713 13.8573C23.2476 13.5269 23.6691 13.319 24.236 13.2335Z" fill="white"/>
<path d="M10.5485 18.9569H9.09155L7.49365 16.3806C7.28857 16.0502 7.08207 15.6486 6.87415 15.1758C6.96814 15.5518 7.01514 15.8708 7.01514 16.1328V18.9569H5.5625V13.125H7.25439L8.61304 15.2612C8.88363 15.6856 9.0887 16.0588 9.22827 16.3806C9.13713 15.8822 9.09155 15.3723 9.09155 14.8511V13.125H10.5485V18.9569Z" fill="white"/>
<path d="M15.2694 16.7737H13.3682V18.9569H11.625V13.125H15.8419V14.5135H13.3682V15.462H15.2694V16.7737Z" fill="white"/>
<path d="M19.2803 14.5221V18.9569H17.5841V14.5221H16.375V13.125H20.4894V14.5221H19.2803Z" fill="white"/>
<path d="M54.7246 8.78125V23H52.2734L45.8965 12.8145V23H43.4453V8.78125H45.8965L52.293 18.9863V8.78125H54.7246ZM60.0957 8.78125V23H57.6445V8.78125H60.0957ZM65.8965 15.002V16.9453H59.4707V15.002H65.8965ZM66.707 8.78125V10.7344H59.4707V8.78125H66.707ZM74.7051 8.78125V23H72.2734V8.78125H74.7051ZM79.168 8.78125V10.7344H67.8496V8.78125H79.168ZM90.9551 17.6973H87.2539V15.7539H90.9551C91.5996 15.7539 92.1204 15.6497 92.5176 15.4414C92.9147 15.2331 93.2044 14.9466 93.3867 14.582C93.5755 14.2109 93.6699 13.7878 93.6699 13.3125C93.6699 12.8633 93.5755 12.4434 93.3867 12.0527C93.2044 11.6556 92.9147 11.3366 92.5176 11.0957C92.1204 10.8548 91.5996 10.7344 90.9551 10.7344H88.0059V23H85.5547V8.78125H90.9551C92.0553 8.78125 92.9896 8.97656 93.7578 9.36719C94.5326 9.7513 95.1217 10.2852 95.5254 10.9688C95.929 11.6458 96.1309 12.4206 96.1309 13.293C96.1309 14.2109 95.929 14.9987 95.5254 15.6562C95.1217 16.3138 94.5326 16.8184 93.7578 17.1699C92.9896 17.5215 92.0553 17.6973 90.9551 17.6973ZM100.457 14.4453V23H98.1035V12.4336H100.35L100.457 14.4453ZM103.689 12.3652L103.67 14.5527C103.527 14.5267 103.37 14.5072 103.201 14.4941C103.038 14.4811 102.876 14.4746 102.713 14.4746C102.309 14.4746 101.954 14.5332 101.648 14.6504C101.342 14.7611 101.085 14.9238 100.877 15.1387C100.675 15.347 100.519 15.6009 100.408 15.9004C100.298 16.1999 100.232 16.5352 100.213 16.9062L99.6758 16.9453C99.6758 16.2812 99.7409 15.666 99.8711 15.0996C100.001 14.5332 100.197 14.0352 100.457 13.6055C100.724 13.1758 101.056 12.8405 101.453 12.5996C101.857 12.3587 102.322 12.2383 102.85 12.2383C102.993 12.2383 103.146 12.2513 103.309 12.2773C103.478 12.3034 103.605 12.3327 103.689 12.3652ZM107.684 12.4336V23H105.32V12.4336H107.684ZM105.164 9.66016C105.164 9.30208 105.281 9.00586 105.516 8.77148C105.757 8.5306 106.089 8.41016 106.512 8.41016C106.928 8.41016 107.257 8.5306 107.498 8.77148C107.739 9.00586 107.859 9.30208 107.859 9.66016C107.859 10.0117 107.739 10.3047 107.498 10.5391C107.257 10.7734 106.928 10.8906 106.512 10.8906C106.089 10.8906 105.757 10.7734 105.516 10.5391C105.281 10.3047 105.164 10.0117 105.164 9.66016ZM114.578 21.3203C114.962 21.3203 115.307 21.2454 115.613 21.0957C115.926 20.9395 116.176 20.7246 116.365 20.4512C116.561 20.1777 116.668 19.862 116.688 19.5039H118.904C118.891 20.1875 118.689 20.8092 118.299 21.3691C117.908 21.929 117.391 22.375 116.746 22.707C116.102 23.0326 115.389 23.1953 114.607 23.1953C113.8 23.1953 113.097 23.0586 112.498 22.7852C111.899 22.5052 111.401 22.1211 111.004 21.6328C110.607 21.1445 110.307 20.5814 110.105 19.9434C109.91 19.3053 109.812 18.6217 109.812 17.8926V17.5508C109.812 16.8216 109.91 16.138 110.105 15.5C110.307 14.8555 110.607 14.2891 111.004 13.8008C111.401 13.3125 111.899 12.9316 112.498 12.6582C113.097 12.3783 113.797 12.2383 114.598 12.2383C115.444 12.2383 116.186 12.4076 116.824 12.7461C117.462 13.0781 117.964 13.5436 118.328 14.1426C118.699 14.735 118.891 15.4251 118.904 16.2129H116.688C116.668 15.8223 116.57 15.4707 116.395 15.1582C116.225 14.8392 115.984 14.5853 115.672 14.3965C115.366 14.2077 114.998 14.1133 114.568 14.1133C114.093 14.1133 113.699 14.2109 113.387 14.4062C113.074 14.5951 112.83 14.8555 112.654 15.1875C112.479 15.513 112.352 15.8809 112.273 16.291C112.202 16.6947 112.166 17.1146 112.166 17.5508V17.8926C112.166 18.3288 112.202 18.752 112.273 19.1621C112.345 19.5723 112.469 19.9401 112.645 20.2656C112.827 20.5846 113.074 20.8418 113.387 21.0371C113.699 21.2259 114.096 21.3203 114.578 21.3203ZM125.369 23.1953C124.588 23.1953 123.882 23.0684 123.25 22.8145C122.625 22.554 122.091 22.1927 121.648 21.7305C121.212 21.2682 120.877 20.7246 120.643 20.0996C120.408 19.4746 120.291 18.8008 120.291 18.0781V17.6875C120.291 16.8607 120.411 16.112 120.652 15.4414C120.893 14.7708 121.229 14.1979 121.658 13.7227C122.088 13.2409 122.596 12.873 123.182 12.6191C123.768 12.3652 124.402 12.2383 125.086 12.2383C125.841 12.2383 126.502 12.3652 127.068 12.6191C127.635 12.873 128.104 13.2311 128.475 13.6934C128.852 14.1491 129.132 14.6927 129.314 15.3242C129.503 15.9557 129.598 16.6523 129.598 17.4141V18.4199H121.434V16.7305H127.273V16.5449C127.26 16.1217 127.176 15.7246 127.02 15.3535C126.87 14.9824 126.639 14.6829 126.326 14.4551C126.014 14.2272 125.597 14.1133 125.076 14.1133C124.686 14.1133 124.337 14.1979 124.031 14.3672C123.732 14.5299 123.481 14.7676 123.279 15.0801C123.077 15.3926 122.921 15.7702 122.811 16.2129C122.706 16.6491 122.654 17.1406 122.654 17.6875V18.0781C122.654 18.5404 122.716 18.9701 122.84 19.3672C122.97 19.7578 123.159 20.0996 123.406 20.3926C123.654 20.6855 123.953 20.9167 124.305 21.0859C124.656 21.2487 125.057 21.3301 125.506 21.3301C126.072 21.3301 126.577 21.2161 127.02 20.9883C127.462 20.7604 127.846 20.4382 128.172 20.0215L129.412 21.2227C129.184 21.5547 128.888 21.8737 128.523 22.1797C128.159 22.4792 127.713 22.7233 127.186 22.9121C126.665 23.1009 126.059 23.1953 125.369 23.1953Z" fill="black"/>
</svg>
