<svg width="2048" height="1152" viewBox="0 0 2048 1152" fill="none" xmlns="http://www.w3.org/2000/svg">
<g clip-path="url(#clip0_2365_4825)">
<path d="M2048 0H0V1152H2048V0Z" fill="#DA8265"/>
<path d="M1224.96 576L689.92 1152H1786.88L1224.96 576Z" fill="#C63333"/>
<path d="M1224.96 576L1117.31 1152H1786.88L1224.96 576Z" fill="#D6554E"/>
<path d="M-76.7998 1152L509.44 847.36L1044.48 1152H-76.7998Z" fill="#8F4540"/>
<path d="M431.36 1152L509.44 847.36L1044.48 1152H431.36Z" fill="#BD5A55"/>
<path d="M1539.84 698.88L1986.56 1152H1121.28L1539.84 698.88Z" fill="#CE9B96"/>
<path d="M1539.84 698.88L1986.56 1152H1487.36L1539.84 698.88Z" fill="#B87C7A"/>
<path d="M820.48 889.6L1134.08 1152H469.76L820.48 889.6Z" fill="#B8543F"/>
<path d="M751.36 1152L820.48 889.6L1134.08 1152H751.36Z" fill="#C75753"/>
<path d="M2188.8 1152L1793.28 808.96L1402.88 1152H2188.8Z" fill="#DA7459"/>
<path d="M2188.8 1152L1793.28 808.96L1747.2 1152H2188.8Z" fill="#B75856"/>
<path d="M1548.8 1152L1242.88 879.36L928 1152H1548.8Z" fill="#CF6844"/>
<path d="M1207.04 1152H1548.8L1242.88 879.36L1207.04 1152Z" fill="#D98888"/>
</g>
<defs>
<clipPath id="clip0_2365_4825">
<rect width="2048" height="1152" fill="white"/>
</clipPath>
</defs>
</svg>
