<svg width="40" height="40" viewBox="0 0 40 40" fill="none" xmlns="http://www.w3.org/2000/svg">
<mask id="mask0_2228_4573" style="mask-type:alpha" maskUnits="userSpaceOnUse" x="0" y="0" width="40" height="40">
<rect width="40" height="40" fill="#D9D9D9"/>
</mask>
<g mask="url(#mask0_2228_4573)">
<path d="M133.405 -69.0625H-75.9009V48.6719H133.405V-69.0625Z" fill="#DA8265"/>
<path d="M49.29 -10.1953L-5.39111 48.6719H106.718L49.29 -10.1953Z" fill="#C63333"/>
<path d="M49.2897 -10.1953L38.2881 48.6719H106.718L49.2897 -10.1953Z" fill="#D6554E"/>
<path d="M-83.75 48.6718L-23.8363 17.5376L30.8448 48.6718H-83.75Z" fill="#8F4540"/>
<path d="M-31.8159 48.6718L-23.8361 17.5376L30.8449 48.6718H-31.8159Z" fill="#BD5A55"/>
<path d="M81.4707 2.36279L127.125 48.6716H38.6938L81.4707 2.36279Z" fill="#CE9B96"/>
<path d="M7.95197 21.8545L40.0019 48.6718H-27.8916L7.95197 21.8545Z" fill="#B8543F"/>
<path d="M0.887695 48.6718L7.95176 21.8545L40.0017 48.6718H0.887695Z" fill="#C75753"/>
<path d="M82.3862 48.6719L51.1212 20.8081L18.9404 48.6719H82.3862Z" fill="#CF6844"/>
<path d="M13.5714 22.4777V15.1783H16.5396V24.8217L13.5714 24.8039V22.4777ZM13.8524 20.5169L14.6252 20.4991C14.6252 21.1468 14.5491 21.7469 14.3969 22.2995C14.2446 22.8461 14.0192 23.3215 13.7207 23.7255C13.428 24.1295 13.065 24.4444 12.6318 24.6702C12.2044 24.8901 11.7097 25 11.1477 25C10.6793 25 10.249 24.9346 9.85679 24.8039C9.4704 24.6673 9.1367 24.4563 8.85569 24.1711C8.57468 23.88 8.35514 23.5086 8.19707 23.057C8.04486 22.5995 7.96875 22.0529 7.96875 21.4171V15.1783H10.9281V21.4349C10.9281 21.6488 10.9545 21.833 11.0072 21.9875C11.0599 22.142 11.136 22.2727 11.2355 22.3797C11.335 22.4807 11.458 22.5579 11.6043 22.6114C11.7565 22.6589 11.9292 22.6827 12.1224 22.6827C12.5674 22.6827 12.9157 22.5876 13.1674 22.3975C13.4192 22.2074 13.5948 21.9489 13.6943 21.6221C13.7997 21.2953 13.8524 20.9269 13.8524 20.5169Z" fill="white"/>
<path d="M21.1587 17.2193V24.8217H18.1993V15.1783H21.1587V17.2193ZM20.7986 19.6702L20.1224 19.6881C20.1224 19.0107 20.2015 18.3868 20.3595 17.8164C20.5176 17.246 20.7518 16.7499 21.0621 16.328C21.3723 15.9061 21.7529 15.5793 22.2037 15.3476C22.6603 15.1159 23.1872 15 23.7843 15C24.2 15 24.5776 15.0654 24.9172 15.1961C25.2567 15.3209 25.5494 15.5199 25.7953 15.7932C26.0412 16.0606 26.2285 16.4112 26.3573 16.8449C26.492 17.2727 26.5593 17.7867 26.5593 18.3868V24.8217H23.5999V18.7701C23.5999 18.3601 23.5531 18.0511 23.4594 17.8431C23.3716 17.6352 23.2428 17.4955 23.073 17.4242C22.9033 17.3529 22.6954 17.3173 22.4495 17.3173C22.1919 17.3173 21.9607 17.3767 21.7558 17.4955C21.5509 17.6144 21.3753 17.7807 21.2289 17.9947C21.0884 18.2026 20.9801 18.4492 20.904 18.7344C20.8337 19.0196 20.7986 19.3316 20.7986 19.6702ZM26.2256 19.6702L25.4001 19.6881C25.4001 19.0107 25.4733 18.3868 25.6197 17.8164C25.7719 17.246 25.9973 16.7499 26.2959 16.328C26.6003 15.9061 26.9779 15.5793 27.4287 15.3476C27.8795 15.1159 28.4034 15 29.0006 15C29.4338 15 29.8319 15.0654 30.1949 15.1961C30.5578 15.3268 30.8711 15.5377 31.1345 15.8289C31.3979 16.12 31.6029 16.5062 31.7492 16.9875C31.8956 17.4629 31.9688 18.0511 31.9688 18.7522V24.8217H29.0006V18.7522C29.0006 18.3541 28.9537 18.0541 28.8601 17.8521C28.7723 17.6441 28.6435 17.5045 28.4737 17.4332C28.3039 17.3559 28.1019 17.3173 27.8678 17.3173C27.5868 17.3173 27.3438 17.3767 27.1389 17.4955C26.934 17.6144 26.7613 17.7807 26.6208 17.9947C26.4861 18.2026 26.3866 18.4492 26.3222 18.7344C26.2578 19.0196 26.2256 19.3316 26.2256 19.6702Z" fill="white"/>
</g>
</svg>
