<svg width="195" height="32" viewBox="0 0 195 32" fill="none" xmlns="http://www.w3.org/2000/svg">
<mask id="mask0_2228_4574" style="mask-type:alpha" maskUnits="userSpaceOnUse" x="0" y="0" width="32" height="32">
<rect width="32" height="32" fill="#D9D9D9"/>
</mask>
<g mask="url(#mask0_2228_4574)">
<path d="M106.724 -55.25H-60.7207V38.9375H106.724V-55.25Z" fill="#DA8265"/>
<path d="M39.4319 -8.15625L-4.31299 38.9375H85.3744L39.4319 -8.15625Z" fill="#C63333"/>
<path d="M39.4317 -8.15625L30.6304 38.9375H85.3742L39.4317 -8.15625Z" fill="#D6554E"/>
<path d="M-67 38.9376L-19.069 14.0303L24.6758 38.9376H-67Z" fill="#8F4540"/>
<path d="M-25.4531 38.9376L-19.0693 14.0303L24.6756 38.9376H-25.4531Z" fill="#BD5A55"/>
<path d="M65.1765 1.89062L101.7 38.9377H30.9551L65.1765 1.89062Z" fill="#CE9B96"/>
<path d="M6.36138 17.4839L32.0013 38.9377H-22.3135L6.36138 17.4839Z" fill="#B8543F"/>
<path d="M0.710449 38.9377L6.3617 17.4839L32.0016 38.9377H0.710449Z" fill="#C75753"/>
<path d="M65.9089 38.9375L40.8969 16.6465L15.1523 38.9375H65.9089Z" fill="#CF6844"/>
<path d="M10.8571 17.9822V12.1426H13.2316V19.8574L10.8571 19.8431V17.9822ZM11.0819 16.4135L11.7001 16.3993C11.7001 16.9174 11.6393 17.3975 11.5175 17.8396C11.3957 18.2769 11.2154 18.6572 10.9765 18.9804C10.7424 19.3036 10.452 19.5556 10.1054 19.7362C9.76351 19.9121 9.36776 20 8.91814 20C8.54346 20 8.19922 19.9477 7.88543 19.8431C7.57632 19.7338 7.30936 19.5651 7.08455 19.3369C6.85974 19.104 6.68411 18.8069 6.55766 18.4456C6.43589 18.0796 6.375 17.6423 6.375 17.1337V12.1426H8.74251V17.148C8.74251 17.3191 8.76358 17.4664 8.80574 17.59C8.84789 17.7136 8.90877 17.8182 8.98839 17.9037C9.06801 17.9846 9.16636 18.0463 9.28345 18.0891C9.40522 18.1272 9.54339 18.1462 9.69794 18.1462C10.0539 18.1462 10.3326 18.0701 10.5339 17.918C10.7353 17.7659 10.8758 17.5591 10.9555 17.2977C11.0398 17.0362 11.0819 16.7415 11.0819 16.4135Z" fill="white"/>
<path d="M16.9269 13.7754V19.8574H14.5594V12.1426H16.9269V13.7754ZM16.6389 15.7362L16.0979 15.7504C16.0979 15.2086 16.1612 14.7094 16.2876 14.2531C16.4141 13.7968 16.6014 13.3999 16.8496 13.0624C17.0979 12.7249 17.4023 12.4635 17.7629 12.2781C18.1282 12.0927 18.5498 12 19.0275 12C19.36 12 19.6621 12.0523 19.9337 12.1569C20.2054 12.2567 20.4395 12.4159 20.6363 12.6346C20.833 12.8485 20.9828 13.1289 21.0859 13.4759C21.1936 13.8182 21.2474 14.2294 21.2474 14.7094V19.8574H18.8799V15.016C18.8799 14.6881 18.8425 14.4409 18.7675 14.2745C18.6973 14.1081 18.5942 13.9964 18.4584 13.9394C18.3226 13.8824 18.1563 13.8538 17.9596 13.8538C17.7536 13.8538 17.5686 13.9014 17.4046 13.9964C17.2407 14.0915 17.1002 14.2246 16.9831 14.3957C16.8707 14.5621 16.7841 14.7594 16.7232 14.9875C16.667 15.2157 16.6389 15.4652 16.6389 15.7362ZM20.9805 15.7362L20.3201 15.7504C20.3201 15.2086 20.3787 14.7094 20.4957 14.2531C20.6175 13.7968 20.7978 13.3999 21.0367 13.0624C21.2802 12.7249 21.5823 12.4635 21.9429 12.2781C22.3036 12.0927 22.7228 12 23.2005 12C23.547 12 23.8655 12.0523 24.1559 12.1569C24.4463 12.2614 24.6968 12.4302 24.9076 12.6631C25.1184 12.896 25.2823 13.205 25.3994 13.59C25.5165 13.9703 25.575 14.4409 25.575 15.0018V19.8574H23.2005V15.0018C23.2005 14.6833 23.163 14.4433 23.0881 14.2816C23.0178 14.1153 22.9148 14.0036 22.779 13.9465C22.6431 13.8847 22.4815 13.8538 22.2942 13.8538C22.0694 13.8538 21.875 13.9014 21.7111 13.9964C21.5472 14.0915 21.409 14.2246 21.2966 14.3957C21.1889 14.5621 21.1093 14.7594 21.0578 14.9875C21.0062 15.2157 20.9805 15.4652 20.9805 15.7362Z" fill="white"/>
</g>
<path d="M46.8906 20.5098V12.4336H49.2539V23H47.0273L46.8906 20.5098ZM47.2227 18.3125L48.0137 18.293C48.0137 19.0026 47.9355 19.6569 47.7793 20.2559C47.623 20.8483 47.3822 21.3659 47.0566 21.8086C46.7311 22.2448 46.3145 22.5866 45.8066 22.834C45.2988 23.0749 44.6901 23.1953 43.9805 23.1953C43.4661 23.1953 42.9941 23.1204 42.5645 22.9707C42.1348 22.821 41.7637 22.5898 41.4512 22.2773C41.1452 21.9648 40.9076 21.5579 40.7383 21.0566C40.569 20.5553 40.4844 19.9564 40.4844 19.2598V12.4336H42.8379V19.2793C42.8379 19.6634 42.8835 19.9857 42.9746 20.2461C43.0658 20.5 43.1895 20.7051 43.3457 20.8613C43.502 21.0176 43.6842 21.1283 43.8926 21.1934C44.1009 21.2585 44.3223 21.291 44.5566 21.291C45.2272 21.291 45.7546 21.1608 46.1387 20.9004C46.5293 20.6335 46.806 20.2754 46.9688 19.8262C47.138 19.377 47.2227 18.8724 47.2227 18.3125ZM54 14.6895V23H51.6465V12.4336H53.8633L54 14.6895ZM53.5801 17.3262L52.8184 17.3164C52.8249 16.5677 52.929 15.8809 53.1309 15.2559C53.3392 14.6309 53.6257 14.0938 53.9902 13.6445C54.3613 13.1953 54.804 12.8503 55.3184 12.6094C55.8327 12.362 56.4056 12.2383 57.0371 12.2383C57.5449 12.2383 58.0039 12.3099 58.4141 12.4531C58.8307 12.5898 59.1855 12.8145 59.4785 13.127C59.778 13.4395 60.0059 13.8464 60.1621 14.3477C60.3184 14.8424 60.3965 15.4512 60.3965 16.1738V23H58.0332V16.1641C58.0332 15.6562 57.9583 15.2559 57.8086 14.9629C57.6654 14.6634 57.4538 14.4518 57.1738 14.3281C56.9004 14.1979 56.5586 14.1328 56.1484 14.1328C55.7448 14.1328 55.3835 14.2174 55.0645 14.3867C54.7454 14.556 54.4753 14.7871 54.2539 15.0801C54.0391 15.373 53.873 15.7116 53.7559 16.0957C53.6387 16.4798 53.5801 16.89 53.5801 17.3262ZM65.3184 12.4336V23H62.9551V12.4336H65.3184ZM62.7988 9.66016C62.7988 9.30208 62.916 9.00586 63.1504 8.77148C63.3913 8.5306 63.7233 8.41016 64.1465 8.41016C64.5632 8.41016 64.8919 8.5306 65.1328 8.77148C65.3737 9.00586 65.4941 9.30208 65.4941 9.66016C65.4941 10.0117 65.3737 10.3047 65.1328 10.5391C64.8919 10.7734 64.5632 10.8906 64.1465 10.8906C63.7233 10.8906 63.3913 10.7734 63.1504 10.5391C62.916 10.3047 62.7988 10.0117 62.7988 9.66016ZM72.2129 21.3203C72.597 21.3203 72.9421 21.2454 73.248 21.0957C73.5605 20.9395 73.8112 20.7246 74 20.4512C74.1953 20.1777 74.3027 19.862 74.3223 19.5039H76.5391C76.526 20.1875 76.3242 20.8092 75.9336 21.3691C75.543 21.929 75.0254 22.375 74.3809 22.707C73.7363 23.0326 73.0234 23.1953 72.2422 23.1953C71.4349 23.1953 70.7318 23.0586 70.1328 22.7852C69.5339 22.5052 69.0358 22.1211 68.6387 21.6328C68.2415 21.1445 67.9421 20.5814 67.7402 19.9434C67.5449 19.3053 67.4473 18.6217 67.4473 17.8926V17.5508C67.4473 16.8216 67.5449 16.138 67.7402 15.5C67.9421 14.8555 68.2415 14.2891 68.6387 13.8008C69.0358 13.3125 69.5339 12.9316 70.1328 12.6582C70.7318 12.3783 71.4316 12.2383 72.2324 12.2383C73.0788 12.2383 73.821 12.4076 74.459 12.7461C75.097 13.0781 75.5983 13.5436 75.9629 14.1426C76.334 14.735 76.526 15.4251 76.5391 16.2129H74.3223C74.3027 15.8223 74.2051 15.4707 74.0293 15.1582C73.86 14.8392 73.6191 14.5853 73.3066 14.3965C73.0007 14.2077 72.6328 14.1133 72.2031 14.1133C71.7279 14.1133 71.334 14.2109 71.0215 14.4062C70.709 14.5951 70.4648 14.8555 70.2891 15.1875C70.1133 15.513 69.9863 15.8809 69.9082 16.291C69.8366 16.6947 69.8008 17.1146 69.8008 17.5508V17.8926C69.8008 18.3288 69.8366 18.752 69.9082 19.1621C69.9798 19.5723 70.1035 19.9401 70.2793 20.2656C70.4616 20.5846 70.709 20.8418 71.0215 21.0371C71.334 21.2259 71.7311 21.3203 72.2129 21.3203ZM77.8965 17.834V17.6094C77.8965 16.8477 78.0072 16.1413 78.2285 15.4902C78.4499 14.8327 78.7689 14.263 79.1855 13.7812C79.6087 13.293 80.123 12.9154 80.7285 12.6484C81.3405 12.375 82.0306 12.2383 82.7988 12.2383C83.5736 12.2383 84.2637 12.375 84.8691 12.6484C85.4811 12.9154 85.9987 13.293 86.4219 13.7812C86.8451 14.263 87.1673 14.8327 87.3887 15.4902C87.61 16.1413 87.7207 16.8477 87.7207 17.6094V17.834C87.7207 18.5957 87.61 19.3021 87.3887 19.9531C87.1673 20.6042 86.8451 21.1738 86.4219 21.6621C85.9987 22.1439 85.4844 22.5215 84.8789 22.7949C84.2734 23.0618 83.5866 23.1953 82.8184 23.1953C82.0436 23.1953 81.3503 23.0618 80.7383 22.7949C80.1328 22.5215 79.6185 22.1439 79.1953 21.6621C78.7721 21.1738 78.4499 20.6042 78.2285 19.9531C78.0072 19.3021 77.8965 18.5957 77.8965 17.834ZM80.25 17.6094V17.834C80.25 18.3092 80.2988 18.7585 80.3965 19.1816C80.4941 19.6048 80.6471 19.9759 80.8555 20.2949C81.0638 20.6139 81.3307 20.8646 81.6562 21.0469C81.9818 21.2292 82.3691 21.3203 82.8184 21.3203C83.2546 21.3203 83.6322 21.2292 83.9512 21.0469C84.2767 20.8646 84.5436 20.6139 84.752 20.2949C84.9603 19.9759 85.1133 19.6048 85.2109 19.1816C85.3151 18.7585 85.3672 18.3092 85.3672 17.834V17.6094C85.3672 17.1406 85.3151 16.6979 85.2109 16.2812C85.1133 15.8581 84.957 15.4837 84.7422 15.1582C84.5339 14.8327 84.2669 14.5788 83.9414 14.3965C83.6224 14.2077 83.2415 14.1133 82.7988 14.1133C82.3561 14.1133 81.972 14.2077 81.6465 14.3965C81.3275 14.5788 81.0638 14.8327 80.8555 15.1582C80.6471 15.4837 80.4941 15.8581 80.3965 16.2812C80.2988 16.6979 80.25 17.1406 80.25 17.6094ZM92.0566 14.4453V23H89.7031V12.4336H91.9492L92.0566 14.4453ZM95.2891 12.3652L95.2695 14.5527C95.1263 14.5267 94.9701 14.5072 94.8008 14.4941C94.638 14.4811 94.4753 14.4746 94.3125 14.4746C93.9089 14.4746 93.554 14.5332 93.248 14.6504C92.9421 14.7611 92.6849 14.9238 92.4766 15.1387C92.2747 15.347 92.1185 15.6009 92.0078 15.9004C91.8971 16.1999 91.832 16.5352 91.8125 16.9062L91.2754 16.9453C91.2754 16.2812 91.3405 15.666 91.4707 15.0996C91.6009 14.5332 91.7962 14.0352 92.0566 13.6055C92.3236 13.1758 92.6556 12.8405 93.0527 12.5996C93.4564 12.3587 93.9219 12.2383 94.4492 12.2383C94.5924 12.2383 94.7454 12.2513 94.9082 12.2773C95.0775 12.3034 95.2044 12.3327 95.2891 12.3652ZM99.0977 14.6895V23H96.7441V12.4336H98.9609L99.0977 14.6895ZM98.6777 17.3262L97.916 17.3164C97.9225 16.5677 98.0267 15.8809 98.2285 15.2559C98.4368 14.6309 98.7233 14.0938 99.0879 13.6445C99.459 13.1953 99.9017 12.8503 100.416 12.6094C100.93 12.362 101.503 12.2383 102.135 12.2383C102.643 12.2383 103.102 12.3099 103.512 12.4531C103.928 12.5898 104.283 12.8145 104.576 13.127C104.876 13.4395 105.104 13.8464 105.26 14.3477C105.416 14.8424 105.494 15.4512 105.494 16.1738V23H103.131V16.1641C103.131 15.6562 103.056 15.2559 102.906 14.9629C102.763 14.6634 102.551 14.4518 102.271 14.3281C101.998 14.1979 101.656 14.1328 101.246 14.1328C100.842 14.1328 100.481 14.2174 100.162 14.3867C99.8431 14.556 99.5729 14.7871 99.3516 15.0801C99.1367 15.373 98.9707 15.7116 98.8535 16.0957C98.7363 16.4798 98.6777 16.89 98.6777 17.3262ZM110.416 12.4336V23H108.053V12.4336H110.416ZM107.896 9.66016C107.896 9.30208 108.014 9.00586 108.248 8.77148C108.489 8.5306 108.821 8.41016 109.244 8.41016C109.661 8.41016 109.99 8.5306 110.23 8.77148C110.471 9.00586 110.592 9.30208 110.592 9.66016C110.592 10.0117 110.471 10.3047 110.23 10.5391C109.99 10.7734 109.661 10.8906 109.244 10.8906C108.821 10.8906 108.489 10.7734 108.248 10.5391C108.014 10.3047 107.896 10.0117 107.896 9.66016ZM112.545 17.834V17.6094C112.545 16.8477 112.656 16.1413 112.877 15.4902C113.098 14.8327 113.417 14.263 113.834 13.7812C114.257 13.293 114.771 12.9154 115.377 12.6484C115.989 12.375 116.679 12.2383 117.447 12.2383C118.222 12.2383 118.912 12.375 119.518 12.6484C120.13 12.9154 120.647 13.293 121.07 13.7812C121.493 14.263 121.816 14.8327 122.037 15.4902C122.258 16.1413 122.369 16.8477 122.369 17.6094V17.834C122.369 18.5957 122.258 19.3021 122.037 19.9531C121.816 20.6042 121.493 21.1738 121.07 21.6621C120.647 22.1439 120.133 22.5215 119.527 22.7949C118.922 23.0618 118.235 23.1953 117.467 23.1953C116.692 23.1953 115.999 23.0618 115.387 22.7949C114.781 22.5215 114.267 22.1439 113.844 21.6621C113.421 21.1738 113.098 20.6042 112.877 19.9531C112.656 19.3021 112.545 18.5957 112.545 17.834ZM114.898 17.6094V17.834C114.898 18.3092 114.947 18.7585 115.045 19.1816C115.143 19.6048 115.296 19.9759 115.504 20.2949C115.712 20.6139 115.979 20.8646 116.305 21.0469C116.63 21.2292 117.018 21.3203 117.467 21.3203C117.903 21.3203 118.281 21.2292 118.6 21.0469C118.925 20.8646 119.192 20.6139 119.4 20.2949C119.609 19.9759 119.762 19.6048 119.859 19.1816C119.964 18.7585 120.016 18.3092 120.016 17.834V17.6094C120.016 17.1406 119.964 16.6979 119.859 16.2812C119.762 15.8581 119.605 15.4837 119.391 15.1582C119.182 14.8327 118.915 14.5788 118.59 14.3965C118.271 14.2077 117.89 14.1133 117.447 14.1133C117.005 14.1133 116.62 14.2077 116.295 14.3965C115.976 14.5788 115.712 14.8327 115.504 15.1582C115.296 15.4837 115.143 15.8581 115.045 16.2812C114.947 16.6979 114.898 17.1406 114.898 17.6094ZM131.676 14.582V23H129.322V12.4336H131.539L131.676 14.582ZM131.295 17.3262L130.494 17.3164C130.494 16.5872 130.585 15.9134 130.768 15.2949C130.95 14.6764 131.217 14.1393 131.568 13.6836C131.92 13.2214 132.356 12.8665 132.877 12.6191C133.404 12.3652 134.013 12.2383 134.703 12.2383C135.185 12.2383 135.624 12.3099 136.021 12.4531C136.425 12.5898 136.773 12.8079 137.066 13.1074C137.366 13.4069 137.594 13.791 137.75 14.2598C137.913 14.7285 137.994 15.2949 137.994 15.959V23H135.641V16.1641C135.641 15.6497 135.562 15.2461 135.406 14.9531C135.257 14.6602 135.038 14.4518 134.752 14.3281C134.472 14.1979 134.137 14.1328 133.746 14.1328C133.303 14.1328 132.926 14.2174 132.613 14.3867C132.307 14.556 132.057 14.7871 131.861 15.0801C131.666 15.373 131.523 15.7116 131.432 16.0957C131.34 16.4798 131.295 16.89 131.295 17.3262ZM137.848 16.7012L136.744 16.9453C136.744 16.3073 136.832 15.7051 137.008 15.1387C137.19 14.5658 137.454 14.0645 137.799 13.6348C138.15 13.1986 138.583 12.8568 139.098 12.6094C139.612 12.362 140.201 12.2383 140.865 12.2383C141.406 12.2383 141.887 12.3132 142.311 12.4629C142.74 12.6061 143.105 12.834 143.404 13.1465C143.704 13.459 143.932 13.8659 144.088 14.3672C144.244 14.862 144.322 15.4609 144.322 16.1641V23H141.959V16.1543C141.959 15.6204 141.881 15.207 141.725 14.9141C141.575 14.6211 141.36 14.4193 141.08 14.3086C140.8 14.1914 140.465 14.1328 140.074 14.1328C139.71 14.1328 139.387 14.2012 139.107 14.3379C138.834 14.4681 138.603 14.6536 138.414 14.8945C138.225 15.1289 138.082 15.3991 137.984 15.7051C137.893 16.0111 137.848 16.3431 137.848 16.7012ZM152.701 20.8809V15.8418C152.701 15.4642 152.633 15.1387 152.496 14.8652C152.359 14.5918 152.151 14.3802 151.871 14.2305C151.598 14.0807 151.253 14.0059 150.836 14.0059C150.452 14.0059 150.12 14.071 149.84 14.2012C149.56 14.3314 149.342 14.5072 149.186 14.7285C149.029 14.9499 148.951 15.2005 148.951 15.4805H146.607C146.607 15.0638 146.708 14.6602 146.91 14.2695C147.112 13.8789 147.405 13.5306 147.789 13.2246C148.173 12.9186 148.632 12.6777 149.166 12.502C149.7 12.3262 150.299 12.2383 150.963 12.2383C151.757 12.2383 152.46 12.3717 153.072 12.6387C153.691 12.9056 154.176 13.3092 154.527 13.8496C154.885 14.3835 155.064 15.054 155.064 15.8613V20.5586C155.064 21.0404 155.097 21.4733 155.162 21.8574C155.234 22.235 155.335 22.5638 155.465 22.8438V23H153.053C152.942 22.7461 152.854 22.4238 152.789 22.0332C152.73 21.6361 152.701 21.252 152.701 20.8809ZM153.043 16.5742L153.062 18.0293H151.373C150.937 18.0293 150.553 18.0716 150.221 18.1562C149.889 18.2344 149.612 18.3516 149.391 18.5078C149.169 18.6641 149.003 18.8529 148.893 19.0742C148.782 19.2956 148.727 19.5462 148.727 19.8262C148.727 20.1061 148.792 20.3633 148.922 20.5977C149.052 20.8255 149.241 21.0046 149.488 21.1348C149.742 21.265 150.048 21.3301 150.406 21.3301C150.888 21.3301 151.308 21.2324 151.666 21.0371C152.031 20.8353 152.317 20.5911 152.525 20.3047C152.734 20.0117 152.844 19.735 152.857 19.4746L153.619 20.5195C153.541 20.7865 153.408 21.0729 153.219 21.3789C153.03 21.6849 152.783 21.9779 152.477 22.2578C152.177 22.5312 151.816 22.7559 151.393 22.9316C150.976 23.1074 150.494 23.1953 149.947 23.1953C149.257 23.1953 148.642 23.0586 148.102 22.7852C147.561 22.5052 147.138 22.1309 146.832 21.6621C146.526 21.1868 146.373 20.6497 146.373 20.0508C146.373 19.4909 146.477 18.9961 146.686 18.5664C146.9 18.1302 147.213 17.7656 147.623 17.4727C148.04 17.1797 148.548 16.9583 149.146 16.8086C149.745 16.6523 150.429 16.5742 151.197 16.5742H153.043ZM161.842 21.3203C162.226 21.3203 162.571 21.2454 162.877 21.0957C163.189 20.9395 163.44 20.7246 163.629 20.4512C163.824 20.1777 163.932 19.862 163.951 19.5039H166.168C166.155 20.1875 165.953 20.8092 165.562 21.3691C165.172 21.929 164.654 22.375 164.01 22.707C163.365 23.0326 162.652 23.1953 161.871 23.1953C161.064 23.1953 160.361 23.0586 159.762 22.7852C159.163 22.5052 158.665 22.1211 158.268 21.6328C157.87 21.1445 157.571 20.5814 157.369 19.9434C157.174 19.3053 157.076 18.6217 157.076 17.8926V17.5508C157.076 16.8216 157.174 16.138 157.369 15.5C157.571 14.8555 157.87 14.2891 158.268 13.8008C158.665 13.3125 159.163 12.9316 159.762 12.6582C160.361 12.3783 161.061 12.2383 161.861 12.2383C162.708 12.2383 163.45 12.4076 164.088 12.7461C164.726 13.0781 165.227 13.5436 165.592 14.1426C165.963 14.735 166.155 15.4251 166.168 16.2129H163.951C163.932 15.8223 163.834 15.4707 163.658 15.1582C163.489 14.8392 163.248 14.5853 162.936 14.3965C162.63 14.2077 162.262 14.1133 161.832 14.1133C161.357 14.1133 160.963 14.2109 160.65 14.4062C160.338 14.5951 160.094 14.8555 159.918 15.1875C159.742 15.513 159.615 15.8809 159.537 16.291C159.465 16.6947 159.43 17.1146 159.43 17.5508V17.8926C159.43 18.3288 159.465 18.752 159.537 19.1621C159.609 19.5723 159.732 19.9401 159.908 20.2656C160.09 20.5846 160.338 20.8418 160.65 21.0371C160.963 21.2259 161.36 21.3203 161.842 21.3203ZM173.932 20.8809V15.8418C173.932 15.4642 173.863 15.1387 173.727 14.8652C173.59 14.5918 173.382 14.3802 173.102 14.2305C172.828 14.0807 172.483 14.0059 172.066 14.0059C171.682 14.0059 171.35 14.071 171.07 14.2012C170.79 14.3314 170.572 14.5072 170.416 14.7285C170.26 14.9499 170.182 15.2005 170.182 15.4805H167.838C167.838 15.0638 167.939 14.6602 168.141 14.2695C168.342 13.8789 168.635 13.5306 169.02 13.2246C169.404 12.9186 169.863 12.6777 170.396 12.502C170.93 12.3262 171.529 12.2383 172.193 12.2383C172.988 12.2383 173.691 12.3717 174.303 12.6387C174.921 12.9056 175.406 13.3092 175.758 13.8496C176.116 14.3835 176.295 15.054 176.295 15.8613V20.5586C176.295 21.0404 176.327 21.4733 176.393 21.8574C176.464 22.235 176.565 22.5638 176.695 22.8438V23H174.283C174.173 22.7461 174.085 22.4238 174.02 22.0332C173.961 21.6361 173.932 21.252 173.932 20.8809ZM174.273 16.5742L174.293 18.0293H172.604C172.167 18.0293 171.783 18.0716 171.451 18.1562C171.119 18.2344 170.842 18.3516 170.621 18.5078C170.4 18.6641 170.234 18.8529 170.123 19.0742C170.012 19.2956 169.957 19.5462 169.957 19.8262C169.957 20.1061 170.022 20.3633 170.152 20.5977C170.283 20.8255 170.471 21.0046 170.719 21.1348C170.973 21.265 171.279 21.3301 171.637 21.3301C172.118 21.3301 172.538 21.2324 172.896 21.0371C173.261 20.8353 173.548 20.5911 173.756 20.3047C173.964 20.0117 174.075 19.735 174.088 19.4746L174.85 20.5195C174.771 20.7865 174.638 21.0729 174.449 21.3789C174.26 21.6849 174.013 21.9779 173.707 22.2578C173.408 22.5312 173.046 22.7559 172.623 22.9316C172.206 23.1074 171.725 23.1953 171.178 23.1953C170.488 23.1953 169.872 23.0586 169.332 22.7852C168.792 22.5052 168.368 22.1309 168.062 21.6621C167.757 21.1868 167.604 20.6497 167.604 20.0508C167.604 19.4909 167.708 18.9961 167.916 18.5664C168.131 18.1302 168.443 17.7656 168.854 17.4727C169.27 17.1797 169.778 16.9583 170.377 16.8086C170.976 16.6523 171.66 16.5742 172.428 16.5742H174.273ZM185.113 20.5098V12.4336H187.477V23H185.25L185.113 20.5098ZM185.445 18.3125L186.236 18.293C186.236 19.0026 186.158 19.6569 186.002 20.2559C185.846 20.8483 185.605 21.3659 185.279 21.8086C184.954 22.2448 184.537 22.5866 184.029 22.834C183.521 23.0749 182.913 23.1953 182.203 23.1953C181.689 23.1953 181.217 23.1204 180.787 22.9707C180.357 22.821 179.986 22.5898 179.674 22.2773C179.368 21.9648 179.13 21.5579 178.961 21.0566C178.792 20.5553 178.707 19.9564 178.707 19.2598V12.4336H181.061V19.2793C181.061 19.6634 181.106 19.9857 181.197 20.2461C181.288 20.5 181.412 20.7051 181.568 20.8613C181.725 21.0176 181.907 21.1283 182.115 21.1934C182.324 21.2585 182.545 21.291 182.779 21.291C183.45 21.291 183.977 21.1608 184.361 20.9004C184.752 20.6335 185.029 20.2754 185.191 19.8262C185.361 19.377 185.445 18.8724 185.445 18.3125Z" fill="black"/>
</svg>
