<svg width="111" height="111" viewBox="0 0 111 111" fill="none" xmlns="http://www.w3.org/2000/svg">
<rect width="111" height="111" rx="55.5" fill="#FFCA28"/>
<path d="M49.2781 17.3721C41.0141 17.5826 29.6336 17.2879 29.2676 17.3721C32.9425 17.3721 34.2924 19.234 35.1071 20.3761C35.7934 21.3382 37.7191 24.4802 36.0574 30.6383C35.7594 31.7427 35.1071 32.9539 35.3463 34.6898C35.5457 36.1367 37.2369 44.1448 39.112 51.9604L50.0127 52.089L61.1065 52.103L61.374 52.4398C61.5851 52.6924 61.6415 52.9871 61.6415 53.8432C61.6415 55.1624 61.3881 55.6255 60.3463 56.2991C59.2763 56.9727 58.1078 57.3236 56.348 57.5201C54.4474 57.7165 53.1099 57.6183 51.2938 57.1411C49.9282 56.7763 49.7311 56.7622 45.1134 56.7061L40.2627 56.6283C40.8931 59.109 41.5145 61.4172 42.0789 63.3047C45.3155 61.7457 50.2525 59.2479 54.8521 59.3089L54.898 59.3096L57.3862 59.3472H65.7588C65.7588 59.3472 65.6563 58.9792 65.5899 58.7437C65.401 58.0741 65.264 57.707 65.0971 57.0316C65.0512 56.8457 64.9845 56.5544 64.9845 56.5544L63.5626 51.9935L63.1684 50.5339C60.761 41.7628 59.9163 37.665 59.9022 34.6898C59.8881 32.9215 59.9163 32.7251 60.2964 31.7427C62.3659 26.4099 62.4202 23.6872 61.3328 21.4015C60.6852 20.0403 60.2964 19.4968 59.228 18.7349C58.1597 17.973 56.4935 17.3862 55.5925 17.3721C54.6915 17.3581 51.7982 17.316 49.2781 17.3721Z" fill="#292929"/>
<path d="M64.9845 56.5544L69.7571 56.6246C74.3748 56.6807 74.5719 56.6948 75.9375 57.0597C77.7536 57.5368 79.0911 57.635 80.9917 57.4386C82.7515 57.2421 83.92 56.8913 84.9899 56.2176C86.0317 55.544 86.2852 55.0809 86.2852 53.7617C86.2852 52.9057 86.2288 52.6109 86.0177 52.3583L85.7502 52.0215L63.5626 51.9935L64.9845 56.5544Z" fill="#121212"/>
<rect x="45.5708" y="27.0488" width="34.5433" height="34.5433" rx="17.2717" fill="#64B5F6"/>
<path d="M71.0259 46.8054L71.7019 46.1294C72.0681 45.7632 72.0681 45.1717 71.7019 44.8055L71.6832 44.7867C71.317 44.4206 70.7255 44.4206 70.3593 44.7867L67.674 47.472L59.6276 39.4256L62.3129 36.7403C62.679 36.3741 62.679 35.7826 62.3129 35.4165L62.2941 35.3977C61.9279 35.0315 61.3364 35.0315 60.9702 35.3977L60.2942 36.0737L59.6182 35.3977C59.252 35.0315 58.6511 35.0315 58.285 35.3977L56.9423 36.7403L56.2663 36.0643C55.9001 35.6981 55.2898 35.6981 54.9237 36.0643C54.5575 36.4305 54.5575 37.0408 54.9237 37.4069L55.5997 38.0829L54.2571 39.4256C53.8909 39.7918 53.8909 40.3833 54.2571 40.7494L54.9331 41.4255L54.2571 42.1109C53.8909 42.477 53.8909 43.0685 54.2571 43.4347L54.2758 43.4535C54.642 43.8197 55.2335 43.8197 55.5997 43.4535L58.285 40.7682L66.3314 48.8146L63.6461 51.4999C63.2799 51.8661 63.2799 52.4576 63.6461 52.8238L63.6649 52.8426C64.0311 53.2087 64.6226 53.2087 64.9888 52.8426L65.6648 52.1665L66.3408 52.8426C66.7069 53.2087 67.2985 53.2087 67.6646 52.8426L69.0073 51.4999L69.6833 52.1759C70.0495 52.5421 70.6597 52.5421 71.0259 52.1759C71.3921 51.8098 71.3921 51.1995 71.0259 50.8333L70.3499 50.1573L71.7019 48.8146C72.0681 48.4485 72.0681 47.857 71.7019 47.4908L71.0259 46.8054Z" fill="white"/>
<path d="M83.8769 69.6614L85.3741 69.6053C86.5748 69.5631 86.9986 69.4929 87.4647 69.2402C88.5665 68.6645 89.1456 67.4008 89.2869 65.2806C89.3575 64.2696 89.3292 63.9607 89.075 63.3007C88.4958 61.7843 86.7019 60.4504 84.3995 59.8045C83.3966 59.5377 82.8881 59.5096 74.6248 59.4254L72.5946 59.4057L65.9235 59.3411H57.523L55.0266 59.3035C57.2871 59.3418 59.4647 59.9977 61.3187 61.6833C65.5095 65.4933 63.2905 68.7923 61.9739 69.6614H83.8769Z" fill="#292929"/>
<path d="M38.7467 68.7215C39.0434 69.5639 39.7532 69.6991 40.071 69.6614H61.9739C63.2905 68.7923 65.5095 65.4933 61.3187 61.6833C59.4647 59.9977 57.2871 59.3418 55.0266 59.3035L54.9804 59.3028C50.3655 59.2418 45.4121 61.741 42.1647 63.3007C41.5984 61.4123 40.9749 59.1028 40.3425 56.6208L35.4096 56.5419C36.3984 60.2507 38.4501 67.879 38.7467 68.7215Z" fill="#515151"/>
<path d="M29.3106 17.3438C28.6326 17.4842 28.3119 17.5846 27.9411 17.8044C27.5412 18.0415 27.4108 18.1815 27.0935 18.4363C26.7763 18.6911 26.5256 19.0233 26.352 19.3314C26.1783 19.6395 25.7793 20.6294 25.638 22.0195C25.4968 23.5079 25.6239 25.6842 26.0053 28.5206C26.3867 31.3569 30.6243 49.2595 30.8644 50.1722C31.1046 51.0849 31.2882 51.8431 31.2599 51.8571L39.1878 51.9504C37.3065 44.1307 35.6097 36.1183 35.4096 34.6706C35.1696 32.9338 35.8241 31.722 36.1231 30.617C37.7903 24.4556 35.8582 21.312 35.1696 20.3494C34.3522 19.2067 32.9978 17.3438 29.3106 17.3438Z" fill="#515151"/>
<path d="M31.2599 51.8571C31.2317 51.8852 30.9633 51.9835 30.6525 52.0958C29.8474 52.3907 29.5508 52.9945 29.6355 54.2301C29.7062 55.3253 29.9745 55.8027 30.7373 56.1818C31.0057 56.3223 31.2741 56.4486 31.3306 56.4767L37.0937 80.5153C37.4751 81.7931 38.2237 83.2253 38.7464 83.7167C39.3255 84.2643 39.9047 84.3626 42.419 84.3767H44.566V87.0164C44.566 88.4767 44.5236 90.1476 44.4813 90.7233L44.3824 91.7764L43.662 91.9589C42.984 92.1274 42.1647 92.7312 42.1647 93.0682C42.1647 93.1805 44.0151 93.2226 48.3092 93.2226C51.9536 93.2226 54.4538 93.1665 54.4538 93.0963C54.4538 92.5767 53.7334 92.0712 52.7163 91.8887L52.1937 91.7904V84.3767H54.4255C56.6291 84.3767 57.5896 84.2503 57.8015 83.9133C57.858 83.815 57.9427 83.3797 57.9851 82.9304L58.0557 82.1301L58.5501 82.79C58.8185 83.1551 59.3553 83.6465 59.7366 83.8852C60.4284 84.3062 60.4429 84.3064 62.8822 84.3485L62.8866 84.3486L65.3303 84.4047V88.1116C65.3303 90.976 65.2879 91.8185 65.1608 91.8185C64.7088 91.8185 63.8895 92.1415 63.494 92.4644C62.59 93.2367 62.5193 93.2226 69.2148 93.2226C74.5118 93.2226 75.3593 93.1945 75.3593 93.012C75.3593 92.661 74.7519 92.2257 73.9185 91.987L73.0992 91.7483V84.3767L75.4017 84.3626C76.7859 84.3626 77.8877 84.2924 78.1844 84.1941L78.6787 84.0256L78.7776 79.0971C78.8765 73.6913 78.9047 73.5087 79.7381 73.0734C79.9641 72.9611 80.6422 72.7926 81.2495 72.7084C83.0011 72.4697 83.6085 71.908 83.7921 70.3494L83.8769 69.6614H61.9739H40.071C39.7532 69.6991 39.0434 69.5639 38.7467 68.7215C38.4501 67.879 36.3984 60.2507 35.4096 56.5419L40.3425 56.6208L45.2093 56.6986C49.8424 56.7548 50.0402 56.7688 51.4103 57.1339C53.2325 57.6113 54.5744 57.7096 56.4813 57.513C58.247 57.3165 59.4194 56.9654 60.4929 56.2914C61.5382 55.6175 61.7925 55.1541 61.7925 53.8342C61.7925 52.9777 61.736 52.6828 61.5241 52.4301L61.2557 52.0931L50.1249 52.0791L39.1878 51.9504L31.2599 51.8571Z" fill="#121212"/>
</svg>
