<svg width="285" height="32" viewBox="0 0 285 32" fill="none" xmlns="http://www.w3.org/2000/svg">
<path d="M48.9258 19.3379C48.9258 19.0449 48.8802 18.7845 48.7891 18.5566C48.7044 18.3288 48.5514 18.1204 48.3301 17.9316C48.1087 17.7428 47.7962 17.5605 47.3926 17.3848C46.9954 17.2025 46.4876 17.0169 45.8691 16.8281C45.1921 16.6198 44.5671 16.3887 43.9941 16.1348C43.4277 15.8743 42.9329 15.5749 42.5098 15.2363C42.0866 14.8913 41.7578 14.4974 41.5234 14.0547C41.2891 13.6055 41.1719 13.0879 41.1719 12.502C41.1719 11.9225 41.2923 11.3952 41.5332 10.9199C41.7806 10.4447 42.1289 10.0345 42.5781 9.68945C43.0339 9.33789 43.571 9.06771 44.1895 8.87891C44.8079 8.68359 45.4915 8.58594 46.2402 8.58594C47.2949 8.58594 48.2031 8.78125 48.9648 9.17188C49.7331 9.5625 50.3223 10.0866 50.7324 10.7441C51.1491 11.4017 51.3574 12.1276 51.3574 12.9219H48.9258C48.9258 12.4531 48.8249 12.0397 48.623 11.6816C48.4277 11.3171 48.1283 11.0306 47.7246 10.8223C47.3275 10.6139 46.8229 10.5098 46.2109 10.5098C45.6315 10.5098 45.1497 10.5977 44.7656 10.7734C44.3815 10.9492 44.0951 11.1868 43.9062 11.4863C43.7174 11.7858 43.623 12.1243 43.623 12.502C43.623 12.7689 43.6849 13.013 43.8086 13.2344C43.9323 13.4492 44.1211 13.651 44.375 13.8398C44.6289 14.0221 44.9479 14.1947 45.332 14.3574C45.7161 14.5202 46.1686 14.6764 46.6895 14.8262C47.4772 15.0605 48.1641 15.321 48.75 15.6074C49.3359 15.8874 49.8242 16.2064 50.2148 16.5645C50.6055 16.9225 50.8984 17.3294 51.0938 17.7852C51.2891 18.2344 51.3867 18.7454 51.3867 19.3184C51.3867 19.9173 51.2663 20.4577 51.0254 20.9395C50.7845 21.4147 50.4395 21.8216 49.9902 22.1602C49.5475 22.4922 49.0137 22.7493 48.3887 22.9316C47.7702 23.1074 47.0801 23.1953 46.3184 23.1953C45.6348 23.1953 44.9609 23.1042 44.2969 22.9219C43.6393 22.7396 43.0404 22.4629 42.5 22.0918C41.9596 21.7142 41.5299 21.2454 41.2109 20.6855C40.8919 20.1191 40.7324 19.4583 40.7324 18.7031H43.1836C43.1836 19.1654 43.2617 19.5592 43.418 19.8848C43.5807 20.2103 43.8053 20.4772 44.0918 20.6855C44.3783 20.8874 44.7103 21.0371 45.0879 21.1348C45.472 21.2324 45.8822 21.2812 46.3184 21.2812C46.8913 21.2812 47.3698 21.1999 47.7539 21.0371C48.1445 20.8743 48.4375 20.6465 48.6328 20.3535C48.8281 20.0605 48.9258 19.722 48.9258 19.3379ZM57.9785 23.1953C57.1973 23.1953 56.4909 23.0684 55.8594 22.8145C55.2344 22.554 54.7005 22.1927 54.2578 21.7305C53.8216 21.2682 53.4863 20.7246 53.252 20.0996C53.0176 19.4746 52.9004 18.8008 52.9004 18.0781V17.6875C52.9004 16.8607 53.0208 16.112 53.2617 15.4414C53.5026 14.7708 53.8379 14.1979 54.2676 13.7227C54.6973 13.2409 55.2051 12.873 55.791 12.6191C56.377 12.3652 57.0117 12.2383 57.6953 12.2383C58.4505 12.2383 59.1113 12.3652 59.6777 12.6191C60.2441 12.873 60.7129 13.2311 61.084 13.6934C61.4616 14.1491 61.7415 14.6927 61.9238 15.3242C62.1126 15.9557 62.207 16.6523 62.207 17.4141V18.4199H54.043V16.7305H59.8828V16.5449C59.8698 16.1217 59.7852 15.7246 59.6289 15.3535C59.4792 14.9824 59.248 14.6829 58.9355 14.4551C58.623 14.2272 58.2064 14.1133 57.6855 14.1133C57.2949 14.1133 56.9466 14.1979 56.6406 14.3672C56.3411 14.5299 56.0905 14.7676 55.8887 15.0801C55.6868 15.3926 55.5306 15.7702 55.4199 16.2129C55.3158 16.6491 55.2637 17.1406 55.2637 17.6875V18.0781C55.2637 18.5404 55.3255 18.9701 55.4492 19.3672C55.5794 19.7578 55.7682 20.0996 56.0156 20.3926C56.263 20.6855 56.5625 20.9167 56.9141 21.0859C57.2656 21.2487 57.666 21.3301 58.1152 21.3301C58.6816 21.3301 59.1862 21.2161 59.6289 20.9883C60.0716 20.7604 60.4557 20.4382 60.7812 20.0215L62.0215 21.2227C61.7936 21.5547 61.4974 21.8737 61.1328 22.1797C60.7682 22.4792 60.3223 22.7233 59.7949 22.9121C59.2741 23.1009 58.6686 23.1953 57.9785 23.1953ZM70 20.8809V15.8418C70 15.4642 69.9316 15.1387 69.7949 14.8652C69.6582 14.5918 69.4499 14.3802 69.1699 14.2305C68.8965 14.0807 68.5514 14.0059 68.1348 14.0059C67.7507 14.0059 67.4186 14.071 67.1387 14.2012C66.8587 14.3314 66.6406 14.5072 66.4844 14.7285C66.3281 14.9499 66.25 15.2005 66.25 15.4805H63.9062C63.9062 15.0638 64.0072 14.6602 64.209 14.2695C64.4108 13.8789 64.7038 13.5306 65.0879 13.2246C65.472 12.9186 65.931 12.6777 66.4648 12.502C66.9987 12.3262 67.5977 12.2383 68.2617 12.2383C69.056 12.2383 69.7591 12.3717 70.3711 12.6387C70.9896 12.9056 71.4746 13.3092 71.8262 13.8496C72.1842 14.3835 72.3633 15.054 72.3633 15.8613V20.5586C72.3633 21.0404 72.3958 21.4733 72.4609 21.8574C72.5326 22.235 72.6335 22.5638 72.7637 22.8438V23H70.3516C70.2409 22.7461 70.153 22.4238 70.0879 22.0332C70.0293 21.6361 70 21.252 70 20.8809ZM70.3418 16.5742L70.3613 18.0293H68.6719C68.2357 18.0293 67.8516 18.0716 67.5195 18.1562C67.1875 18.2344 66.9108 18.3516 66.6895 18.5078C66.4681 18.6641 66.3021 18.8529 66.1914 19.0742C66.0807 19.2956 66.0254 19.5462 66.0254 19.8262C66.0254 20.1061 66.0905 20.3633 66.2207 20.5977C66.3509 20.8255 66.5397 21.0046 66.7871 21.1348C67.041 21.265 67.347 21.3301 67.7051 21.3301C68.1868 21.3301 68.6068 21.2324 68.9648 21.0371C69.3294 20.8353 69.6159 20.5911 69.8242 20.3047C70.0326 20.0117 70.1432 19.735 70.1562 19.4746L70.918 20.5195C70.8398 20.7865 70.7064 21.0729 70.5176 21.3789C70.3288 21.6849 70.0814 21.9779 69.7754 22.2578C69.4759 22.5312 69.1146 22.7559 68.6914 22.9316C68.2747 23.1074 67.793 23.1953 67.2461 23.1953C66.556 23.1953 65.9408 23.0586 65.4004 22.7852C64.86 22.5052 64.4368 22.1309 64.1309 21.6621C63.8249 21.1868 63.6719 20.6497 63.6719 20.0508C63.6719 19.4909 63.776 18.9961 63.9844 18.5664C64.1992 18.1302 64.5117 17.7656 64.9219 17.4727C65.3385 17.1797 65.8464 16.9583 66.4453 16.8086C67.0443 16.6523 67.7279 16.5742 68.4961 16.5742H70.3418ZM79.668 12.4336V14.1523H73.7109V12.4336H79.668ZM75.4297 9.8457H77.7832V20.0801C77.7832 20.4056 77.8288 20.6562 77.9199 20.832C78.0176 21.0013 78.151 21.1152 78.3203 21.1738C78.4896 21.2324 78.6882 21.2617 78.916 21.2617C79.0788 21.2617 79.235 21.252 79.3848 21.2324C79.5345 21.2129 79.6549 21.1934 79.7461 21.1738L79.7559 22.9707C79.5605 23.0293 79.3327 23.0814 79.0723 23.127C78.8184 23.1725 78.5254 23.1953 78.1934 23.1953C77.653 23.1953 77.1745 23.1009 76.7578 22.9121C76.3411 22.7168 76.0156 22.401 75.7812 21.9648C75.5469 21.5286 75.4297 20.9492 75.4297 20.2266V9.8457ZM86.1426 23.1953C85.3613 23.1953 84.6549 23.0684 84.0234 22.8145C83.3984 22.554 82.8646 22.1927 82.4219 21.7305C81.9857 21.2682 81.6504 20.7246 81.416 20.0996C81.1816 19.4746 81.0645 18.8008 81.0645 18.0781V17.6875C81.0645 16.8607 81.1849 16.112 81.4258 15.4414C81.6667 14.7708 82.002 14.1979 82.4316 13.7227C82.8613 13.2409 83.3691 12.873 83.9551 12.6191C84.541 12.3652 85.1758 12.2383 85.8594 12.2383C86.6146 12.2383 87.2754 12.3652 87.8418 12.6191C88.4082 12.873 88.877 13.2311 89.248 13.6934C89.6257 14.1491 89.9056 14.6927 90.0879 15.3242C90.2767 15.9557 90.3711 16.6523 90.3711 17.4141V18.4199H82.207V16.7305H88.0469V16.5449C88.0339 16.1217 87.9492 15.7246 87.793 15.3535C87.6432 14.9824 87.4121 14.6829 87.0996 14.4551C86.7871 14.2272 86.3704 14.1133 85.8496 14.1133C85.459 14.1133 85.1107 14.1979 84.8047 14.3672C84.5052 14.5299 84.2546 14.7676 84.0527 15.0801C83.8509 15.3926 83.6947 15.7702 83.584 16.2129C83.4798 16.6491 83.4277 17.1406 83.4277 17.6875V18.0781C83.4277 18.5404 83.4896 18.9701 83.6133 19.3672C83.7435 19.7578 83.9323 20.0996 84.1797 20.3926C84.4271 20.6855 84.7266 20.9167 85.0781 21.0859C85.4297 21.2487 85.8301 21.3301 86.2793 21.3301C86.8457 21.3301 87.3503 21.2161 87.793 20.9883C88.2357 20.7604 88.6198 20.4382 88.9453 20.0215L90.1855 21.2227C89.9577 21.5547 89.6615 21.8737 89.2969 22.1797C88.9323 22.4792 88.4863 22.7233 87.959 22.9121C87.4382 23.1009 86.8327 23.1953 86.1426 23.1953ZM98.6523 20.8125V8H101.016V23H98.877L98.6523 20.8125ZM91.7773 17.834V17.6289C91.7773 16.8281 91.8717 16.099 92.0605 15.4414C92.2493 14.7773 92.5228 14.2077 92.8809 13.7324C93.2389 13.2507 93.6751 12.8828 94.1895 12.6289C94.7038 12.3685 95.2832 12.2383 95.9277 12.2383C96.5658 12.2383 97.1257 12.362 97.6074 12.6094C98.0892 12.8568 98.4993 13.2116 98.8379 13.6738C99.1764 14.1296 99.4466 14.6764 99.6484 15.3145C99.8503 15.946 99.9935 16.6491 100.078 17.4238V18.0781C99.9935 18.8333 99.8503 19.5234 99.6484 20.1484C99.4466 20.7734 99.1764 21.3138 98.8379 21.7695C98.4993 22.2253 98.0859 22.5768 97.5977 22.8242C97.1159 23.0716 96.5527 23.1953 95.9082 23.1953C95.2702 23.1953 94.694 23.0618 94.1797 22.7949C93.6719 22.528 93.2389 22.1536 92.8809 21.6719C92.5228 21.1901 92.2493 20.6237 92.0605 19.9727C91.8717 19.3151 91.7773 18.6022 91.7773 17.834ZM94.1309 17.6289V17.834C94.1309 18.3158 94.1732 18.765 94.2578 19.1816C94.349 19.5983 94.4889 19.9661 94.6777 20.2852C94.8665 20.5977 95.1107 20.8451 95.4102 21.0273C95.7161 21.2031 96.0807 21.291 96.5039 21.291C97.0378 21.291 97.4772 21.1738 97.8223 20.9395C98.1673 20.7051 98.4375 20.3893 98.6328 19.9922C98.8346 19.5885 98.9714 19.1393 99.043 18.6445V16.877C99.0039 16.4928 98.9225 16.1348 98.7988 15.8027C98.6816 15.4707 98.5221 15.181 98.3203 14.9336C98.1185 14.6797 97.8678 14.4844 97.5684 14.3477C97.2754 14.2044 96.9271 14.1328 96.5234 14.1328C96.0938 14.1328 95.7292 14.224 95.4297 14.4062C95.1302 14.5885 94.8828 14.8392 94.6875 15.1582C94.4987 15.4772 94.3587 15.8483 94.2676 16.2715C94.1764 16.6947 94.1309 17.1471 94.1309 17.6289ZM117.998 21.0566V23H110.449V21.0566H117.998ZM111.143 8.78125V23H108.691V8.78125H111.143ZM117.012 14.7188V16.6328H110.449V14.7188H117.012ZM117.949 8.78125V10.7344H110.449V8.78125H117.949ZM121.562 12.4336L123.574 15.9395L125.625 12.4336H128.213L125.01 17.6191L128.34 23H125.752L123.604 19.3477L121.455 23H118.857L122.178 17.6191L118.984 12.4336H121.562ZM134.287 23.1953C133.506 23.1953 132.799 23.0684 132.168 22.8145C131.543 22.554 131.009 22.1927 130.566 21.7305C130.13 21.2682 129.795 20.7246 129.561 20.0996C129.326 19.4746 129.209 18.8008 129.209 18.0781V17.6875C129.209 16.8607 129.329 16.112 129.57 15.4414C129.811 14.7708 130.146 14.1979 130.576 13.7227C131.006 13.2409 131.514 12.873 132.1 12.6191C132.686 12.3652 133.32 12.2383 134.004 12.2383C134.759 12.2383 135.42 12.3652 135.986 12.6191C136.553 12.873 137.021 13.2311 137.393 13.6934C137.77 14.1491 138.05 14.6927 138.232 15.3242C138.421 15.9557 138.516 16.6523 138.516 17.4141V18.4199H130.352V16.7305H136.191V16.5449C136.178 16.1217 136.094 15.7246 135.938 15.3535C135.788 14.9824 135.557 14.6829 135.244 14.4551C134.932 14.2272 134.515 14.1133 133.994 14.1133C133.604 14.1133 133.255 14.1979 132.949 14.3672C132.65 14.5299 132.399 14.7676 132.197 15.0801C131.995 15.3926 131.839 15.7702 131.729 16.2129C131.624 16.6491 131.572 17.1406 131.572 17.6875V18.0781C131.572 18.5404 131.634 18.9701 131.758 19.3672C131.888 19.7578 132.077 20.0996 132.324 20.3926C132.572 20.6855 132.871 20.9167 133.223 21.0859C133.574 21.2487 133.975 21.3301 134.424 21.3301C134.99 21.3301 135.495 21.2161 135.938 20.9883C136.38 20.7604 136.764 20.4382 137.09 20.0215L138.33 21.2227C138.102 21.5547 137.806 21.8737 137.441 22.1797C137.077 22.4792 136.631 22.7233 136.104 22.9121C135.583 23.1009 134.977 23.1953 134.287 23.1953ZM142.715 14.4453V23H140.361V12.4336H142.607L142.715 14.4453ZM145.947 12.3652L145.928 14.5527C145.785 14.5267 145.628 14.5072 145.459 14.4941C145.296 14.4811 145.133 14.4746 144.971 14.4746C144.567 14.4746 144.212 14.5332 143.906 14.6504C143.6 14.7611 143.343 14.9238 143.135 15.1387C142.933 15.347 142.777 15.6009 142.666 15.9004C142.555 16.1999 142.49 16.5352 142.471 16.9062L141.934 16.9453C141.934 16.2812 141.999 15.666 142.129 15.0996C142.259 14.5332 142.454 14.0352 142.715 13.6055C142.982 13.1758 143.314 12.8405 143.711 12.5996C144.115 12.3587 144.58 12.2383 145.107 12.2383C145.251 12.2383 145.404 12.2513 145.566 12.2773C145.736 12.3034 145.863 12.3327 145.947 12.3652ZM151.543 21.3203C151.927 21.3203 152.272 21.2454 152.578 21.0957C152.891 20.9395 153.141 20.7246 153.33 20.4512C153.525 20.1777 153.633 19.862 153.652 19.5039H155.869C155.856 20.1875 155.654 20.8092 155.264 21.3691C154.873 21.929 154.355 22.375 153.711 22.707C153.066 23.0326 152.354 23.1953 151.572 23.1953C150.765 23.1953 150.062 23.0586 149.463 22.7852C148.864 22.5052 148.366 22.1211 147.969 21.6328C147.572 21.1445 147.272 20.5814 147.07 19.9434C146.875 19.3053 146.777 18.6217 146.777 17.8926V17.5508C146.777 16.8216 146.875 16.138 147.07 15.5C147.272 14.8555 147.572 14.2891 147.969 13.8008C148.366 13.3125 148.864 12.9316 149.463 12.6582C150.062 12.3783 150.762 12.2383 151.562 12.2383C152.409 12.2383 153.151 12.4076 153.789 12.7461C154.427 13.0781 154.928 13.5436 155.293 14.1426C155.664 14.735 155.856 15.4251 155.869 16.2129H153.652C153.633 15.8223 153.535 15.4707 153.359 15.1582C153.19 14.8392 152.949 14.5853 152.637 14.3965C152.331 14.2077 151.963 14.1133 151.533 14.1133C151.058 14.1133 150.664 14.2109 150.352 14.4062C150.039 14.5951 149.795 14.8555 149.619 15.1875C149.443 15.513 149.316 15.8809 149.238 16.291C149.167 16.6947 149.131 17.1146 149.131 17.5508V17.8926C149.131 18.3288 149.167 18.752 149.238 19.1621C149.31 19.5723 149.434 19.9401 149.609 20.2656C149.792 20.5846 150.039 20.8418 150.352 21.0371C150.664 21.2259 151.061 21.3203 151.543 21.3203ZM160.195 12.4336V23H157.832V12.4336H160.195ZM157.676 9.66016C157.676 9.30208 157.793 9.00586 158.027 8.77148C158.268 8.5306 158.6 8.41016 159.023 8.41016C159.44 8.41016 159.769 8.5306 160.01 8.77148C160.251 9.00586 160.371 9.30208 160.371 9.66016C160.371 10.0117 160.251 10.3047 160.01 10.5391C159.769 10.7734 159.44 10.8906 159.023 10.8906C158.6 10.8906 158.268 10.7734 158.027 10.5391C157.793 10.3047 157.676 10.0117 157.676 9.66016ZM168.701 20.1387C168.701 19.9043 168.643 19.6927 168.525 19.5039C168.408 19.3086 168.184 19.1328 167.852 18.9766C167.526 18.8203 167.044 18.6771 166.406 18.5469C165.846 18.4232 165.332 18.2767 164.863 18.1074C164.401 17.9316 164.004 17.7201 163.672 17.4727C163.34 17.2253 163.083 16.9323 162.9 16.5938C162.718 16.2552 162.627 15.8646 162.627 15.4219C162.627 14.9922 162.721 14.5853 162.91 14.2012C163.099 13.8171 163.369 13.4785 163.721 13.1855C164.072 12.8926 164.499 12.6615 165 12.4922C165.508 12.3229 166.074 12.2383 166.699 12.2383C167.585 12.2383 168.343 12.388 168.975 12.6875C169.613 12.9805 170.101 13.3809 170.439 13.8887C170.778 14.39 170.947 14.9564 170.947 15.5879H168.594C168.594 15.3079 168.522 15.0475 168.379 14.8066C168.242 14.5592 168.034 14.3607 167.754 14.2109C167.474 14.0547 167.122 13.9766 166.699 13.9766C166.296 13.9766 165.96 14.0417 165.693 14.1719C165.433 14.2956 165.238 14.4583 165.107 14.6602C164.984 14.862 164.922 15.0833 164.922 15.3242C164.922 15.5 164.954 15.6595 165.02 15.8027C165.091 15.9395 165.208 16.0664 165.371 16.1836C165.534 16.2943 165.755 16.3984 166.035 16.4961C166.322 16.5938 166.68 16.6882 167.109 16.7793C167.917 16.9486 168.61 17.1667 169.189 17.4336C169.775 17.694 170.225 18.0326 170.537 18.4492C170.85 18.8594 171.006 19.3802 171.006 20.0117C171.006 20.4805 170.905 20.9102 170.703 21.3008C170.508 21.6849 170.221 22.0202 169.844 22.3066C169.466 22.5866 169.014 22.8047 168.486 22.9609C167.965 23.1172 167.38 23.1953 166.729 23.1953C165.771 23.1953 164.961 23.026 164.297 22.6875C163.633 22.3424 163.128 21.903 162.783 21.3691C162.445 20.8288 162.275 20.2689 162.275 19.6895H164.551C164.577 20.1257 164.697 20.474 164.912 20.7344C165.133 20.9883 165.407 21.1738 165.732 21.291C166.064 21.4017 166.406 21.457 166.758 21.457C167.181 21.457 167.536 21.4017 167.822 21.291C168.109 21.1738 168.327 21.0176 168.477 20.8223C168.626 20.6204 168.701 20.3926 168.701 20.1387ZM177.725 23.1953C176.943 23.1953 176.237 23.0684 175.605 22.8145C174.98 22.554 174.447 22.1927 174.004 21.7305C173.568 21.2682 173.232 20.7246 172.998 20.0996C172.764 19.4746 172.646 18.8008 172.646 18.0781V17.6875C172.646 16.8607 172.767 16.112 173.008 15.4414C173.249 14.7708 173.584 14.1979 174.014 13.7227C174.443 13.2409 174.951 12.873 175.537 12.6191C176.123 12.3652 176.758 12.2383 177.441 12.2383C178.197 12.2383 178.857 12.3652 179.424 12.6191C179.99 12.873 180.459 13.2311 180.83 13.6934C181.208 14.1491 181.488 14.6927 181.67 15.3242C181.859 15.9557 181.953 16.6523 181.953 17.4141V18.4199H173.789V16.7305H179.629V16.5449C179.616 16.1217 179.531 15.7246 179.375 15.3535C179.225 14.9824 178.994 14.6829 178.682 14.4551C178.369 14.2272 177.952 14.1133 177.432 14.1133C177.041 14.1133 176.693 14.1979 176.387 14.3672C176.087 14.5299 175.837 14.7676 175.635 15.0801C175.433 15.3926 175.277 15.7702 175.166 16.2129C175.062 16.6491 175.01 17.1406 175.01 17.6875V18.0781C175.01 18.5404 175.072 18.9701 175.195 19.3672C175.326 19.7578 175.514 20.0996 175.762 20.3926C176.009 20.6855 176.309 20.9167 176.66 21.0859C177.012 21.2487 177.412 21.3301 177.861 21.3301C178.428 21.3301 178.932 21.2161 179.375 20.9883C179.818 20.7604 180.202 20.4382 180.527 20.0215L181.768 21.2227C181.54 21.5547 181.243 21.8737 180.879 22.1797C180.514 22.4792 180.068 22.7233 179.541 22.9121C179.02 23.1009 178.415 23.1953 177.725 23.1953ZM191.289 12.4336V23H188.926V12.4336H191.289ZM188.77 9.66016C188.77 9.30208 188.887 9.00586 189.121 8.77148C189.362 8.5306 189.694 8.41016 190.117 8.41016C190.534 8.41016 190.863 8.5306 191.104 8.77148C191.344 9.00586 191.465 9.30208 191.465 9.66016C191.465 10.0117 191.344 10.3047 191.104 10.5391C190.863 10.7734 190.534 10.8906 190.117 10.8906C189.694 10.8906 189.362 10.7734 189.121 10.5391C188.887 10.3047 188.77 10.0117 188.77 9.66016ZM196.201 14.6895V23H193.848V12.4336H196.064L196.201 14.6895ZM195.781 17.3262L195.02 17.3164C195.026 16.5677 195.13 15.8809 195.332 15.2559C195.54 14.6309 195.827 14.0938 196.191 13.6445C196.562 13.1953 197.005 12.8503 197.52 12.6094C198.034 12.362 198.607 12.2383 199.238 12.2383C199.746 12.2383 200.205 12.3099 200.615 12.4531C201.032 12.5898 201.387 12.8145 201.68 13.127C201.979 13.4395 202.207 13.8464 202.363 14.3477C202.52 14.8424 202.598 15.4512 202.598 16.1738V23H200.234V16.1641C200.234 15.6562 200.16 15.2559 200.01 14.9629C199.867 14.6634 199.655 14.4518 199.375 14.3281C199.102 14.1979 198.76 14.1328 198.35 14.1328C197.946 14.1328 197.585 14.2174 197.266 14.3867C196.947 14.556 196.676 14.7871 196.455 15.0801C196.24 15.373 196.074 15.7116 195.957 16.0957C195.84 16.4798 195.781 16.89 195.781 17.3262ZM215.088 20.4023L218.828 8.78125H221.533L216.436 23H214.609L215.088 20.4023ZM211.631 8.78125L215.342 20.4023L215.85 23H214.014L208.936 8.78125H211.631ZM227.119 23.1953C226.338 23.1953 225.632 23.0684 225 22.8145C224.375 22.554 223.841 22.1927 223.398 21.7305C222.962 21.2682 222.627 20.7246 222.393 20.0996C222.158 19.4746 222.041 18.8008 222.041 18.0781V17.6875C222.041 16.8607 222.161 16.112 222.402 15.4414C222.643 14.7708 222.979 14.1979 223.408 13.7227C223.838 13.2409 224.346 12.873 224.932 12.6191C225.518 12.3652 226.152 12.2383 226.836 12.2383C227.591 12.2383 228.252 12.3652 228.818 12.6191C229.385 12.873 229.854 13.2311 230.225 13.6934C230.602 14.1491 230.882 14.6927 231.064 15.3242C231.253 15.9557 231.348 16.6523 231.348 17.4141V18.4199H223.184V16.7305H229.023V16.5449C229.01 16.1217 228.926 15.7246 228.77 15.3535C228.62 14.9824 228.389 14.6829 228.076 14.4551C227.764 14.2272 227.347 14.1133 226.826 14.1133C226.436 14.1133 226.087 14.1979 225.781 14.3672C225.482 14.5299 225.231 14.7676 225.029 15.0801C224.827 15.3926 224.671 15.7702 224.561 16.2129C224.456 16.6491 224.404 17.1406 224.404 17.6875V18.0781C224.404 18.5404 224.466 18.9701 224.59 19.3672C224.72 19.7578 224.909 20.0996 225.156 20.3926C225.404 20.6855 225.703 20.9167 226.055 21.0859C226.406 21.2487 226.807 21.3301 227.256 21.3301C227.822 21.3301 228.327 21.2161 228.77 20.9883C229.212 20.7604 229.596 20.4382 229.922 20.0215L231.162 21.2227C230.934 21.5547 230.638 21.8737 230.273 22.1797C229.909 22.4792 229.463 22.7233 228.936 22.9121C228.415 23.1009 227.809 23.1953 227.119 23.1953ZM235.508 8V23H233.164V8H235.508ZM235.098 17.3262L234.336 17.3164C234.342 16.5872 234.443 15.9134 234.639 15.2949C234.84 14.6764 235.12 14.1393 235.479 13.6836C235.843 13.2214 236.279 12.8665 236.787 12.6191C237.295 12.3652 237.858 12.2383 238.477 12.2383C238.997 12.2383 239.466 12.3099 239.883 12.4531C240.306 12.5964 240.671 12.8275 240.977 13.1465C241.283 13.459 241.514 13.8691 241.67 14.377C241.833 14.8783 241.914 15.4902 241.914 16.2129V23H239.551V16.1934C239.551 15.6855 239.476 15.2819 239.326 14.9824C239.183 14.6829 238.971 14.4681 238.691 14.3379C238.411 14.2012 238.07 14.1328 237.666 14.1328C237.243 14.1328 236.868 14.2174 236.543 14.3867C236.224 14.556 235.957 14.7871 235.742 15.0801C235.527 15.373 235.365 15.7116 235.254 16.0957C235.15 16.4798 235.098 16.89 235.098 17.3262ZM246.816 12.4336V23H244.453V12.4336H246.816ZM244.297 9.66016C244.297 9.30208 244.414 9.00586 244.648 8.77148C244.889 8.5306 245.221 8.41016 245.645 8.41016C246.061 8.41016 246.39 8.5306 246.631 8.77148C246.872 9.00586 246.992 9.30208 246.992 9.66016C246.992 10.0117 246.872 10.3047 246.631 10.5391C246.39 10.7734 246.061 10.8906 245.645 10.8906C245.221 10.8906 244.889 10.7734 244.648 10.5391C244.414 10.3047 244.297 10.0117 244.297 9.66016ZM253.711 21.3203C254.095 21.3203 254.44 21.2454 254.746 21.0957C255.059 20.9395 255.309 20.7246 255.498 20.4512C255.693 20.1777 255.801 19.862 255.82 19.5039H258.037C258.024 20.1875 257.822 20.8092 257.432 21.3691C257.041 21.929 256.523 22.375 255.879 22.707C255.234 23.0326 254.521 23.1953 253.74 23.1953C252.933 23.1953 252.23 23.0586 251.631 22.7852C251.032 22.5052 250.534 22.1211 250.137 21.6328C249.74 21.1445 249.44 20.5814 249.238 19.9434C249.043 19.3053 248.945 18.6217 248.945 17.8926V17.5508C248.945 16.8216 249.043 16.138 249.238 15.5C249.44 14.8555 249.74 14.2891 250.137 13.8008C250.534 13.3125 251.032 12.9316 251.631 12.6582C252.23 12.3783 252.93 12.2383 253.73 12.2383C254.577 12.2383 255.319 12.4076 255.957 12.7461C256.595 13.0781 257.096 13.5436 257.461 14.1426C257.832 14.735 258.024 15.4251 258.037 16.2129H255.82C255.801 15.8223 255.703 15.4707 255.527 15.1582C255.358 14.8392 255.117 14.5853 254.805 14.3965C254.499 14.2077 254.131 14.1133 253.701 14.1133C253.226 14.1133 252.832 14.2109 252.52 14.4062C252.207 14.5951 251.963 14.8555 251.787 15.1875C251.611 15.513 251.484 15.8809 251.406 16.291C251.335 16.6947 251.299 17.1146 251.299 17.5508V17.8926C251.299 18.3288 251.335 18.752 251.406 19.1621C251.478 19.5723 251.602 19.9401 251.777 20.2656C251.96 20.5846 252.207 20.8418 252.52 21.0371C252.832 21.2259 253.229 21.3203 253.711 21.3203ZM262.363 8V23H260V8H262.363ZM269.6 23.1953C268.818 23.1953 268.112 23.0684 267.48 22.8145C266.855 22.554 266.322 22.1927 265.879 21.7305C265.443 21.2682 265.107 20.7246 264.873 20.0996C264.639 19.4746 264.521 18.8008 264.521 18.0781V17.6875C264.521 16.8607 264.642 16.112 264.883 15.4414C265.124 14.7708 265.459 14.1979 265.889 13.7227C266.318 13.2409 266.826 12.873 267.412 12.6191C267.998 12.3652 268.633 12.2383 269.316 12.2383C270.072 12.2383 270.732 12.3652 271.299 12.6191C271.865 12.873 272.334 13.2311 272.705 13.6934C273.083 14.1491 273.363 14.6927 273.545 15.3242C273.734 15.9557 273.828 16.6523 273.828 17.4141V18.4199H265.664V16.7305H271.504V16.5449C271.491 16.1217 271.406 15.7246 271.25 15.3535C271.1 14.9824 270.869 14.6829 270.557 14.4551C270.244 14.2272 269.827 14.1133 269.307 14.1133C268.916 14.1133 268.568 14.1979 268.262 14.3672C267.962 14.5299 267.712 14.7676 267.51 15.0801C267.308 15.3926 267.152 15.7702 267.041 16.2129C266.937 16.6491 266.885 17.1406 266.885 17.6875V18.0781C266.885 18.5404 266.947 18.9701 267.07 19.3672C267.201 19.7578 267.389 20.0996 267.637 20.3926C267.884 20.6855 268.184 20.9167 268.535 21.0859C268.887 21.2487 269.287 21.3301 269.736 21.3301C270.303 21.3301 270.807 21.2161 271.25 20.9883C271.693 20.7604 272.077 20.4382 272.402 20.0215L273.643 21.2227C273.415 21.5547 273.118 21.8737 272.754 22.1797C272.389 22.4792 271.943 22.7233 271.416 22.9121C270.895 23.1009 270.29 23.1953 269.6 23.1953ZM281.592 20.1387C281.592 19.9043 281.533 19.6927 281.416 19.5039C281.299 19.3086 281.074 19.1328 280.742 18.9766C280.417 18.8203 279.935 18.6771 279.297 18.5469C278.737 18.4232 278.223 18.2767 277.754 18.1074C277.292 17.9316 276.895 17.7201 276.562 17.4727C276.23 17.2253 275.973 16.9323 275.791 16.5938C275.609 16.2552 275.518 15.8646 275.518 15.4219C275.518 14.9922 275.612 14.5853 275.801 14.2012C275.99 13.8171 276.26 13.4785 276.611 13.1855C276.963 12.8926 277.389 12.6615 277.891 12.4922C278.398 12.3229 278.965 12.2383 279.59 12.2383C280.475 12.2383 281.234 12.388 281.865 12.6875C282.503 12.9805 282.992 13.3809 283.33 13.8887C283.669 14.39 283.838 14.9564 283.838 15.5879H281.484C281.484 15.3079 281.413 15.0475 281.27 14.8066C281.133 14.5592 280.924 14.3607 280.645 14.2109C280.365 14.0547 280.013 13.9766 279.59 13.9766C279.186 13.9766 278.851 14.0417 278.584 14.1719C278.324 14.2956 278.128 14.4583 277.998 14.6602C277.874 14.862 277.812 15.0833 277.812 15.3242C277.812 15.5 277.845 15.6595 277.91 15.8027C277.982 15.9395 278.099 16.0664 278.262 16.1836C278.424 16.2943 278.646 16.3984 278.926 16.4961C279.212 16.5938 279.57 16.6882 280 16.7793C280.807 16.9486 281.501 17.1667 282.08 17.4336C282.666 17.694 283.115 18.0326 283.428 18.4492C283.74 18.8594 283.896 19.3802 283.896 20.0117C283.896 20.4805 283.796 20.9102 283.594 21.3008C283.398 21.6849 283.112 22.0202 282.734 22.3066C282.357 22.5866 281.904 22.8047 281.377 22.9609C280.856 23.1172 280.27 23.1953 279.619 23.1953C278.662 23.1953 277.852 23.026 277.188 22.6875C276.523 22.3424 276.019 21.903 275.674 21.3691C275.335 20.8288 275.166 20.2689 275.166 19.6895H277.441C277.467 20.1257 277.588 20.474 277.803 20.7344C278.024 20.9883 278.298 21.1738 278.623 21.291C278.955 21.4017 279.297 21.457 279.648 21.457C280.072 21.457 280.426 21.4017 280.713 21.291C280.999 21.1738 281.217 21.0176 281.367 20.8223C281.517 20.6204 281.592 20.3926 281.592 20.1387Z" fill="black"/>
<rect width="32" height="32" rx="16" fill="#FFCA28"/>
<path d="M14.2063 5.00818C11.8239 5.06886 8.54302 4.9839 8.4375 5.00818C9.49694 5.00818 9.88608 5.54495 10.121 5.8742C10.3188 6.15156 10.874 7.05736 10.3949 8.83267C10.309 9.15105 10.121 9.50023 10.1899 10.0007C10.2474 10.4178 10.735 12.7264 11.2755 14.9796L14.4181 15.0166L17.6163 15.0207L17.6934 15.1178C17.7543 15.1906 17.7705 15.2756 17.7705 15.5224C17.7705 15.9027 17.6975 16.0362 17.3971 16.2304C17.0887 16.4246 16.7518 16.5257 16.2445 16.5824C15.6965 16.639 15.311 16.6107 14.7874 16.4731C14.3937 16.3679 14.3369 16.3639 13.0057 16.3477L11.6073 16.3253C11.789 17.0404 11.9682 17.7059 12.1309 18.25C13.0639 17.8006 14.4872 17.0805 15.8132 17.0981L15.8265 17.0983L16.5438 17.1091H18.9575C18.9575 17.1091 18.9279 17.003 18.9088 16.9351C18.8544 16.7421 18.8149 16.6363 18.7667 16.4415C18.7535 16.388 18.7343 16.304 18.7343 16.304L18.3244 14.9891L18.2107 14.5683C17.5167 12.0397 17.2732 10.8584 17.2691 10.0007C17.265 9.4909 17.2732 9.43425 17.3827 9.15105C17.9794 7.61366 17.995 6.82875 17.6815 6.16981C17.4948 5.77737 17.3827 5.62069 17.0748 5.40105C16.7668 5.1814 16.2864 5.01223 16.0267 5.00818C15.7669 5.00413 14.9328 4.992 14.2063 5.00818Z" fill="#292929"/>
<path d="M18.7343 16.304L20.1102 16.3242C21.4414 16.3404 21.4982 16.3444 21.8919 16.4496C22.4155 16.5872 22.801 16.6155 23.349 16.5589C23.8563 16.5022 24.1931 16.4011 24.5016 16.2069C24.8019 16.0127 24.875 15.8792 24.875 15.4989C24.875 15.2521 24.8588 15.1671 24.7979 15.0943L24.7208 14.9972L18.3244 14.9891L18.7343 16.304Z" fill="#121212"/>
<rect x="13.1377" y="7.79883" width="9.95844" height="9.95844" rx="4.97922" fill="#64B5F6"/>
<path d="M20.4759 13.4948L20.6708 13.2999C20.7764 13.1944 20.7764 13.0239 20.6708 12.9183L20.6654 12.9129C20.5599 12.8073 20.3893 12.8073 20.2838 12.9129L19.5096 13.687L17.1899 11.3673L17.9641 10.5932C18.0696 10.4876 18.0696 10.3171 17.9641 10.2115L17.9587 10.2061C17.8531 10.1006 17.6826 10.1006 17.577 10.2061L17.3821 10.401L17.1872 10.2061C17.0817 10.1006 16.9084 10.1006 16.8029 10.2061L16.4158 10.5932L16.2209 10.3983C16.1154 10.2927 15.9394 10.2927 15.8339 10.3983C15.7283 10.5039 15.7283 10.6798 15.8339 10.7854L16.0287 10.9803L15.6417 11.3673C15.5361 11.4729 15.5361 11.6434 15.6417 11.749L15.8366 11.9439L15.6417 12.1415C15.5361 12.247 15.5361 12.4175 15.6417 12.5231L15.6471 12.5285C15.7526 12.6341 15.9232 12.6341 16.0287 12.5285L16.8029 11.7544L19.1226 14.0741L18.3484 14.8482C18.2429 14.9538 18.2429 15.1243 18.3484 15.2299L18.3538 15.2353C18.4594 15.3408 18.6299 15.3408 18.7355 15.2353L18.9304 15.0404L19.1253 15.2353C19.2308 15.3408 19.4014 15.3408 19.5069 15.2353L19.894 14.8482L20.0889 15.0431C20.1944 15.1487 20.3704 15.1487 20.4759 15.0431C20.5815 14.9375 20.5815 14.7616 20.4759 14.656L20.2811 14.4611L20.6708 14.0741C20.7764 13.9685 20.7764 13.798 20.6708 13.6924L20.4759 13.4948Z" fill="white"/>
<path d="M24.1807 20.0826L24.6124 20.0664C24.9585 20.0542 25.0807 20.034 25.215 19.9611C25.5327 19.7952 25.6996 19.4309 25.7404 18.8196C25.7607 18.5282 25.7526 18.4391 25.6793 18.2489C25.5123 17.8117 24.9952 17.4271 24.3314 17.2409C24.0423 17.164 23.8957 17.1559 21.5134 17.1316L20.9282 17.126L19.005 17.1073H16.5832L15.8635 17.0965C16.5152 17.1075 17.143 17.2966 17.6775 17.7826C18.8856 18.881 18.2459 19.832 17.8664 20.0826H24.1807Z" fill="#292929"/>
<path d="M11.1702 19.8116C11.2557 20.0545 11.4604 20.0934 11.552 20.0826H17.8664C18.2459 19.832 18.8856 18.881 17.6775 17.7826C17.143 17.2966 16.5152 17.1075 15.8635 17.0965L15.8502 17.0963C14.5198 17.0787 13.0918 17.7992 12.1556 18.2489C11.9923 17.7044 11.8126 17.0387 11.6303 16.3231L10.2082 16.3004C10.4932 17.3696 11.0847 19.5687 11.1702 19.8116Z" fill="#515151"/>
<path d="M8.44991 5C8.25445 5.04048 8.16198 5.06943 8.05508 5.1328C7.9398 5.20114 7.90221 5.2415 7.81075 5.31496C7.71929 5.38841 7.64701 5.48419 7.59696 5.57301C7.54691 5.66184 7.43187 5.94722 7.39115 6.34796C7.35043 6.77704 7.38708 7.40447 7.49703 8.22215C7.60697 9.03983 8.82863 14.2009 8.89785 14.4641C8.96708 14.7272 9.02002 14.9458 9.01187 14.9498L11.2974 14.9767C10.755 12.7224 10.2659 10.4125 10.2082 9.99514C10.139 9.49444 10.3277 9.14508 10.4139 8.82653C10.8945 7.05027 10.3375 6.14399 10.139 5.86648C9.90333 5.53706 9.51289 5 8.44991 5Z" fill="#515151"/>
<path d="M9.01187 14.9498C9.00373 14.9579 8.92636 14.9862 8.83677 15.0186C8.60466 15.1036 8.51914 15.2777 8.54357 15.6339C8.56394 15.9496 8.64131 16.0873 8.8612 16.1966C8.93857 16.237 9.01595 16.2735 9.03223 16.2816L10.6937 23.2116C10.8036 23.58 11.0195 23.9929 11.1701 24.1345C11.3371 24.2924 11.504 24.3208 12.2289 24.3248H12.8479V25.0858C12.8479 25.5068 12.8356 25.9885 12.8234 26.1545L12.7949 26.4581L12.5872 26.5107C12.3918 26.5593 12.1556 26.7333 12.1556 26.8305C12.1556 26.8629 12.689 26.875 13.927 26.875C14.9776 26.875 15.6984 26.8588 15.6984 26.8386C15.6984 26.6888 15.4907 26.5431 15.1975 26.4904L15.0468 26.4621V24.3248H15.6902C16.3255 24.3248 16.6024 24.2884 16.6635 24.1912C16.6798 24.1629 16.7042 24.0374 16.7164 23.9079L16.7368 23.6771L16.8793 23.8674C16.9567 23.9726 17.1114 24.1143 17.2214 24.1831C17.4208 24.3045 17.425 24.3046 18.1282 24.3167L18.1295 24.3167L18.834 24.3329V25.4015C18.834 26.2273 18.8217 26.4702 18.7851 26.4702C18.6548 26.4702 18.4186 26.5633 18.3046 26.6564C18.044 26.879 18.0236 26.875 19.9538 26.875C21.4809 26.875 21.7252 26.8669 21.7252 26.8143C21.7252 26.7131 21.5501 26.5876 21.3098 26.5188L21.0736 26.45V24.3248L21.7374 24.3208C22.1365 24.3208 22.4541 24.3005 22.5396 24.2722L22.6822 24.2236L22.7107 22.8028C22.7392 21.2443 22.7473 21.1917 22.9876 21.0662C23.0527 21.0338 23.2482 20.9853 23.4233 20.961C23.9282 20.8922 24.1033 20.7302 24.1563 20.2809L24.1807 20.0826H17.8664H11.552C11.4604 20.0934 11.2557 20.0545 11.1702 19.8116C11.0847 19.5687 10.4932 17.3696 10.2082 16.3004L11.6303 16.3231L13.0333 16.3456C14.369 16.3617 14.426 16.3658 14.821 16.471C15.3463 16.6087 15.7332 16.637 16.2829 16.5803C16.7919 16.5237 17.1299 16.4225 17.4394 16.2282C17.7407 16.0339 17.814 15.9003 17.814 15.5198C17.814 15.2729 17.7978 15.1878 17.7367 15.115L17.6593 15.0178L14.4504 15.0138L11.2974 14.9767L9.01187 14.9498Z" fill="#121212"/>
</svg>
