<svg width="50" height="50" viewBox="0 0 50 50" fill="none" xmlns="http://www.w3.org/2000/svg">
<mask id="mask0_3180_5169" style="mask-type:alpha" maskUnits="userSpaceOnUse" x="0" y="0" width="50" height="50">
<rect width="50" height="50" rx="25" fill="#D9D9D9"/>
</mask>
<g mask="url(#mask0_3180_5169)">
<path d="M-4.82031 -1.98047H53.9709V56.8107H-4.82031V-1.98047Z" fill="#ECEFF1"/>
<path d="M38.3257 30.8594L40.0229 29.1691L33.7276 22.8995C34.5093 21.998 35.2037 21.0914 35.8106 20.1797C36.4175 19.2679 36.9473 18.3203 37.3999 17.3369H34.7151C34.3653 18.013 33.9796 18.6533 33.5578 19.2577C33.1361 19.8621 32.6578 20.4819 32.1229 21.117C31.1971 20.154 30.4256 19.1552 29.8084 18.1205C29.1912 17.0859 28.6666 16.0051 28.2345 14.8782H42.0288V12.4196H33.3881V9.96094H30.9193V12.4196H22.2786V14.8782H25.7658C26.2184 16.2919 26.8201 17.68 27.5711 19.0425C28.322 20.405 29.2426 21.7009 30.333 22.9303L27.3088 25.9728L28.2345 28.4622L32.1537 24.7128L38.3257 30.8594Z" fill="#A2A7AA"/>
<g filter="url(#filter0_d_3180_5169)">
<path d="M0 0H16.0467L39.8438 50H0V0Z" fill="#4EB8BE"/>
</g>
<path d="M9.48828 38.2813V38.0078L10.0625 37.7891C10.6458 37.5521 10.9375 37.0872 10.9375 36.3945V22.1211C10.9375 21.3919 10.6458 20.9271 10.0625 20.7266L9.48828 20.5078V20.2344H16.707C18.6393 20.2344 20.2982 20.599 21.6836 21.3281C23.0872 22.0391 24.1628 23.069 24.9102 24.418C25.6758 25.7487 26.0586 27.3529 26.0586 29.2305C26.0586 31.1445 25.6484 32.776 24.8281 34.125C24.0078 35.474 22.8594 36.5039 21.3828 37.2148C19.9245 37.9258 18.2018 38.2813 16.2148 38.2813H9.48828ZM15.0391 37.7344H16.2148C17.5273 37.7344 18.5846 37.4792 19.3867 36.9688C20.1888 36.4401 20.7721 35.5651 21.1367 34.3438C21.5195 33.1042 21.7109 31.4089 21.7109 29.2578C21.7109 27.1068 21.5195 25.4206 21.1367 24.1992C20.7721 22.9596 20.1979 22.0846 19.4141 21.5742C18.6302 21.0456 17.6003 20.7812 16.3242 20.7812H15.0391V37.7344Z" fill="#F9F9F9"/>
</g>
<defs>
<filter id="filter0_d_3180_5169" x="-63" y="-67" width="181.844" height="192" filterUnits="userSpaceOnUse" color-interpolation-filters="sRGB">
<feFlood flood-opacity="0" result="BackgroundImageFix"/>
<feColorMatrix in="SourceAlpha" type="matrix" values="0 0 0 0 0 0 0 0 0 0 0 0 0 0 0 0 0 0 127 0" result="hardAlpha"/>
<feOffset dx="8" dy="4"/>
<feGaussianBlur stdDeviation="35.5"/>
<feComposite in2="hardAlpha" operator="out"/>
<feColorMatrix type="matrix" values="0 0 0 0 0 0 0 0 0 0 0 0 0 0 0 0 0 0 0.2 0"/>
<feBlend mode="normal" in2="BackgroundImageFix" result="effect1_dropShadow_3180_5169"/>
<feBlend mode="normal" in="SourceGraphic" in2="effect1_dropShadow_3180_5169" result="shape"/>
</filter>
</defs>
</svg>
