<svg width="186" height="32" viewBox="0 0 186 32" fill="none" xmlns="http://www.w3.org/2000/svg">
<path d="M41.7406 22V21.82L42.1186 21.676C42.5026 21.52 42.6946 21.214 42.6946 20.758V11.362C42.6946 10.882 42.5026 10.576 42.1186 10.444L41.7406 10.3V10.12H46.4926C47.7646 10.12 48.8566 10.36 49.7686 10.84C50.6926 11.308 51.4006 11.986 51.8926 12.874C52.3966 13.75 52.6486 14.806 52.6486 16.042C52.6486 17.302 52.3786 18.376 51.8386 19.264C51.2986 20.152 50.5426 20.83 49.5706 21.298C48.6106 21.766 47.4766 22 46.1686 22H41.7406ZM45.3946 21.64H46.1686C47.0326 21.64 47.7286 21.472 48.2566 21.136C48.7846 20.788 49.1686 20.212 49.4086 19.408C49.6606 18.592 49.7866 17.476 49.7866 16.06C49.7866 14.644 49.6606 13.534 49.4086 12.73C49.1686 11.914 48.7906 11.338 48.2746 11.002C47.7586 10.654 47.0806 10.48 46.2406 10.48H45.3946V21.64ZM55.8965 12.136C55.4885 12.136 55.1405 12.01 54.8525 11.758C54.5765 11.494 54.4385 11.164 54.4385 10.768C54.4385 10.36 54.5765 10.03 54.8525 9.778C55.1405 9.526 55.4885 9.4 55.8965 9.4C56.3045 9.4 56.6465 9.526 56.9225 9.778C57.1985 10.03 57.3365 10.36 57.3365 10.768C57.3365 11.164 57.1985 11.494 56.9225 11.758C56.6465 12.01 56.3045 12.136 55.8965 12.136ZM53.7725 22V21.82L54.0245 21.748C54.2645 21.676 54.4265 21.568 54.5105 21.424C54.6065 21.28 54.6545 21.088 54.6545 20.848V15.214C54.6545 14.962 54.6065 14.776 54.5105 14.656C54.4265 14.524 54.2645 14.434 54.0245 14.386L53.7725 14.332V14.152L57.0665 13.09L57.2465 13.27L57.1925 15.826V20.866C57.1925 21.106 57.2345 21.298 57.3185 21.442C57.4145 21.586 57.5765 21.694 57.8045 21.766L57.9845 21.82V22H53.7725ZM63.0152 22.054L59.8292 14.404C59.6612 13.996 59.3732 13.726 58.9652 13.594L58.7132 13.522V13.342H63.3752V13.522L63.0512 13.594C62.5832 13.714 62.4392 14.026 62.6192 14.53L64.5092 19.552L66.2732 14.566C66.3692 14.326 66.3932 14.128 66.3452 13.972C66.2972 13.816 66.1532 13.702 65.9132 13.63L65.4632 13.522V13.342H68.0732V13.522L67.5512 13.648C67.3232 13.708 67.1432 13.798 67.0112 13.918C66.8912 14.038 66.7892 14.218 66.7052 14.458L64.0592 22.054H63.0152ZM72.9315 13.072C73.7115 13.072 74.3775 13.234 74.9295 13.558C75.4815 13.87 75.9015 14.302 76.1895 14.854C76.4895 15.394 76.6395 16.012 76.6395 16.708C76.6395 16.84 76.6335 16.978 76.6215 17.122C76.6095 17.254 76.5855 17.374 76.5495 17.482H71.1855C71.1975 18.778 71.4255 19.714 71.8695 20.29C72.3255 20.854 72.9975 21.136 73.8855 21.136C74.4855 21.136 74.9715 21.04 75.3435 20.848C75.7155 20.656 76.0635 20.374 76.3875 20.002L76.5675 20.164C76.1955 20.824 75.6975 21.34 75.0735 21.712C74.4615 22.084 73.7235 22.27 72.8595 22.27C72.0075 22.27 71.2515 22.09 70.5915 21.73C69.9315 21.358 69.4155 20.83 69.0435 20.146C68.6715 19.462 68.4855 18.646 68.4855 17.698C68.4855 16.714 68.7015 15.88 69.1335 15.196C69.5655 14.5 70.1175 13.972 70.7895 13.612C71.4735 13.252 72.1875 13.072 72.9315 13.072ZM72.8775 13.432C72.5295 13.432 72.2295 13.54 71.9775 13.756C71.7375 13.96 71.5455 14.332 71.4015 14.872C71.2695 15.4 71.1975 16.15 71.1855 17.122H74.2635C74.3835 15.814 74.3355 14.872 74.1195 14.296C73.9035 13.72 73.4895 13.432 72.8775 13.432ZM77.8966 22V21.82L78.1666 21.748C78.4066 21.676 78.5686 21.568 78.6526 21.424C78.7486 21.28 78.7966 21.094 78.7966 20.866V15.232C78.7966 14.968 78.7486 14.776 78.6526 14.656C78.5686 14.524 78.4066 14.434 78.1666 14.386L77.8966 14.314V14.134L80.9926 13.09L81.1726 13.27L81.3346 14.818V14.962C81.5026 14.626 81.7186 14.32 81.9826 14.044C82.2586 13.756 82.5586 13.522 82.8826 13.342C83.2186 13.162 83.5486 13.072 83.8726 13.072C84.3286 13.072 84.6766 13.198 84.9166 13.45C85.1566 13.702 85.2766 14.02 85.2766 14.404C85.2766 14.812 85.1566 15.13 84.9166 15.358C84.6886 15.574 84.4126 15.682 84.0886 15.682C83.5846 15.682 83.1406 15.43 82.7566 14.926L82.7206 14.89C82.6006 14.722 82.4626 14.632 82.3066 14.62C82.1506 14.596 82.0066 14.668 81.8746 14.836C81.7546 14.944 81.6526 15.076 81.5686 15.232C81.4966 15.376 81.4246 15.544 81.3526 15.736V20.758C81.3526 21.238 81.5626 21.538 81.9826 21.658L82.5586 21.82V22H77.8966ZM89.1401 22.27C88.5521 22.27 88.0241 22.198 87.5561 22.054C87.0881 21.922 86.6561 21.754 86.2601 21.55L86.2781 19.408H86.4581L87.0701 20.488C87.3341 20.968 87.6221 21.328 87.9341 21.568C88.2581 21.796 88.6661 21.91 89.1581 21.91C89.7341 21.91 90.1961 21.784 90.5441 21.532C90.9041 21.268 91.0841 20.92 91.0841 20.488C91.0841 20.092 90.9581 19.768 90.7061 19.516C90.4541 19.264 89.9861 19.036 89.3021 18.832L88.5461 18.598C87.8141 18.382 87.2381 18.046 86.8181 17.59C86.3981 17.134 86.1881 16.576 86.1881 15.916C86.1881 15.124 86.5001 14.452 87.1241 13.9C87.7481 13.348 88.6421 13.072 89.8061 13.072C90.2741 13.072 90.7121 13.126 91.1201 13.234C91.5401 13.33 91.9421 13.48 92.3261 13.684L92.2181 15.628H92.0381L91.4081 14.512C91.1801 14.116 90.9521 13.84 90.7241 13.684C90.5081 13.516 90.1781 13.432 89.7341 13.432C89.3261 13.432 88.9421 13.546 88.5821 13.774C88.2221 14.002 88.0421 14.326 88.0421 14.746C88.0421 15.154 88.1921 15.478 88.4921 15.718C88.8041 15.958 89.2601 16.18 89.8601 16.384L90.6701 16.618C91.5341 16.882 92.1521 17.248 92.5241 17.716C92.8961 18.172 93.0821 18.724 93.0821 19.372C93.0821 20.248 92.7341 20.95 92.0381 21.478C91.3541 22.006 90.3881 22.27 89.1401 22.27ZM98.7439 13.072C99.5239 13.072 100.19 13.234 100.742 13.558C101.294 13.87 101.714 14.302 102.002 14.854C102.302 15.394 102.452 16.012 102.452 16.708C102.452 16.84 102.446 16.978 102.434 17.122C102.422 17.254 102.398 17.374 102.362 17.482H96.9979C97.0099 18.778 97.2379 19.714 97.6819 20.29C98.1379 20.854 98.8099 21.136 99.6979 21.136C100.298 21.136 100.784 21.04 101.156 20.848C101.528 20.656 101.876 20.374 102.2 20.002L102.38 20.164C102.008 20.824 101.51 21.34 100.886 21.712C100.274 22.084 99.5359 22.27 98.6719 22.27C97.8199 22.27 97.0639 22.09 96.4039 21.73C95.7439 21.358 95.2279 20.83 94.8559 20.146C94.4839 19.462 94.2979 18.646 94.2979 17.698C94.2979 16.714 94.5139 15.88 94.9459 15.196C95.3779 14.5 95.9299 13.972 96.6019 13.612C97.2859 13.252 97.9999 13.072 98.7439 13.072ZM98.6899 13.432C98.3419 13.432 98.0419 13.54 97.7899 13.756C97.5499 13.96 97.3579 14.332 97.2139 14.872C97.0819 15.4 97.0099 16.15 96.9979 17.122H100.076C100.196 15.814 100.148 14.872 99.9319 14.296C99.7159 13.72 99.3019 13.432 98.6899 13.432ZM110.279 22V21.82L111.017 21.64C111.509 21.532 111.755 21.232 111.755 20.74V10.48H110.225C109.781 10.48 109.463 10.6 109.271 10.84C109.079 11.068 108.875 11.386 108.659 11.794L108.011 13.054H107.831L107.921 10.12H118.307L118.379 13.054H118.199L117.551 11.794C117.347 11.386 117.149 11.068 116.957 10.84C116.765 10.6 116.447 10.48 116.003 10.48H114.473V20.74C114.473 21.232 114.719 21.532 115.211 21.64L115.949 21.82V22H110.279ZM118.825 22V21.82L119.095 21.748C119.335 21.676 119.497 21.568 119.581 21.424C119.677 21.28 119.725 21.094 119.725 20.866V15.232C119.725 14.968 119.677 14.776 119.581 14.656C119.497 14.524 119.335 14.434 119.095 14.386L118.825 14.314V14.134L121.921 13.09L122.101 13.27L122.263 14.818V14.962C122.431 14.626 122.647 14.32 122.911 14.044C123.187 13.756 123.487 13.522 123.811 13.342C124.147 13.162 124.477 13.072 124.801 13.072C125.257 13.072 125.605 13.198 125.845 13.45C126.085 13.702 126.205 14.02 126.205 14.404C126.205 14.812 126.085 15.13 125.845 15.358C125.617 15.574 125.341 15.682 125.017 15.682C124.513 15.682 124.069 15.43 123.685 14.926L123.649 14.89C123.529 14.722 123.391 14.632 123.235 14.62C123.079 14.596 122.935 14.668 122.803 14.836C122.683 14.944 122.581 15.076 122.497 15.232C122.425 15.376 122.353 15.544 122.281 15.736V20.758C122.281 21.238 122.491 21.538 122.911 21.658L123.487 21.82V22H118.825ZM129.372 22.27C128.676 22.27 128.088 22.072 127.608 21.676C127.14 21.28 126.906 20.71 126.906 19.966C126.906 19.402 127.194 18.886 127.77 18.418C128.346 17.938 129.252 17.578 130.488 17.338C130.68 17.302 130.896 17.266 131.136 17.23C131.376 17.182 131.628 17.134 131.892 17.086V15.664C131.892 14.848 131.79 14.278 131.586 13.954C131.394 13.618 131.088 13.45 130.668 13.45C130.38 13.45 130.152 13.546 129.984 13.738C129.816 13.918 129.708 14.236 129.66 14.692L129.624 14.89C129.6 15.406 129.474 15.784 129.246 16.024C129.018 16.264 128.736 16.384 128.4 16.384C128.088 16.384 127.83 16.288 127.626 16.096C127.422 15.904 127.32 15.646 127.32 15.322C127.32 14.83 127.488 14.416 127.824 14.08C128.172 13.744 128.628 13.492 129.192 13.324C129.756 13.156 130.368 13.072 131.028 13.072C132.096 13.072 132.918 13.336 133.494 13.864C134.082 14.38 134.376 15.226 134.376 16.402V20.38C134.376 20.92 134.628 21.19 135.132 21.19H135.528L135.69 21.334C135.462 21.622 135.21 21.844 134.934 22C134.67 22.156 134.292 22.234 133.8 22.234C133.272 22.234 132.852 22.114 132.54 21.874C132.24 21.622 132.042 21.292 131.946 20.884C131.586 21.268 131.214 21.598 130.83 21.874C130.458 22.138 129.972 22.27 129.372 22.27ZM130.47 21.172C130.71 21.172 130.932 21.118 131.136 21.01C131.352 20.89 131.604 20.71 131.892 20.47V17.446C131.772 17.47 131.652 17.494 131.532 17.518C131.412 17.542 131.274 17.566 131.118 17.59C130.566 17.734 130.122 17.98 129.786 18.328C129.462 18.664 129.3 19.12 129.3 19.696C129.3 20.188 129.414 20.56 129.642 20.812C129.87 21.052 130.146 21.172 130.47 21.172ZM136.385 22V21.82L136.637 21.748C137.057 21.628 137.267 21.334 137.267 20.866V15.232C137.267 14.968 137.225 14.776 137.141 14.656C137.057 14.524 136.895 14.434 136.655 14.386L136.385 14.314V14.134L139.463 13.09L139.643 13.27L139.787 14.35C140.207 13.978 140.681 13.672 141.209 13.432C141.737 13.192 142.259 13.072 142.775 13.072C143.567 13.072 144.173 13.288 144.593 13.72C145.025 14.152 145.241 14.812 145.241 15.7V20.884C145.241 21.352 145.469 21.646 145.925 21.766L146.087 21.82V22H141.839V21.82L142.073 21.748C142.493 21.616 142.703 21.322 142.703 20.866V15.124C142.703 14.356 142.319 13.972 141.551 13.972C141.023 13.972 140.447 14.236 139.823 14.764V20.884C139.823 21.352 140.033 21.646 140.453 21.766L140.615 21.82V22H136.385ZM150.266 22.27C149.678 22.27 149.15 22.198 148.682 22.054C148.214 21.922 147.782 21.754 147.386 21.55L147.404 19.408H147.584L148.196 20.488C148.46 20.968 148.748 21.328 149.06 21.568C149.384 21.796 149.792 21.91 150.284 21.91C150.86 21.91 151.322 21.784 151.67 21.532C152.03 21.268 152.21 20.92 152.21 20.488C152.21 20.092 152.084 19.768 151.832 19.516C151.58 19.264 151.112 19.036 150.428 18.832L149.672 18.598C148.94 18.382 148.364 18.046 147.944 17.59C147.524 17.134 147.314 16.576 147.314 15.916C147.314 15.124 147.626 14.452 148.25 13.9C148.874 13.348 149.768 13.072 150.932 13.072C151.4 13.072 151.838 13.126 152.246 13.234C152.666 13.33 153.068 13.48 153.452 13.684L153.344 15.628H153.164L152.534 14.512C152.306 14.116 152.078 13.84 151.85 13.684C151.634 13.516 151.304 13.432 150.86 13.432C150.452 13.432 150.068 13.546 149.708 13.774C149.348 14.002 149.168 14.326 149.168 14.746C149.168 15.154 149.318 15.478 149.618 15.718C149.93 15.958 150.386 16.18 150.986 16.384L151.796 16.618C152.66 16.882 153.278 17.248 153.65 17.716C154.022 18.172 154.208 18.724 154.208 19.372C154.208 20.248 153.86 20.95 153.164 21.478C152.48 22.006 151.514 22.27 150.266 22.27ZM155.124 22V21.82L155.34 21.748C155.772 21.604 155.988 21.304 155.988 20.848V11.218C155.988 10.978 155.94 10.798 155.844 10.678C155.748 10.546 155.58 10.45 155.34 10.39L155.106 10.336V10.156L158.4 9.382L158.616 9.544L158.544 12.064V18.22C158.544 18.664 158.544 19.108 158.544 19.552C158.556 19.984 158.562 20.416 158.562 20.848C158.562 21.088 158.61 21.286 158.706 21.442C158.802 21.586 158.964 21.694 159.192 21.766L159.426 21.82V22H155.124ZM163.033 22.27C162.337 22.27 161.749 22.072 161.269 21.676C160.801 21.28 160.567 20.71 160.567 19.966C160.567 19.402 160.855 18.886 161.431 18.418C162.007 17.938 162.913 17.578 164.149 17.338C164.341 17.302 164.557 17.266 164.797 17.23C165.037 17.182 165.289 17.134 165.553 17.086V15.664C165.553 14.848 165.451 14.278 165.247 13.954C165.055 13.618 164.749 13.45 164.329 13.45C164.041 13.45 163.813 13.546 163.645 13.738C163.477 13.918 163.369 14.236 163.321 14.692L163.285 14.89C163.261 15.406 163.135 15.784 162.907 16.024C162.679 16.264 162.397 16.384 162.061 16.384C161.749 16.384 161.491 16.288 161.287 16.096C161.083 15.904 160.981 15.646 160.981 15.322C160.981 14.83 161.149 14.416 161.485 14.08C161.833 13.744 162.289 13.492 162.853 13.324C163.417 13.156 164.029 13.072 164.689 13.072C165.757 13.072 166.579 13.336 167.155 13.864C167.743 14.38 168.037 15.226 168.037 16.402V20.38C168.037 20.92 168.289 21.19 168.793 21.19H169.189L169.351 21.334C169.123 21.622 168.871 21.844 168.595 22C168.331 22.156 167.953 22.234 167.461 22.234C166.933 22.234 166.513 22.114 166.201 21.874C165.901 21.622 165.703 21.292 165.607 20.884C165.247 21.268 164.875 21.598 164.491 21.874C164.119 22.138 163.633 22.27 163.033 22.27ZM164.131 21.172C164.371 21.172 164.593 21.118 164.797 21.01C165.013 20.89 165.265 20.71 165.553 20.47V17.446C165.433 17.47 165.313 17.494 165.193 17.518C165.073 17.542 164.935 17.566 164.779 17.59C164.227 17.734 163.783 17.98 163.447 18.328C163.123 18.664 162.961 19.12 162.961 19.696C162.961 20.188 163.075 20.56 163.303 20.812C163.531 21.052 163.807 21.172 164.131 21.172ZM173.501 22.27C172.733 22.27 172.133 22.078 171.701 21.694C171.281 21.31 171.071 20.698 171.071 19.858V13.702H169.829V13.522L170.261 13.45C170.633 13.366 170.951 13.246 171.215 13.09C171.491 12.934 171.761 12.724 172.025 12.46L173.501 10.822H173.681L173.627 13.342H175.643V13.702H173.609V20.182C173.609 20.602 173.699 20.92 173.879 21.136C174.071 21.352 174.311 21.46 174.599 21.46C174.851 21.46 175.073 21.4 175.265 21.28C175.457 21.148 175.649 20.974 175.841 20.758L176.021 20.938C175.781 21.346 175.451 21.67 175.031 21.91C174.611 22.15 174.101 22.27 173.501 22.27ZM181.41 13.072C182.19 13.072 182.856 13.234 183.408 13.558C183.96 13.87 184.38 14.302 184.668 14.854C184.968 15.394 185.118 16.012 185.118 16.708C185.118 16.84 185.112 16.978 185.1 17.122C185.088 17.254 185.064 17.374 185.028 17.482H179.664C179.676 18.778 179.904 19.714 180.348 20.29C180.804 20.854 181.476 21.136 182.364 21.136C182.964 21.136 183.45 21.04 183.822 20.848C184.194 20.656 184.542 20.374 184.866 20.002L185.046 20.164C184.674 20.824 184.176 21.34 183.552 21.712C182.94 22.084 182.202 22.27 181.338 22.27C180.486 22.27 179.73 22.09 179.07 21.73C178.41 21.358 177.894 20.83 177.522 20.146C177.15 19.462 176.964 18.646 176.964 17.698C176.964 16.714 177.18 15.88 177.612 15.196C178.044 14.5 178.596 13.972 179.268 13.612C179.952 13.252 180.666 13.072 181.41 13.072ZM181.356 13.432C181.008 13.432 180.708 13.54 180.456 13.756C180.216 13.96 180.024 14.332 179.88 14.872C179.748 15.4 179.676 16.15 179.664 17.122H182.742C182.862 15.814 182.814 14.872 182.598 14.296C182.382 13.72 181.968 13.432 181.356 13.432Z" fill="#363246"/>
<mask id="mask0_3180_5173" style="mask-type:alpha" maskUnits="userSpaceOnUse" x="0" y="0" width="32" height="32">
<rect width="32" height="32" rx="16" fill="#D9D9D9"/>
</mask>
<g mask="url(#mask0_3180_5173)">
<path d="M-3.08496 -1.26758H34.5414V36.3588H-3.08496V-1.26758Z" fill="#ECEFF1"/>
<path d="M24.5284 19.75L25.6147 18.6682L21.5856 14.6557C22.086 14.0787 22.5304 13.4985 22.9188 12.915C23.3072 12.3315 23.6462 11.725 23.9359 11.0956H22.2176C21.9938 11.5283 21.7469 11.9381 21.477 12.3249C21.2071 12.7117 20.901 13.1084 20.5586 13.5149C19.9661 12.8986 19.4724 12.2593 19.0774 11.5972C18.6824 10.935 18.3466 10.2433 18.0701 9.52206H26.8984V7.94853H21.3684V6.375H19.7884V7.94853H14.2583V9.52206H16.4901C16.7798 10.4268 17.1649 11.3152 17.6455 12.1872C18.1261 13.0592 18.7153 13.8886 19.4131 14.6754L17.4776 16.6226L18.0701 18.2158L20.5784 15.8162L24.5284 19.75Z" fill="#A2A7AA"/>
<g filter="url(#filter0_d_3180_5173)">
<path d="M0 0H10.2699L25.5 32H0V0Z" fill="#4EB8BE"/>
</g>
<path d="M6.07227 24.4992V24.3242L6.43977 24.1842C6.8131 24.0326 6.99977 23.7351 6.99977 23.2917V14.1567C6.99977 13.6901 6.8131 13.3926 6.43977 13.2642L6.07227 13.1242V12.9492H10.6923C11.9289 12.9492 12.9906 13.1826 13.8773 13.6492C14.7756 14.1042 15.4639 14.7634 15.9423 15.6267C16.4323 16.4784 16.6773 17.5051 16.6773 18.7067C16.6773 19.9317 16.4148 20.9759 15.8898 21.8392C15.3648 22.7026 14.6298 23.3617 13.6848 23.8167C12.7514 24.2717 11.6489 24.4992 10.3773 24.4992H6.07227ZM9.62477 24.1492H10.3773C11.2173 24.1492 11.8939 23.9859 12.4073 23.6592C12.9206 23.3209 13.2939 22.7609 13.5273 21.9792C13.7723 21.1859 13.8948 20.1009 13.8948 18.7242C13.8948 17.3476 13.7723 16.2684 13.5273 15.4867C13.2939 14.6934 12.9264 14.1334 12.4248 13.8067C11.9231 13.4684 11.2639 13.2992 10.4473 13.2992H9.62477V24.1492Z" fill="#F9F9F9"/>
</g>
<defs>
<filter id="filter0_d_3180_5173" x="-63" y="-67" width="167.5" height="174" filterUnits="userSpaceOnUse" color-interpolation-filters="sRGB">
<feFlood flood-opacity="0" result="BackgroundImageFix"/>
<feColorMatrix in="SourceAlpha" type="matrix" values="0 0 0 0 0 0 0 0 0 0 0 0 0 0 0 0 0 0 127 0" result="hardAlpha"/>
<feOffset dx="8" dy="4"/>
<feGaussianBlur stdDeviation="35.5"/>
<feComposite in2="hardAlpha" operator="out"/>
<feColorMatrix type="matrix" values="0 0 0 0 0 0 0 0 0 0 0 0 0 0 0 0 0 0 0.2 0"/>
<feBlend mode="normal" in2="BackgroundImageFix" result="effect1_dropShadow_3180_5173"/>
<feBlend mode="normal" in="SourceGraphic" in2="effect1_dropShadow_3180_5173" result="shape"/>
</filter>
</defs>
</svg>
