<svg width="288" height="288" viewBox="0 0 288 288" fill="none" xmlns="http://www.w3.org/2000/svg">
<path d="M0 62C0 27.7584 27.7583 0 62 0H226C260.242 0 288 27.7583 288 62V226C288 260.242 260.242 288 226 288H62C27.7584 288 0 260.242 0 226V62Z" fill="#51C4E7"/>
<path d="M89.1559 91.4221L75.9999 91.4221V104.578H108.844L108.844 183.422H75.9999V196.578L89.1559 196.578V209.734L108.844 209.734L108.844 222.89H122L122 209.734L141.688 209.734V196.578L154.844 196.578V183.422H122L122 104.578H154.844V91.4221L141.688 91.4221L141.688 78.2661H122L122 65.1101H108.844L108.844 78.2661H89.1559L89.1559 91.4221Z" fill="white"/>
<path d="M203.768 106.232C202.791 105.256 201.209 105.256 200.232 106.232L184.322 122.142C183.346 123.118 183.346 124.701 184.322 125.678C185.299 126.654 186.882 126.654 187.858 125.678L202 111.536L216.142 125.678C217.118 126.654 218.701 126.654 219.678 125.678C220.654 124.701 220.654 123.118 219.678 122.142L203.768 106.232ZM204.5 180L204.5 108L199.5 108L199.5 180L204.5 180Z" fill="white"/>
</svg>
