<svg width="288" height="288" viewBox="0 0 288 288" fill="none" xmlns="http://www.w3.org/2000/svg">
<g clip-path="url(#clip0_2411_4874)">
<path d="M0 62C0 27.7584 27.7583 0 62 0H226C260.242 0 288 27.7583 288 62V226C288 260.242 260.242 288 226 288H62C27.7584 288 0 260.242 0 226V62Z" fill="#51C4E7"/>
<path d="M187.85 91.4221L174.694 91.4221V104.578H207.538V183.422L174.694 183.422L174.694 196.578L187.85 196.578L187.85 209.734H207.538L207.538 222.89H220.694L220.694 209.734H240.382L240.382 196.578L253.538 196.578L253.538 183.422L220.694 183.422V104.578H253.538V91.4221L240.382 91.4221L240.382 78.2661H220.694L220.694 65.1101H207.538L207.538 78.2661H187.85L187.85 91.4221Z" fill="white"/>
<path d="M47.734 91.4221L34.578 91.4221L34.578 104.578H67.422V183.422L34.578 183.422L34.578 196.578L47.734 196.578L47.734 209.734H67.422L67.422 222.89H80.578L80.578 209.734H100.266L100.266 196.578L113.422 196.578L113.422 183.422L80.578 183.422V104.578H113.422V91.4221L100.266 91.4221L100.266 78.2661H80.578L80.578 65.1101H67.422L67.422 78.2661H47.734L47.734 91.4221Z" fill="white"/>
<path d="M144.992 125.909L144.992 143.066L162.149 143.066L162.149 148.785L144.992 148.785L144.992 165.942L139.273 165.942L139.273 148.785L122.116 148.785L122.116 143.066L139.273 143.066L139.273 125.909L144.992 125.909Z" fill="white"/>
</g>
<defs>
<clipPath id="clip0_2411_4874">
<rect width="288" height="288" fill="white"/>
</clipPath>
</defs>
</svg>
