<svg width="50" height="50" viewBox="0 0 50 50" fill="none" xmlns="http://www.w3.org/2000/svg">
<mask id="mask0_3316_5429" style="mask-type:alpha" maskUnits="userSpaceOnUse" x="0" y="0" width="50" height="50">
<rect width="50" height="50" rx="25" fill="#D9D9D9"/>
</mask>
<g mask="url(#mask0_3316_5429)">
<path d="M0 2.98023e-06H50V50H0V2.98023e-06Z" fill="#ECEFF1"/>
<path d="M38.6475 40.4297L40.3595 38.7236L34.0094 32.3955C34.798 31.4855 35.4984 30.5704 36.1105 29.6502C36.7227 28.7299 37.2571 27.7734 37.7136 26.7808H35.0055C34.6527 27.4632 34.2636 28.1095 33.8382 28.7196C33.4128 29.3296 32.9303 29.9552 32.3907 30.5963C31.4569 29.6243 30.6787 28.6162 30.0562 27.5718C29.4336 26.5275 28.9044 25.4366 28.4686 24.2992H42.3828V21.8176H33.667V19.3359H31.1768V21.8176H22.4609V24.2992H25.9784C26.4349 25.7261 27.0419 27.1272 27.7994 28.5024C28.5568 29.8776 29.4855 31.1857 30.5853 32.4265L27.5348 35.4975L28.4686 38.0101L32.4219 34.2256L38.6475 40.4297Z" fill="#A2A7AA"/>
<path d="M0 2.98023e-06L35.1562 0L19.9707 50H0V2.98023e-06Z" fill="#4EB8BE"/>
<path d="M13.623 32.2266V31.7139L14.5996 31.5186C15.2832 31.3721 15.625 30.9733 15.625 30.3223V23.6572C15.625 22.5179 15.625 21.3786 15.625 20.2393C15.625 19.0999 15.6169 17.9606 15.6006 16.8213H13.6719C13.151 16.8213 12.7685 16.9596 12.5244 17.2363C12.2803 17.513 12.0361 17.9036 11.792 18.4082L10.9375 20.2148H10.2539L10.376 16.0889H24.3896L24.5117 20.2148H23.8281L22.9736 18.4082C22.7295 17.9036 22.4853 17.513 22.2412 17.2363C21.9971 16.9596 21.6146 16.8213 21.0937 16.8213H19.1406V30.3223C19.1406 30.9896 19.4824 31.3883 20.166 31.5186L21.167 31.7139V32.2266H13.623Z" fill="#F9F9F9"/>
</g>
</svg>
