<svg width="186" height="32" viewBox="0 0 186 32" fill="none" xmlns="http://www.w3.org/2000/svg">
<path d="M43.808 22V21.82L44.546 21.64C45.038 21.532 45.284 21.232 45.284 20.74V10.48H43.754C43.31 10.48 42.992 10.6 42.8 10.84C42.608 11.068 42.404 11.386 42.188 11.794L41.54 13.054H41.36L41.45 10.12H51.836L51.908 13.054H51.728L51.08 11.794C50.876 11.386 50.678 11.068 50.486 10.84C50.294 10.6 49.976 10.48 49.532 10.48H48.002V20.74C48.002 21.232 48.248 21.532 48.74 21.64L49.478 21.82V22H43.808ZM53.0592 22V21.82L53.2752 21.748C53.7072 21.604 53.9232 21.304 53.9232 20.848V11.236C53.9232 10.984 53.8812 10.798 53.7972 10.678C53.7132 10.558 53.5512 10.468 53.3112 10.408L53.0412 10.336V10.156L56.2092 9.382L56.4972 9.544L56.4252 12.082V14.332C56.8452 13.984 57.2952 13.69 57.7752 13.45C58.2672 13.198 58.8072 13.072 59.3952 13.072C60.1752 13.072 60.7932 13.294 61.2492 13.738C61.7172 14.182 61.9512 14.866 61.9512 15.79V20.866C61.9512 21.106 61.9992 21.298 62.0952 21.442C62.1912 21.586 62.3592 21.694 62.5992 21.766L62.7432 21.82V22H58.5312V21.82L58.7472 21.766C59.1792 21.622 59.3952 21.316 59.3952 20.848V15.196C59.3952 14.716 59.3112 14.386 59.1432 14.206C58.9872 14.026 58.7052 13.936 58.2972 13.936C58.0332 13.936 57.7452 13.99 57.4332 14.098C57.1212 14.194 56.8032 14.368 56.4792 14.62V20.884C56.4792 21.352 56.6952 21.652 57.1272 21.784L57.2712 21.82V22H53.0592ZM68.3246 13.072C69.1046 13.072 69.7706 13.234 70.3226 13.558C70.8746 13.87 71.2946 14.302 71.5826 14.854C71.8826 15.394 72.0326 16.012 72.0326 16.708C72.0326 16.84 72.0266 16.978 72.0146 17.122C72.0026 17.254 71.9786 17.374 71.9426 17.482H66.5786C66.5906 18.778 66.8186 19.714 67.2626 20.29C67.7186 20.854 68.3906 21.136 69.2786 21.136C69.8786 21.136 70.3646 21.04 70.7366 20.848C71.1086 20.656 71.4566 20.374 71.7806 20.002L71.9606 20.164C71.5886 20.824 71.0906 21.34 70.4666 21.712C69.8546 22.084 69.1166 22.27 68.2526 22.27C67.4006 22.27 66.6446 22.09 65.9846 21.73C65.3246 21.358 64.8086 20.83 64.4366 20.146C64.0646 19.462 63.8786 18.646 63.8786 17.698C63.8786 16.714 64.0946 15.88 64.5266 15.196C64.9586 14.5 65.5106 13.972 66.1826 13.612C66.8666 13.252 67.5806 13.072 68.3246 13.072ZM68.2706 13.432C67.9226 13.432 67.6226 13.54 67.3706 13.756C67.1306 13.96 66.9386 14.332 66.7946 14.872C66.6626 15.4 66.5906 16.15 66.5786 17.122H69.6566C69.7766 15.814 69.7286 14.872 69.5126 14.296C69.2966 13.72 68.8826 13.432 68.2706 13.432ZM74.8753 26.32C74.3953 26.32 74.0113 26.2 73.7233 25.96C73.4473 25.72 73.3093 25.414 73.3093 25.042C73.3093 24.706 73.4293 24.436 73.6693 24.232C73.9093 24.028 74.1793 23.926 74.4793 23.926C74.7793 23.926 75.0313 23.986 75.2353 24.106C75.4393 24.238 75.6193 24.424 75.7753 24.664L75.9013 24.808C76.1653 25.168 76.4293 25.162 76.6933 24.79C76.8013 24.61 76.9213 24.37 77.0533 24.07C77.1973 23.782 77.3593 23.392 77.5393 22.9L74.0473 14.548C73.9633 14.32 73.8733 14.14 73.7773 14.008C73.6813 13.864 73.5253 13.744 73.3093 13.648L72.9853 13.522V13.342H77.4673V13.504L77.1073 13.648C76.8433 13.732 76.7053 13.87 76.6933 14.062C76.6933 14.242 76.7413 14.47 76.8373 14.746L78.7093 19.606L80.4913 14.692C80.5873 14.416 80.6233 14.188 80.5993 14.008C80.5753 13.816 80.4253 13.684 80.1493 13.612L79.7713 13.522V13.342H82.2733V13.522L81.8773 13.648C81.6013 13.732 81.4093 13.852 81.3013 14.008C81.1933 14.164 81.0913 14.38 80.9953 14.656L78.0973 22.558C77.6293 23.818 77.1613 24.76 76.6933 25.384C76.2253 26.008 75.6193 26.32 74.8753 26.32ZM89.7994 22V21.82L90.5374 21.64C91.0294 21.532 91.2754 21.232 91.2754 20.74V10.48H89.7454C89.3014 10.48 88.9834 10.6 88.7914 10.84C88.5994 11.068 88.3954 11.386 88.1794 11.794L87.5314 13.054H87.3514L87.4414 10.12H97.8274L97.8994 13.054H97.7194L97.0714 11.794C96.8674 11.386 96.6694 11.068 96.4774 10.84C96.2854 10.6 95.9674 10.48 95.5234 10.48H93.9934V20.74C93.9934 21.232 94.2394 21.532 94.7314 21.64L95.4694 21.82V22H89.7994ZM98.3462 22V21.82L98.6162 21.748C98.8562 21.676 99.0182 21.568 99.1022 21.424C99.1982 21.28 99.2462 21.094 99.2462 20.866V15.232C99.2462 14.968 99.1982 14.776 99.1022 14.656C99.0182 14.524 98.8562 14.434 98.6162 14.386L98.3462 14.314V14.134L101.442 13.09L101.622 13.27L101.784 14.818V14.962C101.952 14.626 102.168 14.32 102.432 14.044C102.708 13.756 103.008 13.522 103.332 13.342C103.668 13.162 103.998 13.072 104.322 13.072C104.778 13.072 105.126 13.198 105.366 13.45C105.606 13.702 105.726 14.02 105.726 14.404C105.726 14.812 105.606 15.13 105.366 15.358C105.138 15.574 104.862 15.682 104.538 15.682C104.034 15.682 103.59 15.43 103.206 14.926L103.17 14.89C103.05 14.722 102.912 14.632 102.756 14.62C102.6 14.596 102.456 14.668 102.324 14.836C102.204 14.944 102.102 15.076 102.018 15.232C101.946 15.376 101.874 15.544 101.802 15.736V20.758C101.802 21.238 102.012 21.538 102.432 21.658L103.008 21.82V22H98.3462ZM108.893 22.27C108.197 22.27 107.609 22.072 107.129 21.676C106.661 21.28 106.427 20.71 106.427 19.966C106.427 19.402 106.715 18.886 107.291 18.418C107.867 17.938 108.773 17.578 110.009 17.338C110.201 17.302 110.417 17.266 110.657 17.23C110.897 17.182 111.149 17.134 111.413 17.086V15.664C111.413 14.848 111.311 14.278 111.107 13.954C110.915 13.618 110.609 13.45 110.189 13.45C109.901 13.45 109.673 13.546 109.505 13.738C109.337 13.918 109.229 14.236 109.181 14.692L109.145 14.89C109.121 15.406 108.995 15.784 108.767 16.024C108.539 16.264 108.257 16.384 107.921 16.384C107.609 16.384 107.351 16.288 107.147 16.096C106.943 15.904 106.841 15.646 106.841 15.322C106.841 14.83 107.009 14.416 107.345 14.08C107.693 13.744 108.149 13.492 108.713 13.324C109.277 13.156 109.889 13.072 110.549 13.072C111.617 13.072 112.439 13.336 113.015 13.864C113.603 14.38 113.897 15.226 113.897 16.402V20.38C113.897 20.92 114.149 21.19 114.653 21.19H115.049L115.211 21.334C114.983 21.622 114.731 21.844 114.455 22C114.191 22.156 113.813 22.234 113.321 22.234C112.793 22.234 112.373 22.114 112.061 21.874C111.761 21.622 111.563 21.292 111.467 20.884C111.107 21.268 110.735 21.598 110.351 21.874C109.979 22.138 109.493 22.27 108.893 22.27ZM109.991 21.172C110.231 21.172 110.453 21.118 110.657 21.01C110.873 20.89 111.125 20.71 111.413 20.47V17.446C111.293 17.47 111.173 17.494 111.053 17.518C110.933 17.542 110.795 17.566 110.639 17.59C110.087 17.734 109.643 17.98 109.307 18.328C108.983 18.664 108.821 19.12 108.821 19.696C108.821 20.188 108.935 20.56 109.163 20.812C109.391 21.052 109.667 21.172 109.991 21.172ZM115.906 22V21.82L116.158 21.748C116.578 21.628 116.788 21.334 116.788 20.866V15.232C116.788 14.968 116.746 14.776 116.662 14.656C116.578 14.524 116.416 14.434 116.176 14.386L115.906 14.314V14.134L118.984 13.09L119.164 13.27L119.308 14.35C119.728 13.978 120.202 13.672 120.73 13.432C121.258 13.192 121.78 13.072 122.296 13.072C123.088 13.072 123.694 13.288 124.114 13.72C124.546 14.152 124.762 14.812 124.762 15.7V20.884C124.762 21.352 124.99 21.646 125.446 21.766L125.608 21.82V22H121.36V21.82L121.594 21.748C122.014 21.616 122.224 21.322 122.224 20.866V15.124C122.224 14.356 121.84 13.972 121.072 13.972C120.544 13.972 119.968 14.236 119.344 14.764V20.884C119.344 21.352 119.554 21.646 119.974 21.766L120.136 21.82V22H115.906ZM129.786 22.27C129.198 22.27 128.67 22.198 128.202 22.054C127.734 21.922 127.302 21.754 126.906 21.55L126.924 19.408H127.104L127.716 20.488C127.98 20.968 128.268 21.328 128.58 21.568C128.904 21.796 129.312 21.91 129.804 21.91C130.38 21.91 130.842 21.784 131.19 21.532C131.55 21.268 131.73 20.92 131.73 20.488C131.73 20.092 131.604 19.768 131.352 19.516C131.1 19.264 130.632 19.036 129.948 18.832L129.192 18.598C128.46 18.382 127.884 18.046 127.464 17.59C127.044 17.134 126.834 16.576 126.834 15.916C126.834 15.124 127.146 14.452 127.77 13.9C128.394 13.348 129.288 13.072 130.452 13.072C130.92 13.072 131.358 13.126 131.766 13.234C132.186 13.33 132.588 13.48 132.972 13.684L132.864 15.628H132.684L132.054 14.512C131.826 14.116 131.598 13.84 131.37 13.684C131.154 13.516 130.824 13.432 130.38 13.432C129.972 13.432 129.588 13.546 129.228 13.774C128.868 14.002 128.688 14.326 128.688 14.746C128.688 15.154 128.838 15.478 129.138 15.718C129.45 15.958 129.906 16.18 130.506 16.384L131.316 16.618C132.18 16.882 132.798 17.248 133.17 17.716C133.542 18.172 133.728 18.724 133.728 19.372C133.728 20.248 133.38 20.95 132.684 21.478C132 22.006 131.034 22.27 129.786 22.27ZM134.645 22V21.82L134.861 21.748C135.293 21.604 135.509 21.304 135.509 20.848V11.218C135.509 10.978 135.461 10.798 135.365 10.678C135.269 10.546 135.101 10.45 134.861 10.39L134.627 10.336V10.156L137.921 9.382L138.137 9.544L138.065 12.064V18.22C138.065 18.664 138.065 19.108 138.065 19.552C138.077 19.984 138.083 20.416 138.083 20.848C138.083 21.088 138.131 21.286 138.227 21.442C138.323 21.586 138.485 21.694 138.713 21.766L138.947 21.82V22H134.645ZM142.553 22.27C141.857 22.27 141.269 22.072 140.789 21.676C140.321 21.28 140.087 20.71 140.087 19.966C140.087 19.402 140.375 18.886 140.951 18.418C141.527 17.938 142.433 17.578 143.669 17.338C143.861 17.302 144.077 17.266 144.317 17.23C144.557 17.182 144.809 17.134 145.073 17.086V15.664C145.073 14.848 144.971 14.278 144.767 13.954C144.575 13.618 144.269 13.45 143.849 13.45C143.561 13.45 143.333 13.546 143.165 13.738C142.997 13.918 142.889 14.236 142.841 14.692L142.805 14.89C142.781 15.406 142.655 15.784 142.427 16.024C142.199 16.264 141.917 16.384 141.581 16.384C141.269 16.384 141.011 16.288 140.807 16.096C140.603 15.904 140.501 15.646 140.501 15.322C140.501 14.83 140.669 14.416 141.005 14.08C141.353 13.744 141.809 13.492 142.373 13.324C142.937 13.156 143.549 13.072 144.209 13.072C145.277 13.072 146.099 13.336 146.675 13.864C147.263 14.38 147.557 15.226 147.557 16.402V20.38C147.557 20.92 147.809 21.19 148.313 21.19H148.709L148.871 21.334C148.643 21.622 148.391 21.844 148.115 22C147.851 22.156 147.473 22.234 146.981 22.234C146.453 22.234 146.033 22.114 145.721 21.874C145.421 21.622 145.223 21.292 145.127 20.884C144.767 21.268 144.395 21.598 144.011 21.874C143.639 22.138 143.153 22.27 142.553 22.27ZM143.651 21.172C143.891 21.172 144.113 21.118 144.317 21.01C144.533 20.89 144.785 20.71 145.073 20.47V17.446C144.953 17.47 144.833 17.494 144.713 17.518C144.593 17.542 144.455 17.566 144.299 17.59C143.747 17.734 143.303 17.98 142.967 18.328C142.643 18.664 142.481 19.12 142.481 19.696C142.481 20.188 142.595 20.56 142.823 20.812C143.051 21.052 143.327 21.172 143.651 21.172ZM153.022 22.27C152.254 22.27 151.654 22.078 151.222 21.694C150.802 21.31 150.592 20.698 150.592 19.858V13.702H149.35V13.522L149.782 13.45C150.154 13.366 150.472 13.246 150.736 13.09C151.012 12.934 151.282 12.724 151.546 12.46L153.022 10.822H153.202L153.148 13.342H155.164V13.702H153.13V20.182C153.13 20.602 153.22 20.92 153.4 21.136C153.592 21.352 153.832 21.46 154.12 21.46C154.372 21.46 154.594 21.4 154.786 21.28C154.978 21.148 155.17 20.974 155.362 20.758L155.542 20.938C155.302 21.346 154.972 21.67 154.552 21.91C154.132 22.15 153.622 22.27 153.022 22.27ZM160.931 13.072C161.711 13.072 162.377 13.234 162.929 13.558C163.481 13.87 163.901 14.302 164.189 14.854C164.489 15.394 164.639 16.012 164.639 16.708C164.639 16.84 164.633 16.978 164.621 17.122C164.609 17.254 164.585 17.374 164.549 17.482H159.185C159.197 18.778 159.425 19.714 159.869 20.29C160.325 20.854 160.997 21.136 161.885 21.136C162.485 21.136 162.971 21.04 163.343 20.848C163.715 20.656 164.063 20.374 164.387 20.002L164.567 20.164C164.195 20.824 163.697 21.34 163.073 21.712C162.461 22.084 161.723 22.27 160.859 22.27C160.007 22.27 159.251 22.09 158.591 21.73C157.931 21.358 157.415 20.83 157.043 20.146C156.671 19.462 156.485 18.646 156.485 17.698C156.485 16.714 156.701 15.88 157.133 15.196C157.565 14.5 158.117 13.972 158.789 13.612C159.473 13.252 160.187 13.072 160.931 13.072ZM160.877 13.432C160.529 13.432 160.229 13.54 159.977 13.756C159.737 13.96 159.545 14.332 159.401 14.872C159.269 15.4 159.197 16.15 159.185 17.122H162.263C162.383 15.814 162.335 14.872 162.119 14.296C161.903 13.72 161.489 13.432 160.877 13.432Z" fill="#363246"/>
<mask id="mask0_3180_5173" style="mask-type:alpha" maskUnits="userSpaceOnUse" x="0" y="0" width="32" height="32">
<rect width="32" height="32" rx="16" fill="#D9D9D9"/>
</mask>
<g mask="url(#mask0_3180_5173)">
<path d="M0 1.90735e-06H32V32H0V1.90735e-06Z" fill="#ECEFF1"/>
<path d="M24.7344 25.875L25.8301 24.7831L21.766 20.7331C22.2707 20.1507 22.7189 19.5651 23.1107 18.9761C23.5025 18.3871 23.8445 17.775 24.1367 17.1397H22.4035C22.1777 17.5765 21.9287 17.9901 21.6564 18.3805C21.3842 18.771 21.0754 19.1713 20.7301 19.5816C20.1324 18.9596 19.6344 18.3143 19.2359 17.646C18.8375 16.9776 18.4988 16.2794 18.2199 15.5515H27.125V13.9632H21.5469V12.375H19.9531V13.9632H14.375V15.5515H16.6262C16.9184 16.4647 17.3068 17.3614 17.7916 18.2415C18.2764 19.1217 18.8707 19.9588 19.5746 20.7529L17.6223 22.7184L18.2199 24.3265L20.75 21.9044L24.7344 25.875Z" fill="#A2A7AA"/>
<path d="M0 1.90735e-06L22.5 0L12.7812 32H0V1.90735e-06Z" fill="#4EB8BE"/>
<path d="M8.71874 20.625V20.2969L9.34374 20.1719C9.78124 20.0781 9.99999 19.8229 9.99999 19.4062V15.1406C9.99999 14.4115 9.99999 13.6823 9.99999 12.9531C9.99999 12.224 9.99478 11.4948 9.98437 10.7656H8.74999C8.41666 10.7656 8.17187 10.8542 8.01562 11.0312C7.85937 11.2083 7.70312 11.4583 7.54687 11.7812L6.99999 12.9375H6.56249L6.64062 10.2969H15.6094L15.6875 12.9375H15.25L14.7031 11.7812C14.5469 11.4583 14.3906 11.2083 14.2344 11.0312C14.0781 10.8542 13.8333 10.7656 13.5 10.7656H12.25V19.4062C12.25 19.8333 12.4687 20.0885 12.9062 20.1719L13.5469 20.2969V20.625H8.71874Z" fill="#F9F9F9"/>
</g>
</svg>
