<svg width="744" height="744" viewBox="0 0 744 744" fill="none" xmlns="http://www.w3.org/2000/svg">
<rect width="744" height="744" fill="#4EB8BE"/>
<path d="M526.159 287.902C501.165 264.044 473.827 245.014 444.146 230.813C414.465 216.611 382.583 209.511 348.5 209.511C337.991 209.511 327.908 210.15 318.251 211.428C308.594 212.706 300.499 214.481 293.967 216.753L262.866 185.652C275.363 181.108 288.925 177.557 303.553 175.001C318.18 172.445 333.162 171.167 348.5 171.167C388.264 171.167 425.685 179.404 460.762 195.877C495.839 212.351 526.585 234.079 553 261.062L526.159 287.902ZM454.158 359.903C444.785 350.814 436.265 343.501 428.596 337.962C420.927 332.424 411.128 326.956 399.199 321.56L351.056 273.417C378.039 273.985 401.826 279.523 422.418 290.032C443.01 300.541 462.537 314.885 480.999 333.063L454.158 359.903ZM486.964 482.603L319.103 314.743C303.766 318.435 289.635 324.4 276.712 332.637C263.789 340.873 252.499 349.962 242.842 359.903L216.001 333.063C226.51 322.554 237.374 313.323 248.593 305.37C259.812 297.417 273.233 290.316 288.854 284.068L241.564 236.777C228.214 243.31 215.575 251.05 203.646 259.996C191.717 268.943 180.782 278.245 170.841 287.902L144 261.062C154.225 250.553 165.16 240.754 176.805 231.665C188.45 222.576 200.38 214.765 212.593 208.232L173.397 169.037L191.717 150.717L505.283 464.284L486.964 482.603ZM348.5 465.562L285.446 402.081C293.683 393.845 303.127 387.383 313.778 382.697C324.429 378.01 336.003 375.667 348.5 375.667C360.997 375.667 372.571 378.01 383.222 382.697C393.873 387.383 403.317 393.845 411.554 402.081L348.5 465.562Z" fill="white"/>
<path d="M568.633 313.929C561.404 305.977 549.114 305.977 540.439 313.206C531.764 321.158 531.042 334.893 538.994 342.845C559.958 363.81 575.139 389.835 584.537 418.029C572.971 406.462 557.789 398.51 540.439 396.341C515.137 392.727 487.667 399.233 471.039 414.414C459.473 424.535 463.087 444.054 477.546 449.114C485.498 452.006 494.173 450.56 499.956 445.5C508.631 438.27 523.812 436.825 536.102 438.993C552.729 442.608 565.741 457.066 565.741 475.862C565.741 499.718 544.054 517.791 519.475 512.731C504.294 509.839 487.667 494.658 486.221 476.585C485.498 466.464 479.714 458.512 468.871 455.62C457.304 452.729 444.292 461.404 444.292 474.416C444.292 525.743 486.221 586.468 552.006 577.07C607.671 569.118 625.744 553.937 633.696 483.814C638.033 432.487 616.346 363.81 568.633 313.929Z" fill="#FFCEBF"/>
<path d="M541.162 338.508C549.115 331.279 561.404 332.002 569.356 339.231C607.671 378.268 629.358 430.318 634.419 475.862C635.865 425.258 614.177 360.918 568.633 313.929C561.404 305.977 549.115 305.977 540.44 313.206C531.765 320.435 531.042 333.448 538.271 342.123C538.994 340.677 540.44 339.231 541.162 338.508Z" fill="#FFDCD1"/>
<path d="M541.162 396.341C557.789 398.51 572.971 406.462 584.537 418.029C576.585 392.727 563.573 370.316 546.223 350.798C539.716 343.568 528.15 343.568 521.644 351.521C517.306 357.304 517.306 365.979 522.366 371.039C529.596 378.991 536.102 387.666 541.162 396.341Z" fill="#FFCEBF"/>
<path d="M520.921 353.689C526.704 352.243 532.488 353.689 536.825 358.75C549.115 372.485 559.235 387.666 566.465 404.293C572.971 407.908 579.477 412.246 585.26 418.029C577.308 392.727 564.296 370.316 546.946 350.798C540.44 343.568 528.873 343.568 522.367 351.521C521.644 352.243 520.921 352.966 520.921 353.689Z" fill="#FFB59E"/>
<path d="M541.162 396.341C557.789 398.51 572.971 406.462 584.537 418.029C576.585 392.727 563.573 370.316 546.223 350.798C539.716 343.568 528.15 343.568 521.644 351.521C517.306 357.304 517.306 365.979 522.366 371.039C529.596 378.991 536.102 387.666 541.162 396.341Z" stroke="#45413C" stroke-width="14" stroke-miterlimit="10" stroke-linecap="round" stroke-linejoin="round"/>
<path d="M541.162 422.367C557.789 424.536 593.935 439.717 605.502 450.561C601.164 438.271 593.935 426.704 584.537 418.029C572.971 406.463 557.789 398.511 540.439 396.342C515.137 392.727 487.667 399.233 471.039 414.415C462.364 422.367 462.364 434.656 468.148 442.608C485.498 425.258 514.414 418.029 541.162 422.367Z" fill="#FFDCD1"/>
<path d="M584.537 418.029C599.718 432.488 609.116 453.452 609.116 475.863" stroke="#45413C" stroke-width="14" stroke-miterlimit="10" stroke-linecap="round" stroke-linejoin="round"/>
<path d="M568.633 313.929C561.404 305.977 549.114 305.977 540.439 313.206C531.764 321.158 531.042 334.893 538.994 342.845C559.958 363.81 575.139 389.835 584.537 418.029C572.971 406.462 557.789 398.51 540.439 396.341C515.137 392.727 487.667 399.233 471.039 414.414C459.473 424.535 463.087 444.054 477.546 449.114C485.498 452.006 494.173 450.56 499.956 445.5C508.631 438.27 523.812 436.825 536.102 438.993C552.729 442.608 565.741 457.066 565.741 475.862C565.741 499.718 544.054 517.791 519.475 512.731C504.294 509.839 487.667 494.658 486.221 476.585C485.498 466.464 479.714 458.512 468.871 455.62C457.304 452.729 444.292 461.404 444.292 474.416C444.292 525.743 486.221 586.468 552.006 577.07C607.671 569.118 625.744 553.937 633.696 483.814C638.033 432.487 616.346 363.81 568.633 313.929Z" stroke="#45413C" stroke-width="14" stroke-miterlimit="10" stroke-linecap="round" stroke-linejoin="round"/>
</svg>
