<svg width="336" height="336" viewBox="0 0 336 336" fill="none" xmlns="http://www.w3.org/2000/svg">
<path d="M261 0H75C33.5786 0 0 33.5786 0 75V261C0 302.421 33.5786 336 75 336H261C302.421 336 336 302.421 336 261V75C336 33.5786 302.421 0 261 0Z" fill="#263238"/>
<path d="M253.375 184.046C253.375 231.373 214.874 269.835 167.5 269.835C120.126 269.835 81.625 231.373 81.625 184.046C81.625 136.719 120.126 98.2567 167.5 98.2567V128.385L239.063 83.9585L167.5 38V69.6603C104.239 69.6603 53 120.848 53 184.046C53 247.244 104.239 298.431 167.5 298.431C230.761 298.431 282 247.244 282 184.046H253.375Z" fill="#FF8F00"/>
<path d="M105.115 180.602L120.607 186.531V192.086L100.85 183.367V179.688L105.115 180.602ZM120.607 175.75L105.115 181.773L100.85 182.594V178.914L120.607 170.219V175.75ZM153.679 176.078V181.656C153.679 184.328 153.413 186.609 152.882 188.5C152.366 190.375 151.616 191.898 150.632 193.07C149.647 194.242 148.468 195.102 147.093 195.648C145.733 196.195 144.21 196.469 142.522 196.469C141.179 196.469 139.929 196.297 138.772 195.953C137.632 195.609 136.601 195.07 135.679 194.336C134.757 193.602 133.968 192.656 133.312 191.5C132.671 190.328 132.171 188.93 131.812 187.305C131.468 185.68 131.296 183.797 131.296 181.656V176.078C131.296 173.391 131.562 171.125 132.093 169.281C132.624 167.422 133.382 165.914 134.366 164.758C135.351 163.586 136.522 162.734 137.882 162.203C139.257 161.672 140.788 161.406 142.476 161.406C143.835 161.406 145.085 161.578 146.226 161.922C147.382 162.25 148.413 162.773 149.319 163.492C150.241 164.211 151.022 165.148 151.663 166.305C152.319 167.445 152.819 168.828 153.163 170.453C153.507 172.062 153.679 173.938 153.679 176.078ZM148.03 182.453V175.234C148.03 173.875 147.952 172.68 147.796 171.648C147.64 170.602 147.405 169.719 147.093 169C146.796 168.266 146.421 167.672 145.968 167.219C145.515 166.75 144.999 166.414 144.421 166.211C143.843 165.992 143.194 165.883 142.476 165.883C141.601 165.883 140.819 166.055 140.132 166.398C139.444 166.727 138.866 167.258 138.397 167.992C137.929 168.727 137.569 169.695 137.319 170.898C137.085 172.086 136.968 173.531 136.968 175.234V182.453C136.968 183.828 137.046 185.039 137.202 186.086C137.358 187.133 137.593 188.031 137.905 188.781C138.218 189.516 138.593 190.125 139.03 190.609C139.483 191.078 139.999 191.422 140.577 191.641C141.171 191.859 141.819 191.969 142.522 191.969C143.413 191.969 144.202 191.797 144.89 191.453C145.577 191.109 146.155 190.562 146.624 189.812C147.093 189.047 147.444 188.055 147.679 186.836C147.913 185.617 148.03 184.156 148.03 182.453ZM164.32 193.188C164.32 192.312 164.617 191.578 165.211 190.984C165.805 190.375 166.609 190.07 167.625 190.07C168.656 190.07 169.461 190.375 170.039 190.984C170.633 191.578 170.93 192.312 170.93 193.188C170.93 194.062 170.633 194.797 170.039 195.391C169.461 195.984 168.656 196.281 167.625 196.281C166.609 196.281 165.805 195.984 165.211 195.391C164.617 194.797 164.32 194.062 164.32 193.188ZM188.087 180.133L183.587 179.031L185.438 161.875H203.837V166.656H190.126L189.188 175.023C189.72 174.711 190.454 174.406 191.392 174.109C192.329 173.797 193.399 173.641 194.603 173.641C196.212 173.641 197.649 173.906 198.915 174.438C200.196 174.953 201.282 175.711 202.173 176.711C203.063 177.695 203.743 178.898 204.212 180.32C204.681 181.727 204.915 183.312 204.915 185.078C204.915 186.656 204.681 188.133 204.212 189.508C203.759 190.883 203.071 192.094 202.149 193.141C201.228 194.188 200.063 195.008 198.657 195.602C197.267 196.18 195.618 196.469 193.712 196.469C192.29 196.469 190.923 196.266 189.61 195.859C188.313 195.438 187.149 194.82 186.118 194.008C185.087 193.18 184.259 192.164 183.634 190.961C183.009 189.742 182.649 188.344 182.556 186.766H188.087C188.228 187.875 188.532 188.82 189.001 189.602C189.485 190.367 190.126 190.953 190.923 191.359C191.72 191.766 192.642 191.969 193.688 191.969C194.642 191.969 195.462 191.805 196.149 191.477C196.837 191.133 197.407 190.648 197.86 190.023C198.329 189.383 198.673 188.633 198.892 187.773C199.126 186.914 199.243 185.961 199.243 184.914C199.243 183.914 199.11 183 198.845 182.172C198.595 181.344 198.212 180.625 197.696 180.016C197.196 179.406 196.563 178.938 195.798 178.609C195.032 178.266 194.149 178.094 193.149 178.094C191.806 178.094 190.774 178.289 190.056 178.68C189.353 179.07 188.696 179.555 188.087 180.133ZM229.033 189.133C229.033 188.57 228.893 188.062 228.611 187.609C228.33 187.141 227.791 186.719 226.994 186.344C226.213 185.969 225.057 185.625 223.525 185.312C222.182 185.016 220.947 184.664 219.822 184.258C218.713 183.836 217.76 183.328 216.963 182.734C216.166 182.141 215.549 181.438 215.111 180.625C214.674 179.812 214.455 178.875 214.455 177.812C214.455 176.781 214.682 175.805 215.135 174.883C215.588 173.961 216.236 173.148 217.08 172.445C217.924 171.742 218.947 171.188 220.15 170.781C221.369 170.375 222.728 170.172 224.228 170.172C226.353 170.172 228.174 170.531 229.689 171.25C231.221 171.953 232.393 172.914 233.205 174.133C234.018 175.336 234.424 176.695 234.424 178.211H228.775C228.775 177.539 228.603 176.914 228.26 176.336C227.932 175.742 227.432 175.266 226.76 174.906C226.088 174.531 225.244 174.344 224.228 174.344C223.26 174.344 222.455 174.5 221.814 174.812C221.189 175.109 220.721 175.5 220.408 175.984C220.111 176.469 219.963 177 219.963 177.578C219.963 178 220.041 178.383 220.197 178.727C220.369 179.055 220.65 179.359 221.041 179.641C221.432 179.906 221.963 180.156 222.635 180.391C223.322 180.625 224.182 180.852 225.213 181.07C227.15 181.477 228.814 182 230.205 182.641C231.611 183.266 232.689 184.078 233.439 185.078C234.189 186.062 234.564 187.312 234.564 188.828C234.564 189.953 234.322 190.984 233.838 191.922C233.369 192.844 232.682 193.648 231.775 194.336C230.869 195.008 229.783 195.531 228.518 195.906C227.268 196.281 225.861 196.469 224.299 196.469C222.002 196.469 220.057 196.062 218.463 195.25C216.869 194.422 215.658 193.367 214.83 192.086C214.018 190.789 213.611 189.445 213.611 188.055H219.072C219.135 189.102 219.424 189.938 219.939 190.562C220.471 191.172 221.127 191.617 221.908 191.898C222.705 192.164 223.525 192.297 224.369 192.297C225.385 192.297 226.236 192.164 226.924 191.898C227.611 191.617 228.135 191.242 228.494 190.773C228.853 190.289 229.033 189.742 229.033 189.133Z" fill="#FF8F00"/>
</svg>
