<svg width="50" height="50" viewBox="0 0 50 50" fill="none" xmlns="http://www.w3.org/2000/svg">
<mask id="mask0_2403_5120" style="mask-type:alpha" maskUnits="userSpaceOnUse" x="0" y="0" width="50" height="50">
<rect width="50" height="50" rx="25" fill="#C4C4C4"/>
</mask>
<g mask="url(#mask0_2403_5120)">
<rect width="50" height="50" fill="#C56000"/>
<circle cx="24.9512" cy="-28.1738" r="56.1035" fill="#FF8F00"/>
<path d="M30.4206 13.92C30.1323 13.9505 29.8446 14.0974 29.6486 14.3396L27.7607 16.6727L32.5416 20.5414L34.4295 18.2083C34.8318 17.7111 34.7552 16.9845 34.258 16.5822L31.2747 14.1681C31.0198 13.9618 30.7205 13.8884 30.4206 13.92ZM26.6569 18.0368L16.6629 30.3873C16.6629 30.3873 15.8379 31.4206 15.5946 32.2654C15.3596 33.0814 15.4749 34.2996 15.4749 34.2996L15.703 36.462L17.8654 36.234C17.8654 36.234 19.0554 36.0477 19.8055 35.6497C20.5926 35.2321 21.4631 34.2321 21.4631 34.2321L31.4377 21.9055L26.6569 18.0368Z" fill="white"/>
</g>
</svg>
