<svg width="210" height="32" viewBox="0 0 210 32" fill="none" xmlns="http://www.w3.org/2000/svg">
<mask id="mask0_2403_5136" style="mask-type:alpha" maskUnits="userSpaceOnUse" x="0" y="0" width="32" height="32">
<rect width="32" height="32" rx="16" fill="#C4C4C4"/>
</mask>
<g mask="url(#mask0_2403_5136)">
<rect width="32" height="32" fill="#C56000"/>
<circle cx="15.9688" cy="-18.0312" r="35.9062" fill="#FF8F00"/>
<path d="M19.4694 8.90863C19.2849 8.9281 19.1007 9.02214 18.9753 9.17717L17.767 10.6703L20.8268 13.1463L22.0351 11.6531C22.2926 11.3349 22.2435 10.8699 21.9253 10.6124L20.016 9.06741C19.8528 8.93536 19.6613 8.8884 19.4694 8.90863ZM17.0606 11.5434L10.6644 19.4477C10.6644 19.4477 10.1365 20.109 9.98074 20.6497C9.83032 21.1719 9.90413 21.9516 9.90413 21.9516L10.0501 23.3355L11.434 23.1895C11.434 23.1895 12.1956 23.0703 12.6757 22.8156C13.1795 22.5483 13.7365 21.9084 13.7365 21.9084L20.1203 14.0193L17.0606 11.5434Z" fill="white"/>
</g>
<path d="M54.0521 10.3636V22H51.9271L46.8646 14.6761H46.7794V22H44.3192V10.3636H46.4783L51.501 17.6818H51.6033V10.3636H54.0521ZM60.7825 22.1705C59.9 22.1705 59.1367 21.983 58.4928 21.608C57.8526 21.2292 57.3583 20.7027 57.0098 20.0284C56.6613 19.3504 56.4871 18.5644 56.4871 17.6705C56.4871 16.7689 56.6613 15.9811 57.0098 15.3068C57.3583 14.6288 57.8526 14.1023 58.4928 13.7273C59.1367 13.3485 59.9 13.1591 60.7825 13.1591C61.6651 13.1591 62.4265 13.3485 63.0666 13.7273C63.7106 14.1023 64.2068 14.6288 64.5553 15.3068C64.9037 15.9811 65.078 16.7689 65.078 17.6705C65.078 18.5644 64.9037 19.3504 64.5553 20.0284C64.2068 20.7027 63.7106 21.2292 63.0666 21.608C62.4265 21.983 61.6651 22.1705 60.7825 22.1705ZM60.7939 20.2955C61.1954 20.2955 61.5306 20.1818 61.7996 19.9545C62.0685 19.7235 62.2712 19.4091 62.4075 19.0114C62.5477 18.6136 62.6178 18.161 62.6178 17.6534C62.6178 17.1458 62.5477 16.6932 62.4075 16.2955C62.2712 15.8977 62.0685 15.5833 61.7996 15.3523C61.5306 15.1212 61.1954 15.0057 60.7939 15.0057C60.3886 15.0057 60.0477 15.1212 59.7712 15.3523C59.4984 15.5833 59.292 15.8977 59.1518 16.2955C59.0155 16.6932 58.9473 17.1458 58.9473 17.6534C58.9473 18.161 59.0155 18.6136 59.1518 19.0114C59.292 19.4091 59.4984 19.7235 59.7712 19.9545C60.0477 20.1818 60.3886 20.2955 60.7939 20.2955ZM72.0939 13.2727V15.0909H66.8382V13.2727H72.0939ZM68.0314 11.1818H70.4519V19.3182C70.4519 19.5417 70.4859 19.7159 70.5541 19.8409C70.6223 19.9621 70.717 20.0473 70.8382 20.0966C70.9632 20.1458 71.1072 20.1705 71.27 20.1705C71.3837 20.1705 71.4973 20.161 71.6109 20.142C71.7246 20.1193 71.8117 20.1023 71.8723 20.0909L72.253 21.892C72.1318 21.9299 71.9613 21.9735 71.7416 22.0227C71.5219 22.0758 71.2549 22.108 70.9405 22.1193C70.3572 22.142 69.8458 22.0644 69.4064 21.8864C68.9708 21.7083 68.6318 21.4318 68.3894 21.0568C68.1469 20.6818 68.0276 20.2083 68.0314 19.6364V11.1818ZM78.3541 22.1705C77.4564 22.1705 76.6837 21.9886 76.0359 21.625C75.392 21.2576 74.8958 20.7386 74.5473 20.0682C74.1988 19.3939 74.0246 18.5966 74.0246 17.6761C74.0246 16.7784 74.1988 15.9905 74.5473 15.3125C74.8958 14.6345 75.3863 14.1061 76.0189 13.7273C76.6553 13.3485 77.4015 13.1591 78.2575 13.1591C78.8333 13.1591 79.3693 13.2519 79.8655 13.4375C80.3655 13.6193 80.8011 13.8939 81.1723 14.2614C81.5473 14.6288 81.839 15.0909 82.0473 15.6477C82.2556 16.2008 82.3598 16.8485 82.3598 17.5909V18.2557H74.9905V16.7557H80.0814C80.0814 16.4072 80.0056 16.0985 79.8541 15.8295C79.7026 15.5606 79.4924 15.3504 79.2234 15.1989C78.9583 15.0436 78.6496 14.9659 78.2973 14.9659C77.9299 14.9659 77.6041 15.0511 77.32 15.2216C77.0397 15.3883 76.82 15.6136 76.6609 15.8977C76.5018 16.178 76.4204 16.4905 76.4166 16.8352V18.2614C76.4166 18.6932 76.4962 19.0663 76.6553 19.3807C76.8181 19.6951 77.0473 19.9375 77.3428 20.108C77.6382 20.2784 77.9886 20.3636 78.3939 20.3636C78.6628 20.3636 78.909 20.3258 79.1325 20.25C79.356 20.1742 79.5473 20.0606 79.7064 19.9091C79.8655 19.7576 79.9867 19.572 80.07 19.3523L82.3087 19.5C82.195 20.0379 81.9621 20.5076 81.6098 20.9091C81.2613 21.3068 80.8106 21.6174 80.2575 21.8409C79.7083 22.0606 79.0738 22.1705 78.3541 22.1705ZM92.0007 15.7614L89.7848 15.8977C89.7469 15.7083 89.6655 15.5379 89.5405 15.3864C89.4155 15.2311 89.2507 15.108 89.0462 15.017C88.8454 14.9223 88.6049 14.875 88.3246 14.875C87.9496 14.875 87.6333 14.9545 87.3757 15.1136C87.1181 15.2689 86.9894 15.4773 86.9894 15.7386C86.9894 15.947 87.0727 16.1231 87.2394 16.267C87.406 16.411 87.692 16.5265 88.0973 16.6136L89.6769 16.9318C90.5253 17.1061 91.1579 17.3864 91.5746 17.7727C91.9912 18.1591 92.1996 18.6667 92.1996 19.2955C92.1996 19.8674 92.031 20.3693 91.6939 20.8011C91.3606 21.233 90.9022 21.5701 90.3189 21.8125C89.7394 22.0511 89.0708 22.1705 88.3132 22.1705C87.1579 22.1705 86.2375 21.9299 85.5519 21.4489C84.87 20.964 84.4704 20.3049 84.353 19.4716L86.7337 19.3466C86.8056 19.6989 86.9799 19.9678 87.2564 20.1534C87.5329 20.3352 87.8871 20.4261 88.3189 20.4261C88.7431 20.4261 89.084 20.3447 89.3416 20.1818C89.603 20.0152 89.7356 19.8011 89.7394 19.5398C89.7356 19.3201 89.6428 19.1402 89.4609 19C89.2791 18.8561 88.9988 18.7462 88.62 18.6705L87.1087 18.3693C86.2564 18.1989 85.6219 17.9034 85.2053 17.483C84.7924 17.0625 84.5859 16.5265 84.5859 15.875C84.5859 15.3144 84.7375 14.8314 85.0405 14.4261C85.3473 14.0208 85.7772 13.7083 86.3303 13.4886C86.8871 13.2689 87.5386 13.1591 88.2848 13.1591C89.3871 13.1591 90.2545 13.392 90.8871 13.858C91.5234 14.3239 91.8947 14.9583 92.0007 15.7614ZM102.04 6.61364V25.75H100.903V6.61364H102.04ZM110.965 11.6136V10.3636H119.692V11.6136H116.033V22H114.624V11.6136H110.965ZM123.866 22.2045C123.313 22.2045 122.811 22.1004 122.36 21.892C121.909 21.6799 121.551 21.375 121.286 20.9773C121.021 20.5758 120.888 20.0909 120.888 19.5227C120.888 19.0227 120.987 18.6174 121.184 18.3068C121.381 17.9924 121.644 17.7462 121.974 17.5682C122.303 17.3902 122.667 17.2576 123.065 17.1705C123.466 17.0795 123.87 17.0076 124.275 16.9545C124.805 16.8864 125.235 16.8352 125.565 16.8011C125.898 16.7633 126.14 16.7008 126.292 16.6136C126.447 16.5265 126.525 16.375 126.525 16.1591V16.1136C126.525 15.553 126.371 15.1174 126.065 14.8068C125.762 14.4962 125.301 14.3409 124.684 14.3409C124.044 14.3409 123.542 14.4811 123.178 14.7614C122.815 15.0417 122.559 15.3409 122.411 15.6591L121.138 15.2045C121.366 14.6742 121.669 14.2614 122.048 13.9659C122.43 13.6667 122.847 13.4583 123.298 13.3409C123.752 13.2197 124.199 13.1591 124.638 13.1591C124.919 13.1591 125.241 13.1932 125.604 13.2614C125.972 13.3258 126.326 13.4602 126.667 13.6648C127.012 13.8693 127.298 14.178 127.525 14.5909C127.752 15.0038 127.866 15.5568 127.866 16.25V22H126.525V20.8182H126.457C126.366 21.0076 126.214 21.2102 126.002 21.4261C125.79 21.642 125.508 21.8258 125.156 21.9773C124.803 22.1288 124.373 22.2045 123.866 22.2045ZM124.07 21C124.601 21 125.048 20.8958 125.411 20.6875C125.779 20.4792 126.055 20.2102 126.241 19.8807C126.43 19.5511 126.525 19.2045 126.525 18.8409V17.6136C126.468 17.6818 126.343 17.7443 126.15 17.8011C125.96 17.8542 125.741 17.9015 125.491 17.9432C125.245 17.9811 125.004 18.0152 124.769 18.0455C124.538 18.072 124.351 18.0947 124.207 18.1136C123.858 18.1591 123.532 18.233 123.229 18.3352C122.93 18.4337 122.688 18.5833 122.502 18.7841C122.32 18.9811 122.229 19.25 122.229 19.5909C122.229 20.0568 122.402 20.4091 122.746 20.6477C123.095 20.8826 123.536 21 124.07 21ZM132.454 16.75V22H131.113V13.2727H132.409V14.6364H132.522C132.727 14.1932 133.037 13.8371 133.454 13.5682C133.871 13.2955 134.409 13.1591 135.068 13.1591C135.659 13.1591 136.176 13.2803 136.619 13.5227C137.062 13.7614 137.407 14.125 137.653 14.6136C137.899 15.0985 138.022 15.7121 138.022 16.4545V22H136.681V16.5455C136.681 15.8598 136.503 15.3258 136.147 14.9432C135.791 14.5568 135.303 14.3636 134.681 14.3636C134.253 14.3636 133.871 14.4564 133.534 14.642C133.2 14.8277 132.937 15.0985 132.744 15.4545C132.551 15.8106 132.454 16.2424 132.454 16.75ZM144.795 25.4545C144.148 25.4545 143.591 25.3712 143.125 25.2045C142.659 25.0417 142.271 24.8258 141.96 24.5568C141.653 24.2917 141.409 24.0076 141.227 23.7045L142.295 22.9545C142.417 23.1136 142.57 23.2955 142.756 23.5C142.941 23.7083 143.195 23.8883 143.517 24.0398C143.843 24.1951 144.269 24.2727 144.795 24.2727C145.5 24.2727 146.081 24.1023 146.54 23.7614C146.998 23.4205 147.227 22.8864 147.227 22.1591V20.3864H147.114C147.015 20.5455 146.875 20.7424 146.693 20.9773C146.515 21.2083 146.257 21.4148 145.92 21.5966C145.587 21.7746 145.136 21.8636 144.568 21.8636C143.864 21.8636 143.231 21.697 142.67 21.3636C142.114 21.0303 141.672 20.5455 141.346 19.9091C141.024 19.2727 140.864 18.5 140.864 17.5909C140.864 16.697 141.021 15.9186 141.335 15.2557C141.649 14.589 142.087 14.0739 142.648 13.7102C143.208 13.3428 143.856 13.1591 144.591 13.1591C145.159 13.1591 145.61 13.2538 145.943 13.4432C146.28 13.6288 146.538 13.8409 146.716 14.0795C146.898 14.3144 147.038 14.5076 147.136 14.6591H147.273V13.2727H148.568V22.25C148.568 23 148.398 23.6098 148.057 24.0795C147.72 24.553 147.265 24.8996 146.693 25.1193C146.125 25.3428 145.492 25.4545 144.795 25.4545ZM144.75 20.6591C145.288 20.6591 145.742 20.536 146.114 20.2898C146.485 20.0436 146.767 19.6894 146.96 19.2273C147.153 18.7652 147.25 18.2121 147.25 17.5682C147.25 16.9394 147.155 16.3845 146.966 15.9034C146.776 15.4223 146.496 15.0455 146.125 14.7727C145.754 14.5 145.295 14.3636 144.75 14.3636C144.182 14.3636 143.708 14.5076 143.329 14.7955C142.954 15.0833 142.672 15.4697 142.483 15.9545C142.297 16.4394 142.204 16.9773 142.204 17.5682C142.204 18.1742 142.299 18.7102 142.489 19.1761C142.682 19.6383 142.966 20.0019 143.341 20.267C143.72 20.5284 144.189 20.6591 144.75 20.6591ZM155.368 22.1818C154.58 22.1818 153.889 21.9943 153.294 21.6193C152.703 21.2443 152.241 20.7197 151.908 20.0455C151.578 19.3712 151.413 18.5833 151.413 17.6818C151.413 16.7727 151.578 15.9792 151.908 15.3011C152.241 14.6231 152.703 14.0966 153.294 13.7216C153.889 13.3466 154.58 13.1591 155.368 13.1591C156.156 13.1591 156.845 13.3466 157.436 13.7216C158.031 14.0966 158.493 14.6231 158.823 15.3011C159.156 15.9792 159.323 16.7727 159.323 17.6818C159.323 18.5833 159.156 19.3712 158.823 20.0455C158.493 20.7197 158.031 21.2443 157.436 21.6193C156.845 21.9943 156.156 22.1818 155.368 22.1818ZM155.368 20.9773C155.967 20.9773 156.459 20.8239 156.845 20.517C157.232 20.2102 157.518 19.8068 157.703 19.3068C157.889 18.8068 157.982 18.2652 157.982 17.6818C157.982 17.0985 157.889 16.5549 157.703 16.0511C157.518 15.5473 157.232 15.1402 156.845 14.8295C156.459 14.5189 155.967 14.3636 155.368 14.3636C154.77 14.3636 154.277 14.5189 153.891 14.8295C153.504 15.1402 153.218 15.5473 153.033 16.0511C152.847 16.5549 152.754 17.0985 152.754 17.6818C152.754 18.2652 152.847 18.8068 153.033 19.3068C153.218 19.8068 153.504 20.2102 153.891 20.517C154.277 20.8239 154.77 20.9773 155.368 20.9773ZM167.015 11.6136V10.3636H175.742V11.6136H172.083V22H170.674V11.6136H167.015ZM180.815 22.1818C180.027 22.1818 179.336 21.9943 178.741 21.6193C178.15 21.2443 177.688 20.7197 177.355 20.0455C177.025 19.3712 176.86 18.5833 176.86 17.6818C176.86 16.7727 177.025 15.9792 177.355 15.3011C177.688 14.6231 178.15 14.0966 178.741 13.7216C179.336 13.3466 180.027 13.1591 180.815 13.1591C181.603 13.1591 182.292 13.3466 182.883 13.7216C183.478 14.0966 183.94 14.6231 184.269 15.3011C184.603 15.9792 184.769 16.7727 184.769 17.6818C184.769 18.5833 184.603 19.3712 184.269 20.0455C183.94 20.7197 183.478 21.2443 182.883 21.6193C182.292 21.9943 181.603 22.1818 180.815 22.1818ZM180.815 20.9773C181.413 20.9773 181.906 20.8239 182.292 20.517C182.679 20.2102 182.965 19.8068 183.15 19.3068C183.336 18.8068 183.429 18.2652 183.429 17.6818C183.429 17.0985 183.336 16.5549 183.15 16.0511C182.965 15.5473 182.679 15.1402 182.292 14.8295C181.906 14.5189 181.413 14.3636 180.815 14.3636C180.216 14.3636 179.724 14.5189 179.338 14.8295C178.951 15.1402 178.665 15.5473 178.48 16.0511C178.294 16.5549 178.201 17.0985 178.201 17.6818C178.201 18.2652 178.294 18.8068 178.48 19.3068C178.665 19.8068 178.951 20.2102 179.338 20.517C179.724 20.8239 180.216 20.9773 180.815 20.9773ZM191.162 22.1818C190.374 22.1818 189.683 21.9943 189.088 21.6193C188.497 21.2443 188.035 20.7197 187.702 20.0455C187.372 19.3712 187.207 18.5833 187.207 17.6818C187.207 16.7727 187.372 15.9792 187.702 15.3011C188.035 14.6231 188.497 14.0966 189.088 13.7216C189.683 13.3466 190.374 13.1591 191.162 13.1591C191.95 13.1591 192.639 13.3466 193.23 13.7216C193.825 14.0966 194.287 14.6231 194.616 15.3011C194.95 15.9792 195.116 16.7727 195.116 17.6818C195.116 18.5833 194.95 19.3712 194.616 20.0455C194.287 20.7197 193.825 21.2443 193.23 21.6193C192.639 21.9943 191.95 22.1818 191.162 22.1818ZM191.162 20.9773C191.76 20.9773 192.253 20.8239 192.639 20.517C193.025 20.2102 193.311 19.8068 193.497 19.3068C193.683 18.8068 193.775 18.2652 193.775 17.6818C193.775 17.0985 193.683 16.5549 193.497 16.0511C193.311 15.5473 193.025 15.1402 192.639 14.8295C192.253 14.5189 191.76 14.3636 191.162 14.3636C190.563 14.3636 190.071 14.5189 189.685 14.8295C189.298 15.1402 189.012 15.5473 188.827 16.0511C188.641 16.5549 188.548 17.0985 188.548 17.6818C188.548 18.2652 188.641 18.8068 188.827 19.3068C189.012 19.8068 189.298 20.2102 189.685 20.517C190.071 20.8239 190.563 20.9773 191.162 20.9773ZM199.304 10.3636V22H197.963V10.3636H199.304ZM208.742 15.2273L207.537 15.5682C207.462 15.3674 207.35 15.1723 207.202 14.983C207.058 14.7898 206.861 14.6307 206.611 14.5057C206.361 14.3807 206.041 14.3182 205.651 14.3182C205.117 14.3182 204.672 14.4413 204.316 14.6875C203.963 14.9299 203.787 15.2386 203.787 15.6136C203.787 15.947 203.909 16.2102 204.151 16.4034C204.393 16.5966 204.772 16.7576 205.287 16.8864L206.583 17.2045C207.363 17.3939 207.945 17.6837 208.327 18.0739C208.71 18.4602 208.901 18.9583 208.901 19.5682C208.901 20.0682 208.757 20.5152 208.469 20.9091C208.185 21.303 207.787 21.6136 207.276 21.8409C206.765 22.0682 206.17 22.1818 205.492 22.1818C204.602 22.1818 203.865 21.9886 203.282 21.6023C202.698 21.2159 202.329 20.6515 202.174 19.9091L203.446 19.5909C203.568 20.0606 203.797 20.4129 204.134 20.6477C204.475 20.8826 204.92 21 205.469 21C206.094 21 206.59 20.8674 206.958 20.6023C207.329 20.3333 207.515 20.0114 207.515 19.6364C207.515 19.3333 207.409 19.0795 207.196 18.875C206.984 18.6667 206.659 18.5114 206.219 18.4091L204.765 18.0682C203.965 17.8788 203.378 17.5852 203.003 17.1875C202.632 16.786 202.446 16.2841 202.446 15.6818C202.446 15.1894 202.585 14.7538 202.861 14.375C203.142 13.9962 203.522 13.6989 204.003 13.483C204.488 13.267 205.037 13.1591 205.651 13.1591C206.515 13.1591 207.193 13.3485 207.685 13.7273C208.181 14.1061 208.534 14.6061 208.742 15.2273Z" fill="#151D35"/>
</svg>
