<svg width="288" height="288" viewBox="0 0 288 288" fill="none" xmlns="http://www.w3.org/2000/svg">
<path d="M0 62C0 27.7584 27.7583 0 62 0H226C260.242 0 288 27.7583 288 62V226C288 260.242 260.242 288 226 288H62C27.7584 288 0 260.242 0 226V62Z" fill="#AD1457"/>
<path d="M52.3311 121.418L62.0914 120.65C62.2256 124.948 61.1105 128.414 58.7461 131.048C56.3986 133.679 53.2788 135.266 49.3869 135.809C44.703 136.462 40.7047 135.438 37.3918 132.736C34.0789 130.034 32.0423 125.95 31.2819 120.485C30.5285 115.07 31.2854 110.511 33.5524 106.807C35.8195 103.103 39.3961 100.91 44.2821 100.229C48.848 99.5921 52.5284 100.369 55.3235 102.558C58.1354 104.745 59.9924 107.908 60.8945 112.047L51.0869 113.957C50.7654 111.646 50.0866 110.038 49.0505 109.133C48.0312 108.227 46.9234 107.857 45.7272 108.024C42.3912 108.489 41.1903 112.078 42.1244 118.792C42.6477 122.554 43.4329 125.049 44.4799 126.279C45.5438 127.506 46.8592 128.011 48.4261 127.792C51.2229 127.402 52.5246 125.278 52.3311 121.418Z" fill="white"/>
<path d="M82.7212 131.16C77.8689 131.837 73.6854 130.778 70.1708 127.984C66.673 125.187 64.5486 121.09 63.7976 115.692C63.0794 110.53 63.9442 106.068 66.3919 102.304C68.8541 98.5215 72.6799 96.2684 77.8691 95.5446C82.6709 94.875 86.8003 95.9155 90.2574 98.6662C93.7313 101.415 95.8367 105.437 96.5736 110.734C97.3364 116.216 96.423 120.823 93.8334 124.555C91.2439 128.286 87.5398 130.488 82.7212 131.16ZM81.5794 123.323C83.3653 123.074 84.5378 122.12 85.0969 120.46C85.6705 118.78 85.6686 115.866 85.0913 111.716C84.2558 105.711 82.229 102.933 79.011 103.382C75.5403 103.866 74.2813 107.532 75.2342 114.381C76.1283 120.808 78.2434 123.789 81.5794 123.323Z" fill="white"/>
<path d="M136.221 87.9482L141.027 122.487L131.196 123.858L127.76 99.1622L124.802 124.75L118.079 125.687L108.022 101.915L111.458 126.611L103.522 127.718L98.717 93.1788L112.541 91.2508L120.097 108.898L122.321 89.8867L136.221 87.9482Z" fill="white"/>
<path d="M152.825 85.6325L157.631 120.171L147.041 121.648L142.236 87.1093L152.825 85.6325Z" fill="white"/>
<path d="M193.164 115.216L184.546 116.418L172.971 102.478C171.486 100.69 169.933 98.4822 168.314 95.8536C169.18 98.0027 169.72 99.8532 169.936 101.405L172.263 118.131L163.671 119.329L158.865 84.7901L168.873 83.3944L178.67 94.9251C180.62 97.2153 182.141 99.2559 183.232 101.047C182.282 98.1701 181.592 95.1882 181.163 92.1012L179.74 81.8788L188.358 80.6769L193.164 115.216Z" fill="white"/>
<path d="M226.307 90.8608L229 110.218L223.819 110.94C223.198 109.565 222.567 108.424 221.926 107.516C220.171 110.581 217.196 112.406 213.001 112.991C208.553 113.611 204.681 112.569 201.385 109.865C198.086 107.143 196.067 103.126 195.328 97.8123C194.61 92.6504 195.388 88.1225 197.663 84.2284C199.953 80.3151 203.835 77.9767 209.311 77.213C213.422 76.6397 216.878 77.2238 219.68 78.9654C222.481 80.707 224.52 83.4492 225.796 87.1918L215.677 89.635C214.671 86.1124 212.846 84.5356 210.201 84.9045C206.73 85.3886 205.455 88.9369 206.375 95.5494C206.931 99.5473 207.854 102.11 209.145 103.237C210.433 104.347 211.868 104.791 213.452 104.57C214.733 104.392 215.765 103.852 216.55 102.952C217.352 102.049 217.668 100.922 217.497 99.5698L211.785 100.366L210.764 93.0285L226.307 90.8608Z" fill="white"/>
<path d="M66.385 184.267L79.4669 179.988C81.1222 183.622 84.284 185.114 88.9522 184.464C92.5856 183.958 94.2678 182.741 93.9987 180.811C93.8578 179.8 93.3234 179.079 92.3957 178.646C91.4878 178.187 89.9225 177.889 87.7 177.753C79.2234 177.317 73.6345 175.987 70.9333 173.764C68.2321 171.54 66.6413 168.706 66.1608 165.26C65.5426 160.826 66.7071 156.905 69.6546 153.498C72.625 150.087 77.2722 147.942 83.5961 147.062C93.1855 145.727 100.058 148.693 104.212 155.96L92.7471 161.244C91.0665 158.27 88.329 157.046 84.5346 157.574C81.3841 158.013 79.945 159.208 80.2173 161.161C80.339 162.034 80.79 162.662 81.5701 163.045C82.3503 163.428 83.7941 163.696 85.9016 163.848C91.7023 164.258 95.8509 164.758 98.3477 165.347C100.844 165.937 103.042 167.235 104.939 169.243C106.833 171.227 107.99 173.724 108.41 176.733C109.073 181.489 107.679 185.617 104.229 189.118C100.776 192.596 95.9102 194.772 89.6323 195.645C78.1572 197.242 70.4081 193.449 66.385 184.267Z" fill="white"/>
<path d="M136.51 189.122C129.887 190.044 124.177 188.602 119.38 184.797C114.606 180.988 111.706 175.408 110.681 168.057C109.701 161.028 110.881 154.95 114.222 149.825C117.583 144.674 122.805 141.606 129.887 140.62C136.441 139.708 142.078 141.125 146.796 144.871C151.538 148.614 154.411 154.092 155.417 161.305C156.458 168.771 155.211 175.045 151.677 180.127C148.143 185.208 143.087 188.207 136.51 189.122ZM134.951 178.45C137.389 178.11 138.989 176.811 139.753 174.55C140.535 172.263 140.533 168.294 139.745 162.643C138.605 154.465 135.838 150.681 131.446 151.293C126.709 151.952 124.99 156.945 126.291 166.271C127.511 175.024 130.398 179.083 134.951 178.45Z" fill="white"/>
<path d="M185.354 182.325C178.731 183.247 173.021 181.805 168.224 178C163.45 174.191 160.55 168.612 159.525 161.26C158.545 154.231 159.725 148.154 163.066 143.029C166.427 137.877 171.648 134.809 178.731 133.823C185.285 132.911 190.921 134.328 195.64 138.074C200.381 141.817 203.255 147.295 204.261 154.508C205.302 161.974 204.055 168.248 200.521 173.33C196.986 178.412 191.931 181.41 185.354 182.325ZM183.795 171.653C186.233 171.314 187.833 170.014 188.596 167.753C189.379 165.466 189.377 161.497 188.589 155.846C187.448 147.668 184.682 143.885 180.29 144.496C175.553 145.155 173.834 150.148 175.135 159.475C176.355 168.227 179.242 172.287 183.795 171.653Z" fill="white"/>
<path d="M254 172.036L242.237 173.672L226.439 154.689C224.412 152.255 222.293 149.248 220.083 145.668C221.264 148.595 222.002 151.115 222.297 153.228L225.473 176.005L213.745 177.637L207.186 130.602L220.846 128.701L234.218 144.404C236.88 147.522 238.955 150.301 240.444 152.74C239.147 148.823 238.206 144.762 237.62 140.558L235.679 126.637L247.441 125L254 172.036Z" fill="white"/>
</svg>
