<svg width="189" height="32" viewBox="0 0 189 32" fill="none" xmlns="http://www.w3.org/2000/svg">
<rect width="32" height="32" rx="16" fill="#AD1457"/>
<rect x="12.8838" y="8.97852" width="12.2614" height="14.1245" fill="white"/>
<rect x="10.8521" y="8.97852" width="1.25715" height="14.1245" fill="white"/>
<rect x="8.81982" y="8.97852" width="1.25715" height="14.1245" fill="white"/>
<rect x="6.78809" y="8.96973" width="1.25715" height="14.1245" fill="white"/>
<path d="M14.1484 10.2422H23.833V19.9267H14.1484V10.2422Z" fill="url(#paint0_linear_2699_4195)"/>
<path d="M39.7892 21.5258L39.7978 21.5375L39.8066 21.5491C40.6445 22.6563 41.8848 22.953 42.8829 22.953C43.9179 22.953 44.8568 22.6229 45.6703 22.0819C46.4606 22.7531 47.4233 22.9394 48.2171 22.9394C49.2664 22.9394 50.1752 22.5534 50.9179 21.9785C51.719 22.7204 52.7192 22.9394 53.569 22.9394C54.771 22.9394 55.7886 22.4329 56.5834 21.7162C56.6007 21.7006 56.6179 21.6848 56.6351 21.669L56.6394 21.665C56.6541 21.6826 56.6689 21.7001 56.6839 21.7173C57.5018 22.661 58.6349 22.9394 59.5857 22.9394C60.7652 22.9394 61.7903 22.4792 62.6194 21.7805C62.6468 21.7574 62.674 21.7341 62.7009 21.7105L63.2129 21.2626C63.2391 21.2888 63.2657 21.3148 63.2926 21.3406L63.2981 21.3459L63.3036 21.3511C63.474 21.5124 63.6515 21.6596 63.8353 21.7934C64.9725 22.6218 66.348 22.9394 67.751 22.9394C69.0875 22.9394 70.3961 22.6418 71.5136 21.8752C71.5366 21.8594 71.5595 21.8435 71.5823 21.8273L71.5908 21.8213L71.5993 21.8152C71.7198 21.7281 71.8412 21.634 71.9612 21.5327C72.0556 21.6593 72.1553 21.7759 72.2597 21.8831C73.0143 22.6583 74.0079 22.9394 74.9172 22.9394C76.0262 22.9394 77.0154 22.4924 77.831 21.9424C78.5779 22.6727 79.5437 22.9394 80.4294 22.9394C81.5113 22.9394 82.4792 22.5139 83.2832 21.9825C84.1135 22.7521 85.1622 22.9394 85.9824 22.9394C86.5888 22.9394 87.1544 22.8178 87.6735 22.6046C87.8401 23.6711 88.4789 24.514 89.3427 25.049C90.2499 25.6142 91.2794 25.7992 92.2563 25.7992C93.3395 25.7992 94.3758 25.5428 95.3366 25.0443C96.278 24.5649 97.0782 23.8965 97.7124 23.0517C98.1972 22.4233 98.6172 21.7439 98.9749 21.018C99.0726 21.1284 99.1759 21.236 99.285 21.3406L99.2905 21.3459L99.296 21.3511C100.521 22.5109 102.114 22.9394 103.743 22.9394C105.107 22.9394 106.442 22.6294 107.575 21.8273L107.583 21.8213L107.592 21.8152C107.663 21.764 107.734 21.7103 107.805 21.6541C107.837 21.6928 107.87 21.731 107.904 21.7689C108.743 22.697 109.868 22.9394 110.773 22.9394C111.823 22.9394 112.732 22.5534 113.474 21.9785C114.275 22.7204 115.276 22.9394 116.125 22.9394C117.354 22.9394 118.389 22.4106 119.191 21.669L119.196 21.665C120.017 22.6508 121.174 22.9394 122.142 22.9394C123.36 22.9394 124.414 22.4483 125.257 21.7105L126.976 20.2069L125.629 18.6863C125.627 18.6744 125.626 18.6614 125.625 18.6474C125.616 18.5673 125.61 18.4618 125.61 18.3274C125.61 17.9803 125.658 17.4728 125.775 16.7822C126.115 16.6082 126.442 16.3677 126.733 16.043L126.736 16.0396C127.272 15.4397 127.667 14.6388 127.667 13.6836C127.667 13.2477 127.623 12.7363 127.455 12.2305L126.779 10.2019L126.361 10.314C126.214 9.99633 126.002 9.68267 125.699 9.4016C124.88 8.62226 123.829 8.55406 123.3 8.55406C122.565 8.55406 121.853 8.71079 121.186 9.01758C120.638 9.26571 120.097 9.6033 119.573 9.98878L118.833 10.532C118.088 10.0345 117.242 9.88864 116.52 9.88864C115.558 9.88864 114.69 10.1025 113.915 10.4842C113.216 10.0003 112.437 9.88864 111.849 9.88864C110.629 9.88864 109.456 10.2784 108.368 10.874C107.396 10.1149 106.212 9.88864 105.132 9.88864C103.23 9.88864 101.493 10.4476 100.063 11.642C99.9583 11.4759 99.8324 11.3135 99.6819 11.1587C98.9522 10.4078 98.0293 10.2291 97.3495 10.2291L97.3427 10.2291L96.4056 10.0417C95.8489 9.93033 95.2449 9.88864 94.6258 9.88864C93.8241 9.88864 93.0309 10.0338 92.2579 10.2874C91.9129 10.4074 91.4493 10.5951 91.1347 10.7602C91.0075 10.8269 90.8829 10.8972 90.7609 10.9712C90.7999 10.8483 90.8319 10.7206 90.856 10.5882C90.8896 10.4035 90.9077 10.2097 90.9077 10.0067C90.9077 8.97266 90.4558 7.96707 89.5036 7.32488C88.7501 6.81064 87.9094 6.66113 87.1808 6.66113C86.3112 6.66113 85.4945 6.90289 84.7672 7.34265C84.4438 7.53822 84.1529 7.77854 83.9077 8.05842C83.1972 7.57481 82.4079 7.50546 81.9274 7.50546C80.8894 7.50546 79.821 7.89614 78.8207 8.41204C78.8095 8.40085 78.7981 8.38971 78.7866 8.37862C77.9938 7.60344 76.9864 7.50546 76.4153 7.50546C75.1232 7.50546 73.7841 8.11071 72.5879 8.80934L70.5057 10.0253C70.0476 9.92706 69.585 9.88864 69.1401 9.88864C67.4553 9.88864 65.9003 10.3269 64.5738 11.2566L64.2222 10.2019L63.8044 10.314C63.658 9.99628 63.4456 9.68257 63.1424 9.40146C62.3239 8.62225 61.2725 8.55406 60.7433 8.55406C60.008 8.55406 59.2962 8.71084 58.6296 9.01772C58.0811 9.26583 57.5408 9.60337 57.0163 9.98878L56.2769 10.532C55.5314 10.0345 54.6858 9.88864 53.964 9.88864C53.0015 9.88864 52.1335 10.1025 51.3588 10.4842C50.66 10.0003 49.8809 9.88864 49.2929 9.88864C48.5919 9.88864 47.9067 10.0172 47.2442 10.2395C47.1269 9.92827 46.9584 9.6165 46.7189 9.3242C46.0017 8.44867 45.0088 8.17275 44.1767 8.17275C42.7413 8.17275 41.3772 8.73067 40.1397 9.5301L38.4385 10.6291L39.7268 13.23C39.5035 14.4865 39.329 15.5345 39.2047 16.3691C39.0649 17.3074 38.9654 18.1198 38.9654 18.6542C38.9654 19.5542 39.1258 20.6254 39.7892 21.5258Z" fill="#F48FB1"/>
<path d="M42.8836 20.6832C42.2935 20.6832 41.8714 20.5152 41.6171 20.1793C41.3629 19.8343 41.2358 19.3259 41.2358 18.654C41.2358 17.9731 41.5218 16.053 42.0938 12.8936L41.372 11.4364C42.3979 10.7737 43.333 10.4423 44.1774 10.4423C44.8764 10.4423 45.226 10.869 45.226 11.7224C45.226 12.0038 45.0489 13.0524 44.6949 14.8682C44.3499 16.6749 44.1774 17.7507 44.1774 18.0957C44.1774 18.9763 44.3135 19.6346 44.5859 20.0703C44.0412 20.4789 43.4738 20.6832 42.8836 20.6832Z" fill="white"/>
<path d="M48.2178 20.6695C47.6822 20.6695 47.2872 20.5288 47.033 20.2474C46.7788 19.9659 46.6517 19.5937 46.6517 19.1307C46.6517 18.6677 46.7425 17.9141 46.9241 16.8701C47.1147 15.826 47.3099 14.8727 47.5097 14.0102L46.8015 12.9208C47.7003 12.4124 48.531 12.1582 49.2937 12.1582C50.0563 12.1582 50.4376 12.5032 50.4376 13.1932C50.4376 13.6471 50.3332 14.1101 50.1244 14.5822L50.2605 14.6503C51.232 12.9889 52.4667 12.1582 53.9647 12.1582C55.0632 12.1582 55.6125 12.7074 55.6125 13.806C55.6125 14.2781 55.4763 15.077 55.2039 16.2028C54.9407 17.3285 54.809 18.1774 54.809 18.7494C54.809 19.3213 54.9043 19.739 55.095 20.0022C54.6138 20.4471 54.1054 20.6695 53.5698 20.6695C52.5257 20.6695 52.0037 20.1067 52.0037 18.9809C52.0037 18.5633 52.1399 17.8551 52.4122 16.8564C52.6846 15.8578 52.8208 15.2086 52.8208 14.909C52.8208 14.5005 52.6664 14.2962 52.3577 14.2962C52.1035 14.2962 51.813 14.4097 51.4862 14.6367C51.1593 14.8546 50.8416 15.1542 50.5329 15.5355C50.2333 15.9077 49.9791 16.3843 49.7703 16.9654C49.5615 17.5374 49.4571 18.1229 49.4571 18.7221C49.4571 19.3123 49.5524 19.739 49.7431 20.0022C49.2619 20.4471 48.7535 20.6695 48.2178 20.6695Z" fill="white"/>
<path d="M57.4075 15.4129C57.344 15.1587 57.3122 14.9227 57.3122 14.7048C57.3122 14.2599 57.4439 13.924 57.7071 13.697C57.9704 13.4701 58.3109 13.3566 58.7285 13.3566C58.7285 12.8845 58.6059 12.3715 58.3608 11.8177C58.8057 11.4909 59.2097 11.2458 59.5728 11.0823C59.9451 10.9098 60.3354 10.8236 60.744 10.8236C61.1525 10.8236 61.434 10.9008 61.5883 11.0551C61.7517 11.2004 61.8334 11.4273 61.8334 11.736C61.8334 12.0447 61.7699 12.5259 61.6428 13.1795C62.0059 13.1251 62.3736 13.0479 62.7459 12.948C62.8094 13.1387 62.8412 13.3838 62.8412 13.6834C62.8412 13.983 62.7232 14.2645 62.4871 14.5277C62.2602 14.7819 61.9242 14.909 61.4794 14.909H61.2751C60.9483 16.3889 60.7848 17.5283 60.7848 18.3272C60.7848 19.1261 60.9256 19.6845 61.207 20.0022C60.6986 20.4471 60.1584 20.6695 59.5864 20.6695C59.0145 20.6695 58.6014 20.5016 58.3472 20.1657C58.1021 19.8207 57.9795 19.2896 57.9795 18.5723C57.9795 18.1366 58.1384 16.9926 58.4561 15.1406C58.093 15.2041 57.7435 15.2949 57.4075 15.4129Z" fill="white"/>
<path d="M67.7517 20.6695C66.5079 20.6695 65.5456 20.3472 64.8647 19.7026C64.1928 19.0581 63.8569 18.1865 63.8569 17.088C63.8569 15.6263 64.3563 14.4415 65.3549 13.5336C66.3627 12.6167 67.6246 12.1582 69.1408 12.1582C69.9851 12.1582 70.6252 12.3488 71.0609 12.7301C71.4967 13.1024 71.7146 13.5972 71.7146 14.2145C71.7146 15.0588 71.3015 15.7625 70.4754 16.3253C69.6583 16.8791 68.3918 17.1606 66.6759 17.1697C66.7031 17.7507 66.8348 18.2092 67.0708 18.5451C67.3069 18.8719 67.6019 19.0354 67.956 19.0354C68.3101 19.0354 68.6142 18.9173 68.8684 18.6813C69.1317 18.4452 69.2633 18.0594 69.2633 17.5237C70.5888 17.5237 71.2516 17.837 71.2516 18.4634C71.2516 18.999 70.9248 19.5029 70.2711 19.975C69.6174 20.438 68.7776 20.6695 67.7517 20.6695ZM68.9093 13.7515C68.4462 13.7515 68.0195 13.983 67.6292 14.446C67.2478 14.909 66.9709 15.4538 66.7984 16.0802C67.7063 16.0076 68.3872 15.8033 68.8412 15.4674C69.3042 15.1224 69.5357 14.7592 69.5357 14.3779C69.5357 14.1964 69.4767 14.0466 69.3587 13.9285C69.2497 13.8105 69.0999 13.7515 68.9093 13.7515Z" fill="white"/>
<path d="M74.4958 11.8586L73.7332 10.7691C74.868 10.1064 75.7623 9.77499 76.416 9.77499C76.7882 9.77499 77.0515 9.85216 77.2058 10.0065C77.3602 10.1518 77.4373 10.4332 77.4373 10.8508C77.4373 11.2594 77.2331 12.4215 76.8245 14.3371C76.425 16.2527 76.2253 17.5964 76.2253 18.3681C76.2253 19.1398 76.366 19.6845 76.6475 20.0022C76.012 20.4471 75.4355 20.6695 74.918 20.6695C74.4005 20.6695 74.0192 20.5016 73.774 20.1657C73.538 19.8207 73.42 19.3486 73.42 18.7494C73.42 18.1502 73.5879 16.9245 73.9238 15.0725C74.2598 13.2204 74.4504 12.1491 74.4958 11.8586Z" fill="white"/>
<path d="M80.008 11.8586L79.2454 10.7691C80.3802 10.1064 81.2745 9.77499 81.9281 9.77499C82.3004 9.77499 82.5637 9.85216 82.718 10.0065C82.8723 10.1518 82.9495 10.4332 82.9495 10.8508C82.9495 11.2594 82.7452 12.4215 82.3367 14.3371C81.9372 16.2527 81.7375 17.5964 81.7375 18.3681C81.7375 19.1398 81.8782 19.6845 82.1597 20.0022C81.5241 20.4471 80.9476 20.6695 80.4301 20.6695C79.9127 20.6695 79.5313 20.5016 79.2862 20.1657C79.0502 19.8207 78.9321 19.3486 78.9321 18.7494C78.9321 18.1502 79.1001 16.9245 79.436 15.0725C79.7719 13.2204 79.9626 12.1491 80.008 11.8586Z" fill="white"/>
<path d="M88.6387 10.0065C88.6387 10.3515 88.4571 10.6511 88.094 10.9053C87.7308 11.1504 87.3178 11.273 86.8547 11.273C86.3917 11.273 86.024 11.1822 85.7517 11.0006C85.4884 10.8191 85.3567 10.5739 85.3567 10.2652C85.3567 9.84762 85.5519 9.52079 85.9423 9.28474C86.3327 9.04869 86.7458 8.93066 87.1816 8.93066C87.6173 8.93066 87.9669 9.02145 88.2302 9.20303C88.5025 9.3846 88.6387 9.65243 88.6387 10.0065ZM85.9832 20.6695C85.4203 20.6695 85.0117 20.5288 84.7575 20.2474C84.5033 19.9659 84.3762 19.5392 84.3762 18.9673C84.3762 18.3862 84.6667 16.8383 85.2478 14.3235L84.4852 13.1795C85.62 12.4986 86.5143 12.1582 87.1679 12.1582C87.5402 12.1582 87.8035 12.2399 87.9578 12.4033C88.1121 12.5576 88.1893 12.8118 88.1893 13.1659C88.1893 13.3021 88.0214 14.101 87.6854 15.5627C87.3495 17.0244 87.1816 18.0685 87.1816 18.6949C87.1816 19.3213 87.3223 19.7571 87.6037 20.0022C87.0953 20.4471 86.5551 20.6695 85.9832 20.6695Z" fill="white"/>
<path d="M92.2979 16.516C92.2979 16.979 92.425 17.3558 92.6792 17.6463C92.9424 17.9277 93.2647 18.0685 93.6461 18.0685C94.1635 18.0685 94.6266 17.8233 95.0351 17.3331C95.1895 16.5251 95.3892 15.2495 95.6343 13.5064C94.6175 13.5064 93.8049 13.8014 93.1967 14.3916C92.5975 14.9817 92.2979 15.6898 92.2979 16.516ZM95.9067 21.6773C95.48 22.2492 94.9443 22.6986 94.2997 23.0255C93.6551 23.3614 92.9742 23.5294 92.257 23.5294C91.5489 23.5294 90.9769 23.3932 90.5411 23.1208C90.1144 22.8575 89.9011 22.4989 89.9011 22.045C89.9011 21.591 90.0872 21.1144 90.4594 20.6151C90.877 21.2324 91.5035 21.5411 92.3387 21.5411C92.8834 21.5411 93.3873 21.3051 93.8503 20.833C94.3224 20.3699 94.6356 19.689 94.79 18.7902L94.6538 18.7221C94.0092 19.6663 93.183 20.1384 92.1753 20.1384C91.4127 20.1384 90.8135 19.8434 90.3777 19.2532C89.9419 18.6631 89.724 17.8778 89.724 16.8973C89.724 15.9531 89.9828 15.0906 90.5003 14.3098C91.0904 13.411 91.912 12.7891 92.9651 12.4442C93.5462 12.2535 94.1 12.1582 94.6266 12.1582C95.1531 12.1582 95.598 12.1945 95.9611 12.2671C96.0156 12.5122 96.0474 12.7347 96.0565 12.9344C96.4832 12.6439 96.9144 12.4986 97.3502 12.4986C97.9766 12.4986 98.2899 12.8209 98.2899 13.4655C98.2899 14.1101 98.249 14.7729 98.1673 15.4538C98.0856 16.1256 97.9585 16.8474 97.786 17.6191C97.6135 18.3908 97.3638 19.1216 97.037 19.8116C96.7192 20.4925 96.3425 21.1144 95.9067 21.6773Z" fill="white"/>
<path d="M103.744 20.6695C102.5 20.6695 101.538 20.3472 100.857 19.7026C100.185 19.0581 99.8493 18.1865 99.8493 17.088C99.8493 15.6263 100.349 14.4415 101.347 13.5336C102.355 12.6167 103.617 12.1582 105.133 12.1582C105.978 12.1582 106.618 12.3488 107.053 12.7301C107.489 13.1024 107.707 13.5972 107.707 14.2145C107.707 15.0588 107.294 15.7625 106.468 16.3253C105.651 16.8791 104.384 17.1606 102.668 17.1697C102.696 17.7507 102.827 18.2092 103.063 18.5451C103.299 18.8719 103.594 19.0354 103.948 19.0354C104.302 19.0354 104.607 18.9173 104.861 18.6813C105.124 18.4452 105.256 18.0594 105.256 17.5237C106.581 17.5237 107.244 17.837 107.244 18.4634C107.244 18.999 106.917 19.5029 106.264 19.975C105.61 20.438 104.77 20.6695 103.744 20.6695ZM104.902 13.7515C104.439 13.7515 104.012 13.983 103.622 14.446C103.24 14.909 102.963 15.4538 102.791 16.0802C103.699 16.0076 104.38 15.8033 104.834 15.4674C105.297 15.1224 105.528 14.7592 105.528 14.3779C105.528 14.1964 105.469 14.0466 105.351 13.9285C105.242 13.8105 105.092 13.7515 104.902 13.7515Z" fill="white"/>
<path d="M110.774 20.6695C110.239 20.6695 109.844 20.5288 109.589 20.2474C109.335 19.9659 109.208 19.5937 109.208 19.1307C109.208 18.6677 109.299 17.9141 109.48 16.8701C109.671 15.826 109.866 14.8727 110.066 14.0102L109.358 12.9208C110.257 12.4124 111.087 12.1582 111.85 12.1582C112.613 12.1582 112.994 12.5032 112.994 13.1932C112.994 13.6471 112.89 14.1101 112.681 14.5822L112.817 14.6503C113.788 12.9889 115.023 12.1582 116.521 12.1582C117.62 12.1582 118.169 12.7074 118.169 13.806C118.169 14.2781 118.033 15.077 117.76 16.2028C117.497 17.3285 117.365 18.1774 117.365 18.7494C117.365 19.3213 117.461 19.739 117.651 20.0022C117.17 20.4471 116.662 20.6695 116.126 20.6695C115.082 20.6695 114.56 20.1067 114.56 18.9809C114.56 18.5633 114.696 17.8551 114.969 16.8564C115.241 15.8578 115.377 15.2086 115.377 14.909C115.377 14.5005 115.223 14.2962 114.914 14.2962C114.66 14.2962 114.369 14.4097 114.043 14.6367C113.716 14.8546 113.398 15.1542 113.089 15.5355C112.79 15.9077 112.536 16.3843 112.327 16.9654C112.118 17.5374 112.013 18.1229 112.013 18.7221C112.013 19.3123 112.109 19.739 112.299 20.0022C111.818 20.4471 111.31 20.6695 110.774 20.6695Z" fill="white"/>
<path d="M119.964 15.4129C119.9 15.1587 119.869 14.9227 119.869 14.7048C119.869 14.2599 120 13.924 120.264 13.697C120.527 13.4701 120.867 13.3566 121.285 13.3566C121.285 12.8845 121.162 12.3715 120.917 11.8177C121.362 11.4909 121.766 11.2458 122.129 11.0823C122.501 10.9098 122.892 10.8236 123.3 10.8236C123.709 10.8236 123.99 10.9008 124.145 11.0551C124.308 11.2004 124.39 11.4273 124.39 11.736C124.39 12.0447 124.326 12.5259 124.199 13.1795C124.562 13.1251 124.93 13.0479 125.302 12.948C125.366 13.1387 125.398 13.3838 125.398 13.6834C125.398 13.983 125.28 14.2645 125.044 14.5277C124.817 14.7819 124.481 14.909 124.036 14.909H123.832C123.505 16.3889 123.341 17.5283 123.341 18.3272C123.341 19.1261 123.482 19.6845 123.763 20.0022C123.255 20.4471 122.715 20.6695 122.143 20.6695C121.571 20.6695 121.158 20.5016 120.904 20.1657C120.658 19.8207 120.536 19.2896 120.536 18.5723C120.536 18.1366 120.695 16.9926 121.013 15.1406C120.649 15.2041 120.3 15.2949 119.964 15.4129Z" fill="white"/>
<path d="M159.495 10.8514C159.495 10.7083 159.491 10.5143 159.464 10.2905L144.905 10.2934L143.819 10.052C143.334 9.94436 142.842 9.88904 142.346 9.88904C140.9 9.88904 139.555 10.234 138.384 10.957C138.105 10.1692 137.569 9.5089 136.839 9.03381C135.847 8.38181 134.678 8.18677 133.581 8.18677C132.397 8.18677 131.251 8.44061 130.164 8.92854C129.118 9.39298 128.189 10.0296 127.444 10.8704C126.785 11.6127 126.26 12.4394 125.887 13.3472C125.514 14.2443 125.306 15.1831 125.306 16.1489C125.306 17.9991 125.777 19.7914 127.091 21.1215L127.096 21.1263L127.101 21.1311C128.352 22.3819 129.96 22.9398 131.702 22.9398C133.363 22.9398 134.92 22.4844 136.209 21.4387C136.34 21.333 136.467 21.2221 136.592 21.1062C136.666 21.1847 136.742 21.2618 136.822 21.3373C138.033 22.4844 139.585 22.9398 141.202 22.9398C142.091 22.9398 142.955 22.7672 143.78 22.4347L143.795 22.4288L143.809 22.4228C144.598 22.0919 145.312 21.6341 145.941 21.0557C146.011 21.1887 146.089 21.3197 146.177 21.4479L146.196 21.4763L146.216 21.5041C146.993 22.5689 148.149 22.9398 149.194 22.9398C150.303 22.9398 151.292 22.4928 152.107 21.9428C152.854 22.6731 153.82 22.9398 154.706 22.9398C155.868 22.9398 156.9 22.4484 157.737 21.8622L157.803 21.8162C158.647 22.5621 159.704 22.9398 160.858 22.9398C161.65 22.9398 162.394 22.7477 163.063 22.3872C163.727 22.7956 164.475 22.9398 165.148 22.9398C165.705 22.9398 166.225 22.8342 166.705 22.6503C166.882 23.6953 167.515 24.522 168.367 25.0494C169.274 25.6146 170.304 25.7996 171.28 25.7996C172.364 25.7996 173.4 25.5432 174.361 25.0447C175.302 24.5653 176.102 23.8969 176.737 23.0521C177.221 22.4237 177.641 21.7443 177.999 21.0184C178.097 21.1288 178.2 21.2364 178.309 21.341L178.315 21.3463L178.32 21.3515C179.545 22.5113 181.138 22.9398 182.768 22.9398C184.132 22.9398 185.466 22.6298 186.599 21.8277L186.607 21.8217L186.616 21.8156C187.549 21.1414 188.537 20.042 188.537 18.464C188.537 17.9469 188.409 17.412 188.115 16.9236C188.667 16.1721 189 15.2648 189 14.2151C189 12.996 188.537 11.8524 187.561 11.0133C186.559 10.1426 185.3 9.88904 184.157 9.88904C182.254 9.88904 180.517 10.448 179.088 11.6424C178.982 11.4763 178.857 11.3139 178.706 11.1591C177.976 10.4082 177.053 10.2295 176.374 10.2295L176.367 10.2295L175.43 10.0421C174.873 9.93073 174.269 9.88904 173.65 9.88904C172.848 9.88904 172.055 10.0342 171.282 10.2878L166.853 10.289L171.281 10.2882C170.385 10.5818 169.585 11.0253 168.898 11.6134C168.811 11.4817 168.711 11.3525 168.595 11.2278C168.073 10.6621 167.439 10.3954 166.853 10.289L161.075 10.2902C160.519 10.4779 159.989 10.7316 159.489 11.0517C159.493 10.982 159.495 10.9151 159.495 10.8514Z" fill="#AD1457"/>
<path d="M165.177 10.052C164.665 9.93814 164.138 9.88904 163.609 9.88904C162.718 9.88904 161.87 10.0224 161.075 10.2902L166.852 10.2888C166.618 10.2463 166.391 10.2295 166.183 10.2295C166.119 10.2295 166.056 10.2308 165.993 10.2333L165.177 10.052Z" fill="#AD1457"/>
<path d="M144.736 10.0525L144.905 10.2934L159.464 10.2905C159.399 9.72776 159.195 8.97731 158.575 8.37885C157.782 7.60383 156.775 7.50586 156.204 7.50586C155.166 7.50586 154.097 7.89654 153.097 8.41244C153.086 8.40119 153.074 8.38999 153.063 8.37885C152.27 7.60383 151.263 7.50586 150.692 7.50586C149.4 7.50586 148.061 8.11111 146.864 8.80974L144.736 10.0525Z" fill="#AD1457"/>
<path d="M127.575 16.1487C127.575 15.5132 127.711 14.8686 127.984 14.2149C128.256 13.5522 128.642 12.9393 129.141 12.3765C129.641 11.8136 130.29 11.3551 131.089 11.001C131.897 10.6379 132.727 10.4563 133.581 10.4563C134.443 10.4563 135.115 10.6152 135.596 10.9329C136.087 11.2507 136.332 11.691 136.332 12.2539C136.332 12.8168 136.146 13.2571 135.773 13.5749C135.41 13.8835 134.993 14.0379 134.52 14.0379C134.048 14.0379 133.622 13.938 133.24 13.7383C132.868 13.5295 132.569 13.2344 132.342 12.8531C131.851 13.0891 131.429 13.5522 131.075 14.2422C130.721 14.9321 130.544 15.6267 130.544 16.3257C130.544 17.0157 130.657 17.565 130.884 17.9735C131.111 18.373 131.434 18.5727 131.851 18.5727C132.269 18.5727 132.637 18.3594 132.954 17.9327C133.281 17.506 133.445 16.993 133.445 16.3938C134.362 16.3938 135.015 16.4665 135.406 16.6117C135.805 16.757 136.005 17.0702 136.005 17.5514C136.005 18.3049 135.596 19.0131 134.779 19.6758C133.962 20.3386 132.936 20.6699 131.702 20.6699C130.467 20.6699 129.468 20.2886 128.706 19.526C127.952 18.7634 127.575 17.6376 127.575 16.1487Z" fill="white"/>
<path d="M144.062 13.1936C144.57 13.1936 145.006 13.3978 145.369 13.8064C145.741 14.2149 145.927 14.8096 145.927 15.5904C145.927 16.3621 145.791 17.0793 145.519 17.742C145.246 18.3957 144.888 18.9313 144.443 19.349C143.998 19.7666 143.494 20.0934 142.931 20.3295C142.368 20.5565 141.792 20.6699 141.202 20.6699C140.012 20.6699 139.073 20.3431 138.383 19.6894C137.693 19.0358 137.348 18.1687 137.348 17.0884C137.348 15.6267 137.815 14.4419 138.751 13.534C139.695 12.6171 140.893 12.1586 142.346 12.1586C142.673 12.1586 142.999 12.1949 143.326 12.2675C143.426 12.5671 143.481 12.9076 143.49 13.2889C143.68 13.2253 143.871 13.1936 144.062 13.1936ZM142.387 15.0865C142.387 14.8323 142.446 14.5463 142.564 14.2285C142.691 13.9108 142.89 13.6566 143.163 13.4659C141.964 13.7201 141.138 14.2058 140.684 14.9231C140.294 15.5404 140.099 16.1759 140.099 16.8296C140.099 17.4833 140.23 18.0099 140.494 18.4093C140.766 18.7997 141.111 18.9949 141.529 18.9949C142.455 18.9949 143.108 18.3912 143.49 17.1837C142.754 16.7297 142.387 16.0307 142.387 15.0865Z" fill="white"/>
<path d="M148.771 11.859L148.009 10.7695C149.144 10.1068 150.038 9.77539 150.692 9.77539C151.064 9.77539 151.327 9.85256 151.481 10.0069C151.636 10.1522 151.713 10.4336 151.713 10.8512C151.713 11.2598 151.509 12.4219 151.1 14.3375C150.701 16.2531 150.501 17.5968 150.501 18.3685C150.501 19.1402 150.642 19.6849 150.923 20.0026C150.288 20.4475 149.711 20.6699 149.194 20.6699C148.676 20.6699 148.295 20.502 148.05 20.1661C147.814 19.8211 147.696 19.349 147.696 18.7498C147.696 18.1506 147.863 16.9249 148.199 15.0729C148.535 13.2208 148.726 12.1495 148.771 11.859Z" fill="white"/>
<path d="M154.284 11.859L153.521 10.7695C154.656 10.1068 155.55 9.77539 156.204 9.77539C156.576 9.77539 156.839 9.85256 156.994 10.0069C157.148 10.1522 157.225 10.4336 157.225 10.8512C157.225 11.2598 157.021 12.4219 156.612 14.3375C156.213 16.2531 156.013 17.5968 156.013 18.3685C156.013 19.1402 156.154 19.6849 156.435 20.0026C155.8 20.4475 155.223 20.6699 154.706 20.6699C154.188 20.6699 153.807 20.502 153.562 20.1661C153.326 19.8211 153.208 19.349 153.208 18.7498C153.208 18.1506 153.376 16.9249 153.712 15.0729C154.047 13.2208 154.238 12.1495 154.284 11.859Z" fill="white"/>
<path d="M163.582 18.6544L163.445 18.5864C163.2 19.24 162.846 19.753 162.383 20.1252C161.929 20.4884 161.421 20.6699 160.858 20.6699C160.086 20.6699 159.469 20.3794 159.006 19.7984C158.543 19.2173 158.311 18.4411 158.311 17.4697C158.311 15.9626 158.815 14.7006 159.823 13.6838C160.84 12.667 162.102 12.1586 163.609 12.1586C163.999 12.1586 164.358 12.1949 164.685 12.2675C164.739 12.5217 164.771 12.7442 164.78 12.9348C165.234 12.6443 165.701 12.499 166.183 12.499C166.845 12.499 167.177 12.8576 167.177 13.5749C167.177 13.8291 167.031 14.5962 166.741 15.8763C166.46 17.1564 166.319 18.1052 166.319 18.7225C166.319 19.3399 166.46 19.7666 166.741 20.0026C166.233 20.4475 165.701 20.6699 165.148 20.6699C164.603 20.6699 164.203 20.5065 163.949 20.1797C163.704 19.8528 163.582 19.3444 163.582 18.6544ZM160.872 16.8024C160.872 17.2472 160.962 17.5922 161.144 17.8374C161.335 18.0734 161.602 18.1914 161.947 18.1914C162.292 18.1914 162.633 18.0643 162.969 17.8101C163.305 17.5559 163.586 17.2064 163.813 16.7615C163.895 15.8446 164.072 14.7596 164.344 13.5068C163.427 13.5068 162.619 13.8381 161.92 14.5009C161.221 15.1637 160.872 15.9308 160.872 16.8024Z" fill="white"/>
<path d="M171.321 16.5164C171.321 16.9794 171.448 17.3562 171.702 17.6467C171.966 17.9281 172.288 18.0689 172.669 18.0689C173.187 18.0689 173.65 17.8237 174.058 17.3335C174.213 16.5255 174.412 15.2499 174.658 13.5068C173.641 13.5068 172.828 13.8018 172.22 14.392C171.621 14.9821 171.321 15.6902 171.321 16.5164ZM174.93 21.6777C174.503 22.2496 173.968 22.699 173.323 23.0259C172.678 23.3618 171.998 23.5298 171.28 23.5298C170.572 23.5298 170 23.3936 169.564 23.1212C169.138 22.8579 168.924 22.4993 168.924 22.0454C168.924 21.5914 169.11 21.1148 169.483 20.6155C169.9 21.2328 170.527 21.5415 171.362 21.5415C171.907 21.5415 172.411 21.3055 172.874 20.8334C173.346 20.3703 173.659 19.6894 173.813 18.7906L173.677 18.7225C173.033 19.6667 172.206 20.1388 171.199 20.1388C170.436 20.1388 169.837 19.8438 169.401 19.2536C168.965 18.6635 168.747 17.8782 168.747 16.8977C168.747 15.9535 169.006 15.091 169.524 14.3102C170.114 13.4114 170.935 12.7895 171.988 12.4446C172.569 12.2539 173.123 12.1586 173.65 12.1586C174.176 12.1586 174.621 12.1949 174.984 12.2675C175.039 12.5126 175.071 12.7351 175.08 12.9348C175.506 12.6443 175.938 12.499 176.373 12.499C177 12.499 177.313 12.8213 177.313 13.4659C177.313 14.1105 177.272 14.7733 177.191 15.4542C177.109 16.126 176.982 16.8478 176.809 17.6195C176.637 18.3912 176.387 19.122 176.06 19.812C175.743 20.4929 175.366 21.1148 174.93 21.6777Z" fill="white"/>
<path d="M182.767 20.6699C181.524 20.6699 180.561 20.3476 179.88 19.703C179.209 19.0585 178.873 18.1869 178.873 17.0884C178.873 15.6267 179.372 14.4419 180.371 13.534C181.378 12.6171 182.64 12.1586 184.156 12.1586C185.001 12.1586 185.641 12.3492 186.077 12.7305C186.512 13.1028 186.73 13.5976 186.73 14.2149C186.73 15.0592 186.317 15.7629 185.491 16.3257C184.674 16.8795 183.408 17.161 181.692 17.1701C181.719 17.7511 181.85 18.2096 182.087 18.5455C182.323 18.8723 182.618 19.0358 182.972 19.0358C183.326 19.0358 183.63 18.9177 183.884 18.6817C184.147 18.4456 184.279 18.0598 184.279 17.5241C185.605 17.5241 186.267 17.8374 186.267 18.4638C186.267 18.9994 185.94 19.5033 185.287 19.9754C184.633 20.4384 183.793 20.6699 182.767 20.6699ZM183.925 13.7519C183.462 13.7519 183.035 13.9834 182.645 14.4464C182.264 14.9094 181.987 15.4542 181.814 16.0806C182.722 16.008 183.403 15.8037 183.857 15.4678C184.32 15.1228 184.551 14.7596 184.551 14.3783C184.551 14.1968 184.492 14.047 184.374 13.9289C184.265 13.8109 184.116 13.7519 183.925 13.7519Z" fill="white"/>
<defs>
<linearGradient id="paint0_linear_2699_4195" x1="15.3227" y1="10.2422" x2="25.0643" y2="19.8689" gradientUnits="userSpaceOnUse">
<stop stop-color="#F48FB1"/>
<stop offset="0.461442" stop-color="#F48FB1" stop-opacity="0.38"/>
<stop offset="1" stop-color="#F48FB1"/>
</linearGradient>
</defs>
</svg>
